<?xml version="1.0" standalone="no"?>
<!DOCTYPE svg PUBLIC "-//W3C//DTD SVG 1.1//EN" "http://www.w3.org/Graphics/SVG/1.1/DTD/svg11.dtd" >
<svg xmlns="http://www.w3.org/2000/svg" xmlns:xlink="http://www.w3.org/1999/xlink" version="1.1">
<metadata></metadata>
<defs>
<font id="caveatbold" horiz-adv-x="913" >
<font-face units-per-em="2048" ascent="1638" descent="-410" />
<missing-glyph horiz-adv-x="495" />
<glyph unicode="&#xfb01;" horiz-adv-x="940" d="M1108 1106q51 0 88 -39t37 -96q-4 -51 -41 -98.5t-89 -47.5t-81 37t-29 66.5t37 100.5t60 73q4 4 18 4zM942 653q4 23 34 23t72 -40t48 -77q0 -27 -25 -84q-55 -168 -74.5 -259t-33 -132t-31 -56.5t-48 -15.5t-58 34t-27.5 74t8 80t8 48v4q0 12 34 111.5t49 148.5 t29.5 94t14.5 47zM135 -104l17 116q0 37 41 250q33 123 50 210t30.5 121t41.5 85q86 233 121 299l6 14q63 170 246 332q115 53 177.5 53t116.5 -56t54 -97q-14 -61 -80.5 -150.5t-87.5 -89.5q-14 0 -22 15.5t-16.5 39t-22.5 37.5q0 6 9 36t9 53.5t-18 23.5h-4 q-96 -59 -164 -180q-23 -37 -25 -52q-6 -20 -12 -20q-41 -109 -70 -137h3q-39 -92 -39 -100.5t20 -8.5l164 29q43 0 65.5 -35t22.5 -84q0 -29 -184 -68l-49.5 -12t-38 -8t-30.5 -8t-20.5 -10.5t-15.5 -12.5q-14 -20 -15 -32.5t-8.5 -33t-31 -129t-23.5 -132.5 q-23 -27 -28 -111v-18q-10 -102 -11 -138l-6 -59q-8 -76 -28 -76q-35 0 -89.5 47.5t-54.5 96.5z" />
<glyph unicode="&#xfb02;" horiz-adv-x="942" d="M975 862q0 6 12 31q0 33 17 57q25 41 32 72l58 117q20 59 65 78l-2 2q10 16 38 28.5t48 12.5q59 0 60 -62q0 -53 -17 -74h2q-25 -70 -36 -82t-89 -165q-94 -182 -110 -246q-4 -8 -15.5 -35t-13.5 -31l-35 -127l-8 -43q-33 -92 -35 -110q-10 -31 -11 -38t-15 -48 q-33 -94 -37 -170l-2 -9q-6 -45 -25.5 -67.5t-48.5 -13.5q-61 20 -62 102q-2 68 21 221q55 229 69.5 264t24.5 68q62 198 115 268zM307 29l-16 -201q-6 -61 -21 -76q-12 -8 -56 19.5t-66.5 53t-25.5 42t3 70.5q10 31 10 86q0 68 30 187.5t38 176.5q39 129 39 168t28 55 q2 16 31 68q86 240 123 305q37 102 59 129q14 35 78 102.5t113 108.5q102 53 166.5 53t142.5 -73q27 -31 32 -41.5t5 -38.5q-8 -39 -71.5 -137.5t-80.5 -100.5q-25 -8 -36 5.5t-11 38t-30 46.5q0 31 14 51q10 20 5 44t-26 18q-18 -10 -64 -49t-46 -52q-10 -27 -39 -61 q-37 -51 -37 -70.5t-12 -19.5q-8 -29 -29 -66q-18 -49 -41 -71h2q-39 -92 -37 -101.5t49.5 -4.5t93.5 17.5t87 2.5q23 -14 37 -63.5t6 -61.5q-8 -23 -131 -45q-25 -6 -82 -19q-119 -23 -119 -32q-20 0 -20.5 -27t-9.5 -48.5t-32.5 -130t-23.5 -132.5q-16 -20 -17 -74 q-12 -22 -12 -51z" />
<glyph unicode="&#xfb03;" horiz-adv-x="1339" d="M1548 959.5q39 -58.5 39 -96.5t-22.5 -63.5t-61.5 -25.5t-96 45t-57 96q0 18 32.5 73.5t44.5 62.5q35 0 76 -21q6 -12 45 -70.5zM852 1008l27 120q0 16 -9.5 20.5t-34 4.5t-59.5 -16.5t-35 -30.5v-8q-12 4 -64 -65.5t-75 -114.5q-45 -80 -110 -279l32 -4q6 0 35 4 q70 14 166 29l12 22q25 72 92 234q23 74 23 84zM1288 631l-2 16q0 18 13.5 31.5t39 13.5t69.5 -40t44 -117.5t-44 -284.5t-73 -211q-12 0 -42.5 15.5t-36 29.5t-30 33.5t-24.5 34.5zM557 -125l14 133q0 57 28 168t40 211q6 20 18.5 57t16.5 56q-45 0 -138.5 -15.5 t-99.5 -21.5q-20 -12 -51 -152.5t-31 -215.5t7.5 -123t7.5 -69.5t-20.5 -53t-43.5 -39.5q-49 0 -84 80.5t-35 219t84 441.5q29 102 102.5 274t90.5 187h4q4 0 2 -4q29 63 53 110q61 86 147.5 149.5t141.5 63.5t102.5 -33.5t67.5 -85.5q33 39 89 78t67 47q72 39 133 39 q82 0 155 -82q23 -25 27 -34t4 -37q-8 -43 -48 -102.5t-77 -98.5t-47 -39q-20 0 -30.5 43t-30.5 49l20 84q0 29 -20 29h-4q-43 -25 -78 -63t-39 -48q-66 -100 -72 -118.5t-7 -20.5t-5 -2q-53 -121 -70 -137h2q-39 -88 -39 -96.5t25 -8.5l166 29q39 0 63.5 -38t24.5 -85v-10 q-6 -16 -57.5 -34.5t-85.5 -18.5q-33 -8 -72 -17.5t-54.5 -13.5t-35 -10.5t-25.5 -12.5q-12 -12 -16 -33.5t-23.5 -76t-47.5 -166t-28 -148.5q-10 -82 -10 -141l-6 -59q-10 -27 -10 -65t-23 -38q-35 0 -87 37t-52 82z" />
<glyph unicode="&#xfb04;" horiz-adv-x="1372" d="M741 1106v-8q-10 2 -55 -56.5t-82 -117.5q-16 -35 -96 -236l-16 -49l32 -4q18 0 91 13.5t110 19.5l12 22q53 152 92 234q23 74 26 94t15.5 66t7 57.5t-36 12.5t-65.5 -16.5t-35 -31.5zM1243 -61q-61 20 -63 84q0 84 22 239q55 229 69.5 264t24.5 68q61 199 115 268 q2 4 6 15.5t6 15.5q0 33 15 57q27 41 35 72l57 117q20 59 65 78l-2 2q10 16 38 28.5t48 12.5q59 0 60 -62q0 -53 -17 -74h2q-23 -66 -35 -80t-92 -167q-92 -182 -108 -246q-4 -8 -15.5 -35t-13.5 -31l-35 -127l-8 -43q-33 -92 -35 -110q-10 -31 -11 -38t-15 -48 q-33 -94 -37 -170l-2 -9q-6 -45 -25.5 -67t-48.5 -14zM745 59l-16 -200q-10 -88 -22 -101q-14 -8 -58.5 11.5t-66 45t-24.5 42t3 69.5q10 31 10 90q0 74 30 194t38 177q6 20 18.5 57t16.5 56q-45 0 -138.5 -15.5t-99.5 -21.5q-29 -14 -55 -176q-23 -90 -27 -193.5 t9.5 -147.5t-8 -86t-50.5 -53q-41 -4 -79 68t-38 170q-16 156 82 506q29 102 102.5 274t90.5 187q8 -2 10 3t2 11t7 19.5t19.5 35t20.5 37.5q41 57 112 118.5t110.5 78t80.5 16.5t88.5 -33.5t67.5 -85.5q33 39 89 78t67 47q76 39 140 39t142 -73q29 -31 33 -41.5t4 -38.5 q-8 -39 -72.5 -137.5t-83.5 -100.5q-25 -8 -36 5.5t-11 36t-30 48.5q0 35 14 55q10 20 4 41t-27 15q-20 -10 -64 -48t-44 -51q-10 -27 -39 -61q-37 -51 -37 -70.5t-12 -19.5q-8 -29 -29 -66q-18 -49 -41 -71h2q-39 -88 -37 -97.5t51.5 -4.5t95.5 17.5t87 2.5 q23 -14 37 -67.5t6 -65.5q-8 -23 -131 -45q-23 -6 -80 -19q-115 -23 -115 -33q-20 0 -20 -26.5t-10.5 -52t-35 -113.5t-24.5 -111q-16 -20 -16 -73q-13 -23 -13 -52z" />
<glyph horiz-adv-x="0" />
<glyph horiz-adv-x="0" />
<glyph unicode="&#xd;" horiz-adv-x="495" />
<glyph unicode=" "  horiz-adv-x="495" />
<glyph unicode="&#x09;" horiz-adv-x="495" />
<glyph unicode="&#xa0;" horiz-adv-x="495" />
<glyph unicode="!" horiz-adv-x="430" d="M209 188q39 27 59.5 28t59.5 -15q70 -43 61.5 -95.5t-90.5 -93.5q-80 -31 -135 13q-82 79 45 163zM469 950l27 72q37 61 106.5 231t72.5 193.5t11 35t25 9.5q10 8 49 8q33 -10 52 -31.5t19 -61.5t-5 -56.5t-9 -27.5t-15 -32.5t-16 -32.5q-10 -20 -43 -75 q-59 -115 -59 -118t-27 -65q-16 -27 -33.5 -73.5t-17.5 -57.5q-10 -27 -16 -32q-10 0 -10 -17v-6q0 -29 -39 -108q-70 -199 -76 -275t-57 -100q-63 -12 -90 48t4 206q29 57 28 86q25 88 70 172q8 0 17 14t9 45t23 49z" />
<glyph unicode="&#x22;" horiz-adv-x="485" d="M759 1373.5q9 17.5 16 14t24.5 -11.5t28 -13t24.5 -14.5t25 -17.5q20 -18 15 -57t-50 -189q-20 -76 -115 -182q0 -8 -19.5 -12t-29.5 -8q-53 -10 -84 16q-10 35 24 84q78 127 89.5 160t17.5 57q14 57 13 84t5.5 49.5t15.5 40zM490.5 1373.5q9.5 17.5 16.5 14t24.5 -11.5 t27.5 -13t24.5 -14.5t22.5 -17.5q23 -18 17.5 -57t-50.5 -189q-20 -76 -114 -182q0 -8 -19.5 -12t-29.5 -8q-55 -10 -86 16q-8 35 26 84q78 127 89.5 160t17.5 57q14 57 13 84t5 49.5t15.5 40z" />
<glyph unicode="#" horiz-adv-x="1144" d="M578 557q-10 0 -11 -16v-6q0 -8 -10 -43l328 6l22 59q20 0 20.5 45t22.5 64l21 77l12 29q-205 -4 -321 -4q-74 -158 -74 -179.5t-10 -31.5zM442 666l21 77l10 23h-63q-41 0 -72 10q-53 0 -74 37q-37 49 68 68q121 14 196 16q233 578 234 625q0 16 21.5 33.5t39.5 17.5 q10 10 33 10l33 -33q53 -49 53 -94q0 -37 -12 -64.5t-18.5 -42t-25 -52t-93 -212t-78.5 -182.5q92 4 327 8q227 563 228 611q0 16 21.5 33.5t39.5 17.5q10 10 33 10l33 -33q53 -49 53 -94q0 -37 -12.5 -64.5t-18.5 -42t-24 -51.5q-27 -57 -170 -385h75q49 0 69 -7 t47.5 -34.5t10 -60.5t-62.5 -25l-154 -12h-39q-76 -170 -75.5 -188.5t-10.5 -28.5q-10 0 -10 -16v-6q0 -10 -8 -33h107q49 0 68.5 -7.5t47 -35t11 -60t-61.5 -24.5l-115 -10h-16l-86 -3q-150 -512 -150 -576.5t-51 -88.5q-59 -16 -95 58.5t-11 187.5q23 59 22 86 q8 45 103 329l-328 -2q-147 -504 -147 -569.5t-52 -89.5q-59 -16 -95 58.5t-11 187.5q23 59 22 86q10 51 101 325h-45q-41 0 -72 11q-53 0 -76 38q-35 47 60 64q70 12 176 16q18 61 26 74q20 0 20 45.5t23 63.5z" />
<glyph unicode="$" horiz-adv-x="921" d="M627 874q2 -2 6 -16q10 -35 29 -53l30 -35q66 127 146 295q-68 -12 -113 -64q-98 -61 -98 -127zM729 367q14 20 14 31.5t2.5 32t-0.5 32.5q-2 35 -53 90l-4 -4q-8 0 -8 -8q-6 -39 -49 -103l-88 -213q162 33 186 119v23zM1153 1051.5q-16 -29.5 -37.5 -29.5t-71 22.5 t-83.5 26.5q-94 -170 -152 -285q-33 -59 -49 -88q43 -43 48 -47t7 -8q8 -6 8 -8v-6q4 0 32 -38t30 -50q47 -63 47 -181q0 -25 -39 -69q-141 -174 -410 -213q-80 -201 -86 -248q-2 -55 -11 -69.5t-38 -14.5q-49 0 -49 61.5t31 169.5q31 43 35 91h-29q-76 0 -90 14 q-43 0 -98.5 58.5t-55.5 103.5t27.5 67.5t64.5 22.5t66 -15q-23 -49 -23 -63q0 -47 125 -47q49 0 72 2q135 317 162 358q8 0 18 14.5t12 28.5v13l-4 4q-51 80 -84 98q-6 6 -16 27q-6 12 -16 22q-31 37 -31 86q0 113 92 189q23 27 82 68.5t67.5 41.5t11.5 1t27 12 q66 29 119 28l43 10q119 252 123 283q10 27 31 27h10q4 4 21 4l26 -15q51 -76 4 -157q-8 -14 -33.5 -56.5t-50.5 -87.5q53 -16 91 -45.5t39 -56.5t-15 -56.5z" />
<glyph unicode="%" horiz-adv-x="1228" d="M1335 1204q14 8 33 0q31 -35 49 -65q25 -35 -10 -86q-23 -35 -43 -52q-27 -23 -102 -90q-233 -233 -238 -252q-20 -16 -43 -45q-143 -127 -147 -143q-14 -18 -25 -22l-14 -13q0 -18 -68 -82q-334 -403 -352.5 -447t-44 -66.5t-43.5 -26.5q-68 6 -79 63t62 168 q41 45 47 61q37 51 328 379q8 -2 18.5 7.5t20.5 36t37 30.5q2 6 12 17.5t11 16.5t9.5 12t10.5 13q51 43 285.5 296t244.5 274q8 26 41 16zM1073 283q0 37 -8 43q-45 20 -88 -23q-57 -45 -133 -205q-31 -74 10 -97.5t127 73.5q92 103 92 209zM879 420q74 63 155 80 q37 12 53.5 10t38.5 -29q41 -16 76 -57t39 -86q12 -133 -76 -260t-174 -178q-96 -61 -180 -66q-33 0 -66.5 33t-53 73t-13.5 68l2 37q-8 10 2 21q10 0 4 27.5t70 158.5t123 168zM551 766q47 -23 137 76.5t86 201.5q0 37 -8 43q-43 20 -86 -22q-59 -45 -135 -205 q-31 -74 6 -94zM383 827q10 0 4 28t71 161t122 168q72 61 155 78q37 12 53.5 10t38.5 -29q41 -16 76 -57t39 -84q12 -133 -86 -277q-160 -219 -344 -227q-33 0 -66 33q-80 78 -67 139l2 37q-6 10 -2 14t4 6z" />
<glyph unicode="&#x26;" horiz-adv-x="1155" d="M618 457q-37 33 -49 61q-10 0 -50 -43t-58 -74q-59 -43 -109 -127q-41 -66 -22 -86q4 -6 23.5 -15t27.5 -15q45 -14 78 -16.5t73 14.5q76 29 218 133q-59 70 -86.5 107.5t-45.5 60.5zM891 1118q-8 14 -45 29.5t-73 15.5t-69.5 -28.5t-88 -106.5t-66.5 -133t24 -123 q23 23 118 94.5t154.5 136t45.5 115.5zM674 1341l16 5q8 6 64.5 0.5t95.5 -17.5q80 -10 107.5 -18t50.5 -35q43 -33 80.5 -87t37.5 -83q0 -61 -153 -199l-82 -84q0 -10 -11.5 -23.5t-25.5 -19.5q-170 -147 -173 -160.5t86 -133t107 -119.5q47 45 143.5 130t145.5 130 q47 51 78 67.5t42 12t32 -22.5q25 -4 28 -36t-4.5 -60.5t-11.5 -32.5q-43 -55 -178 -177t-158 -145q98 -117 157.5 -162.5t114 -63t77 -44t26.5 -74.5q4 -51 -104.5 -39.5t-169.5 48.5q-53 14 -238 235q-170 -94 -220 -114.5t-106 -36.5q-135 -12 -247 26q-25 8 -78 43 t-70 51q-14 8 -19 67.5t3 86.5t111.5 164t203.5 237q-78 104 -77 214t87 262q51 84 168 188q43 37 47 31q7 -11 17 -11z" />
<glyph unicode="'" horiz-adv-x="239" d="M485.5 1373.5q10.5 17.5 17.5 14t24.5 -11.5t27.5 -13t24.5 -14.5t22.5 -17.5q23 -18 18.5 -52t-53.5 -194q-20 -78 -112 -182q0 -8 -19.5 -12t-29.5 -8q-55 -10 -87 16q-10 35 25 84q78 127 89 160t18 57q14 57 13 84t5 49.5t16.5 40z" />
<glyph unicode="(" horiz-adv-x="675" d="M475 408q-8 0 -17 -70t-16 -113q-4 -135 16.5 -204.5t78.5 -131.5q47 -41 98 -43l70 -43q-12 -45 -48 -67.5t-75 -18.5q-94 12 -164 83t-99 165q-39 86 -37.5 224.5t34 252t36.5 164.5q8 27 77 182.5t93 221.5q43 94 154.5 254.5t154.5 196.5t56 38q8 20 31.5 35.5 t44.5 15.5q47 29 100 14.5t70 -71.5q6 -29 -0.5 -37t-45.5 -26q-72 -27 -96 -56q-45 -57 -76 -76q-37 -14 -36 -32q-23 -53 -74 -119l-56 -94.5t-67 -114.5t-47 -72q0 -31 -31 -80q-12 -45 -43 -108.5t-58.5 -152t-27.5 -117.5z" />
<glyph unicode=")" horiz-adv-x="675" d="M481 383q10 10 11 49q33 16 28 72q0 2 8 24q27 59 31 109q33 104 43 184t16.5 184.5t8.5 147.5t2 59v41q0 49 -21 80q-20 66 -33.5 66t-13.5 29.5t6 48.5q-2 8 30 18t56.5 9t48.5 -31q8 8 27 -31t40.5 -93.5t23.5 -88t-7 -181.5q-2 -205 -57 -469q-27 -106 -93.5 -277 t-96.5 -220q8 0 -61.5 -101.5t-88.5 -132.5q-49 -68 -125 -118t-115.5 -38.5t-76.5 45t-39 64.5q0 37 10 57q16 -16 59 -4q39 -2 60.5 7.5t40 32t57.5 69.5t47 69q41 31 74 82q0 45 37 105q12 27 28 59q35 64 35 74z" />
<glyph unicode="*" horiz-adv-x="743" d="M860 940q0 8 13.5 8t34 -27.5t14.5 -31.5v-12q6 -2 -10.5 -20.5t-38 -36t-25.5 -17.5q-20 -12 -48 11.5t-41.5 48t-17.5 38.5q-16 47 -28 80l-4 76q-8 8 -193 -176q-82 -76 -106 -72q-8 0 -23.5 10t-17.5 13.5t-1 41t7 52.5q20 27 110 120t107 105q16 16 16 22.5 t-16 20.5q-14 20 -12 26.5t-9 8.5q-12 18 -12 35l-16 51q-10 10 -1 40.5t19 41.5q6 0 19 -11q14 0 71 -79q14 -29 20.5 -32t12.5 -2t10 1q29 43 35 92q20 29 39 57l45 70q6 20 16 23q12 16 33 26t25 6q25 -18 33 -41l36 -30q-76 -100 -101.5 -157.5t-20.5 -57.5q31 14 59 20 q27 12 51 21q20 0 49 18q31 10 49 0q14 -14 27.5 -46t13.5 -44q-14 -10 -25 -18.5t-26 -16.5q-39 -25 -122 -49.5t-87 -38.5q-25 0 0 -35q4 -12 6 -55q6 -23 11.5 -45.5t11.5 -44.5q8 0 8 12z" />
<glyph unicode="+" d="M653 764l15 -260q63 2 166.5 2t141.5 -37t20.5 -70.5t-62.5 -25.5q-223 -14 -264 -15q4 -152 4 -186.5t-10 -65.5q0 -51 -41 -73q-51 -39 -70 67q-16 109 -25 254q-76 -2 -148.5 -2t-103.5 10q-51 0 -73 41q-39 51 67 70l37 4q70 14 215 21q-2 63 -2 167.5t36 141.5 t70.5 19.5t26.5 -62.5z" />
<glyph unicode="," horiz-adv-x="405" d="M209 -147q-8 0 -24.5 -14.5t-65.5 -14.5t-68 35q0 18 40 57t99 152q10 31 33 120q0 41 10 52q96 90 123 -80q12 -74 -34 -172q-8 -20 -56.5 -77.5t-56.5 -57.5z" />
<glyph unicode="-" horiz-adv-x="667" d="M730 469q38 -37 20.5 -70.5t-62.5 -25.5q-287 -20 -334 -20.5t-78 9.5q-51 0 -73 41q-39 51 67 70l37 4q129 29 257 29t166 -37z" />
<glyph unicode="." horiz-adv-x="405" d="M242 285q39 25 59.5 25.5t58.5 -15.5q70 -43 62 -95.5t-90 -93.5q-80 -29 -135 13q-82 78 45 166z" />
<glyph unicode="/" horiz-adv-x="675" d="M483 745l31 74q43 55 214 359.5t174 333t40 22.5q14 10 33 6q37 -37 57 -61q25 -29 4 -103q-8 -29 -78.5 -128t-135 -210.5t-62.5 -119.5q-12 -12 -35 -64q-23 -29 -72 -104.5t-56 -92t-13 -20.5q-6 0 -15 -21q4 -16 -49 -102q-289 -584 -297 -631q-20 -102 -61 -119 q-68 -4 -89.5 61.5t29.5 203.5q35 66 37 82q14 35 140.5 274.5t140.5 261.5q18 -4 29 39q11 49 34 59z" />
<glyph unicode="0" horiz-adv-x="921" d="M903 893q-16 23 -56 22.5t-75 -24.5q-14 -8 -31.5 -2t-17.5 16q0 25 -21.5 3.5t-78.5 -93.5q-33 -33 -60.5 -73t-27.5 -45t-19 -52q-14 -23 -38.5 -79t-31.5 -81v-135q0 -43 13 -61q14 -25 61 -84q20 -16 27.5 -15.5t21 6t27.5 7.5q49 0 78 28q82 55 127 160 q29 41 78 180q29 43 28.5 122t10.5 116q0 49 -2.5 60.5t-12.5 23.5zM764 1104q29 8 105.5 8t153.5 -36t77 -66v-15q0 -25 -8 -20h-13h-20l20 -62q20 -45 20.5 -90t-20 -149.5t-32 -131t-11.5 -53.5q-6 -12 -27.5 -59t-25.5 -55q-20 -18 -10 -29q0 -10 -20.5 -48t-30 -38 t-9.5 -8q0 -23 -92 -115q-33 -35 -111.5 -83t-107.5 -48t-97.5 22.5t-96.5 47.5q-172 147 -132 424q23 131 95.5 261t178 223t214.5 120z" />
<glyph unicode="1" horiz-adv-x="921" d="M795 1059q70 43 132 73.5t72.5 28.5t53.5 -31.5t45 -46.5q12 -14 -9.5 -59t-69.5 -186.5t-68.5 -214t-45 -139t-39.5 -122.5q-41 -96 -75 -260q-16 -49 -28.5 -92t-22 -49t-53.5 4t-62.5 27.5t-21.5 35t11 117.5l54 197q16 8 60 159.5t69 227.5q37 111 65 166 q-102 -55 -202.5 -133t-117 -87t-55 -40t-50 -29t-17.5 6q-29 25 -51.5 68t-10.5 63q6 2 83 58.5t86.5 60.5t17.5 10.5t21.5 17.5t23.5 17q6 8 34.5 28.5t81 58.5t89.5 65z" />
<glyph unicode="2" horiz-adv-x="921" d="M768 1098l59 -11q27 2 82.5 -38.5t73.5 -81.5q70 -109 -35 -265q-23 -27 -126 -140t-124 -130q-16 -8 -69.5 -60.5t-96.5 -101.5t-43 -53q2 -4 32 7.5t62.5 22.5t131 25.5t112.5 3.5l11 -4q8 12 51 8t90 -18t47 -35q6 -14 23 -32q37 -31 0 -60t-113 -14q-53 0 -71.5 -3 t-102.5 -9q-59 8 -133 -19t-176.5 -53.5t-118 -21.5t-50 43t-41.5 52.5t0 42t15 27.5q8 -8 26.5 33t20.5 47t29 25q0 2 31.5 38.5t56.5 59.5q213 205 221 244q10 12 32.5 26.5t49.5 40.5q6 31 55 80q35 51 45.5 85t2 40t-57.5 21q-49 18 -92 5.5t-115 -61.5q-14 -4 -35 -12 q-45 -14 -53 -12t-14 9t-15.5 18.5t-15.5 17.5l-20 88l63 35q191 123 295 90z" />
<glyph unicode="3" horiz-adv-x="921" d="M743 969h-8q-14 6 -78.5 -8.5t-66.5 -21.5t-51.5 -21.5t-59.5 -14.5q-14 4 -34.5 53.5t-15.5 63.5t54 45t90 49q43 10 142.5 21.5t136.5 9.5q195 -23 225 -168q18 -92 -88 -189q-25 -16 -53 -34q-98 -68 -138 -84.5t-65.5 -25.5t-25.5 -13q160 -18 276 -176 q41 -92 -21.5 -208t-173.5 -181q-88 -49 -288 -64q-76 0 -141.5 39t-61.5 78q4 76 88 63q104 -23 212 0t164 79t57 93t-48 71t-112.5 54.5t-99.5 17.5t-103 31q-12 12 -23.5 48t-13.5 40q-4 14 41 45t223 128.5t207 121.5q27 27 21.5 42.5t-54.5 25.5q-113 10 -113 -10z" />
<glyph unicode="4" horiz-adv-x="921" d="M328 621q72 143 71 157q16 37 119 178.5t135 171.5q61 31 86 31t48.5 -40t23.5 -56q-12 -29 -78 -105q-219 -307 -219 -368q0 -20 35 -21q133 23 199 49q12 6 27.5 27t19.5 31t17 45t40 96.5t74 140.5q82 139 100 140q10 0 59.5 -42t49.5 -50q0 -37 -37 -98.5t-83 -152.5 t-114 -257q-129 -324 -129 -383q0 -16 10 -37q0 -39 -34.5 -71t-69.5 -32q-27 0 -49.5 40t-22.5 60.5t10.5 83t31 131t34.5 108.5t14 44q-2 0 -43 -8q-123 -29 -161 -28q-63 0 -107 63q-14 12 -36.5 57t-22.5 63.5t2 22.5v9z" />
<glyph unicode="5" horiz-adv-x="888" d="M706 1118q85 35 177 32t137 -63q31 -68 -8 -104q-18 -18 -41 -6q-53 33 -183 -6q-10 -4 -26.5 -10.5t-23.5 -9.5t-18 -8t-18 -9q-12 -8 -20 -25q-6 -4 -10 -8q-4 -8 -13 -8q-12 -12 -12 -23l-16 -20q-4 0 -8 6q0 -10 -2.5 -22.5t8 -17.5t75 -13t130.5 -49 q78 -45 104.5 -156t12 -210t-51.5 -157q-94 -131 -275.5 -195.5t-273.5 -2.5q-37 27 -37 45q-8 12 -18 12q-12 -6 -17.5 45t-3.5 60q10 23 55.5 29.5t49.5 -15.5q6 -39 104 -35q162 2 267 139q35 82 40 137.5t-4 59.5q-4 23 -13 48.5t-46 58t-72 47.5q-35 6 -94 -2 q-76 -10 -84 -3q-16 4 -56 40t-40 51q6 31 69.5 127t117 151t138.5 90z" />
<glyph unicode="6" horiz-adv-x="964" d="M897 565q-2 0 -9 2t-18.5 4t-29.5 7q-37 10 -207 -31q-8 -2 -28.5 -10.5t-33.5 -10.5q-12 -16 -40.5 -23t-42 -38t-33.5 -119q-18 -102 -9 -119q6 -27 37 -35t51.5 -7t61.5 18q41 12 47 10q41 27 84 55q92 55 141.5 127t38.5 123q2 10 -10 47zM565 905q29 18 51.5 47 t131 92.5t198.5 75.5q31 4 27 -10q37 -43 59 -47q2 0 25 -35q6 -31 -66 -98q-45 -33 -59 -17q0 10 -20.5 15.5t-82 -24.5t-102.5 -75q-45 -41 -51 -57l-68 -78q6 -10 28.5 -5t27.5 13q0 8 46 21.5t93 17.5q23 8 86 -5t79.5 -21t39.5 -37q74 -70 69 -182q0 -66 -35 -109 q-90 -154 -139 -184l-22 -15q-4 -23 -107 -82q-274 -158 -397 -40q-82 61 -94 141q-14 51 -13.5 68.5t19 104.5t31 125t47.5 87q39 109 69 143q45 68 74 96z" />
<glyph unicode="7" d="M432 641l137 -8q37 0 58.5 -3t31 4t41.5 48q8 14 42 61.5t55 85.5q111 154 67 166q-37 12 -177 -41t-177 -32q-16 2 -24.5 46t-2.5 70q8 37 269 103q70 12 164 9t106 -26q16 -2 18 -10q16 -31 30.5 -55.5t18 -37.5t-1.5 -46q-14 -49 -43 -74q-27 -37 -53 -63 q-2 -6 -10 -18.5t-8 -16.5l-107 -162q-39 -35 -29.5 -45t27.5 -18q72 -33 88 -82q2 -47 -16 -56q-10 -14 -33.5 -20t-30.5 2q-8 16 -46 31.5t-50 15.5q-27 -16 -84 -121.5t-63 -117t-15.5 -26t-17.5 -31.5t-14.5 -61t4.5 -46q25 6 35 -27q10 -14 -14.5 -39t-61.5 -41 t-60.5 -12t-56.5 34.5t-45 59.5q-14 68 143 365q51 84 44 91t-40 7q-84 20 -88 26q-47 25 -39 48q4 8 19.5 11t21.5 23.5t-12 28.5zM432 641q-2 2 -4 2q2 0 4 -2z" />
<glyph unicode="8" horiz-adv-x="921" d="M707 348q-41 84 -55.5 105.5t-37.5 33.5q-16 -20 -28 -49q-29 -35 -39 -55l-45 -45q0 -16 -41 -94q-63 -106 -60 -158q2 -25 19 -27q29 -2 87 24t107 60q132 105 93 205zM582 905q-23 -70 4 -123q23 -8 30 -34q0 -18 17 -19q4 -25 39 -23.5t65 21.5q80 72 105 29 q8 -12 47 16q78 51 69 72q-10 18 -10 43.5t-9 39t-101 46.5q-205 71 -256 -68zM637 1178q209 -29 268.5 -54.5t125 -74t69.5 -64.5q0 -4 6 -14q27 -37 22.5 -108.5t-22.5 -100.5q-51 -57 -63.5 -62.5t-22.5 -15.5q-25 -23 -39 -25q-27 -35 -37 -34q-25 16 -24 0 q-2 -8 -55.5 -32t-63.5 -19.5t-27 -6.5q-27 4 31 -65q119 -217 63 -293q-39 -88 -84 -145.5t-71 -53.5q-16 -10 -29 -18q-8 -27 -41 -23q-18 8 -60 -19.5t-115 -43t-95 -2.5q-39 6 -125 84q-29 61 -21 114q0 72 25 111q25 70 102.5 186.5t118.5 166.5t38 70.5t-42 74.5 q-6 16 -15.5 30.5t-4.5 14.5q-8 8 -17 28q-31 31 -30 89.5t30 115.5q33 76 88.5 128.5t116.5 60.5z" />
<glyph unicode="9" horiz-adv-x="897" d="M871.5 936q5.5 8 29 33.5t21.5 37t-13.5 26t-27 16.5t-64.5 -17q-31 -6 -61.5 -28.5t-48.5 -34.5q-12 -12 -26.5 -10t-14.5 -9q10 -18 -25 -47q-98 -104 -61 -147q45 -49 116.5 -14.5t137.5 137.5q14 16 23 32.5t14.5 24.5zM543 23l4 69q8 113 102 385q31 74 27 90.5 t-53 12.5q-92 -16 -163 56.5t-65 166.5q2 49 58.5 135t158.5 168q182 143 330 86q45 -18 101.5 -96t48.5 -113q-23 -106 -78 -166q-47 -41 -119 -182t-106.5 -241.5t-45 -154t-10.5 -85t10 -33.5l58 -12q27 -43 -80 -138q-66 -59 -81 -57t-49 25.5t-34 31.5q2 8 1 9.5 t-9 1.5z" />
<glyph unicode=":" horiz-adv-x="405" d="M389 715q39 25 59.5 25.5t59.5 -15.5q68 -43 59.5 -95t-90.5 -93q-78 -29 -135 12q-80 78 47 166zM246 285q39 25 59.5 25.5t59.5 -15.5q68 -43 59.5 -95.5t-90.5 -93.5q-78 -29 -135 13q-80 78 47 166z" />
<glyph unicode=";" horiz-adv-x="405" d="M389 715q39 25 59.5 25.5t59.5 -15.5q68 -43 59.5 -95t-90.5 -93q-78 -29 -135 12q-80 78 47 166zM211 -147q-10 0 -24.5 -14.5t-63.5 -14.5t-68 35q0 18 33 51t107 158q10 31 32 120q0 41 11 52q96 90 122 -80q12 -74 -34 -172q-8 -20 -56.5 -77.5t-58.5 -57.5z" />
<glyph unicode="&#x3c;" d="M930 770q-6 -33 -26.5 -51.5t-67.5 -42.5q-164 -84 -231.5 -125t-96.5 -56.5t-38 -19.5t-22.5 -14t-10.5 -16.5t1 -24.5q76 -88 346 -172q106 -33 140 -64.5t28 -74.5q-16 -29 -95 -38.5t-144 17.5q-115 23 -154 47.5t-56.5 35.5t-47 28.5t-38.5 22.5t-29.5 19.5 t-31.5 24.5q-31 27 -51 58l-67 82l-23 108q27 4 115 61.5t174 106.5q211 109 243.5 142.5t63.5 33.5q23 6 74 -45q6 -4 14 -9t12 -8t9 -5q4 -5 10 -21z" />
<glyph unicode="=" d="M694 414q92 0 144 -47q37 -31 25.5 -66t-58.5 -27q-356 -20 -410.5 -20t-97.5 10q-59 0 -76 29q-16 23 -16 43t34.5 34.5t100.5 14.5q149 29 354 29zM807 707q92 0 141 -45q37 -31 27 -67t-60 -28q-344 -20 -403 -20t-104 10q-59 0 -76 29q-43 45 8 73q37 20 113 19 q149 29 354 29z" />
<glyph unicode="&#x3e;" d="M287 129q6 33 26.5 51.5t67.5 40.5q164 86 231.5 127t96 56.5t38 19.5t22.5 14.5t10 16.5t-1 24q-76 88 -346 172q-106 33 -140 65t-28 75q16 29 95 38t145 -18q115 -23 153.5 -47.5t56 -35.5t47.5 -28.5t39 -22.5t29.5 -19.5t30.5 -22.5q31 -29 51 -60l68 -81l22 -109 q-27 -4 -114.5 -61.5t-173.5 -106.5q-211 -109 -244 -142.5t-63 -33.5q-23 -6 -74 45q-6 4 -14.5 9t-12.5 8t-8 8q-4 2 -10 18z" />
<glyph unicode="?" horiz-adv-x="765" d="M369 188q41 27 60.5 28t59.5 -15q68 -43 60 -95.5t-90 -93.5q-80 -31 -135 13q-80 77 45 163zM635 1110l10 -72q-2 0 -16.5 -5t-26.5 -7t-29 -2q-39 -4 -65 23q-41 49 -44 61t-4 18.5t0 21.5t1 26q66 199 192 264l119 61q18 0 68 6q8 -2 18 -2q25 4 25 -6h59 q37 -10 92.5 -46t77.5 -60q31 -92 -8 -254t-119 -250q-2 -2 -73.5 -67.5t-98.5 -94.5q-66 -37 -120 -111.5t-83 -156.5q-39 -82 -104 -82q-31 2 -46.5 24.5t-15.5 51.5q-10 55 -1.5 75.5t19.5 45t17 42.5q23 39 69 91.5t81 76.5l35 25q0 8 28.5 30.5t48.5 32.5q47 33 68 52 q63 66 83.5 119t47.5 186q2 68 -5 86t-34 39q-172 31 -258 -162q-16 -49 -8 -80z" />
<glyph unicode="@" horiz-adv-x="1316" d="M922 506q-68 14 -97 0q-49 -20 -99 -116.5t-44 -153.5q29 -57 86 -33q27 16 59.5 48t40.5 50q37 70 72 172q0 21 -18 33zM784 -197l2 -36q0 -20 -14 -27q-63 -27 -145 -27q-150 0 -297 117q-84 76 -137 170q-63 88 -31 274q16 84 39 127l8 33q0 29 47 96q88 117 127 166 q100 127 240 230q57 45 155.5 86t141.5 47t116 2q150 -14 238 -96q143 -115 180 -275q12 -43 7 -135t-23 -131q-43 -94 -144.5 -213t-146.5 -131q-33 0 -83 14.5t-59.5 24.5t-52.5 35q-23 -25 -57.5 -56.5t-102 -58.5t-94.5 -21q-63 16 -86.5 30.5t-64.5 70.5 q-35 90 -35 116.5t20 94.5q20 88 96.5 196.5t202.5 161.5q25 12 72 12q76 0 128 -56t65 -85q8 -45 4 -72q-27 -143 -36 -160.5t-8 -18.5t1 -14t20.5 -23.5t35.5 -10.5t76.5 67.5t74 92t22.5 49.5q4 33 4 70q0 240 -192 317q-41 16 -128 16t-163 -32q-49 -16 -129 -86 q-295 -254 -338 -557q-10 -82 19.5 -141.5t129.5 -123.5q90 -37 254 -26q16 -4 21.5 -10.5t4.5 -32t15 -60.5z" />
<glyph unicode="A" horiz-adv-x="1046" d="M930 662h4q6 18 32.5 206.5t28.5 253.5l-6 103q-18 0 -83.5 -97.5t-127.5 -220.5q-47 -84 -65 -84q-14 -14 -61.5 -96t-37.5 -90q82 16 134 18q131 35 163 21q11 -14 19 -14zM850 1358q45 61 99.5 61t119.5 -49q86 -61 94 -121q2 -12 2 -34.5t-1 -45t-4 -57.5t-5 -60.5 t-6 -68.5t-6 -76t-25 -248q-45 -442 -35 -628q2 -14 0 -37t-2 -25q-18 -20 -94 -8t-82 41q-10 8 -10 18l18 478l-26 -2q-41 0 -173 -16.5t-167 -26.5q-43 0 -92 -88q-12 -31 -32 -65t-20 -38l-32 -39q0 -23 -40 -116t-79 -152l-55 -78l-72 55q-33 16 -39 36t11.5 62 t55 114.5t56.5 109.5q88 168 88 248q-8 31 31 49q2 2 24 18q57 43 80 82q43 100 209 381q98 181 209 326z" />
<glyph unicode="B" horiz-adv-x="1067" d="M922.5 1214.5q-58.5 10.5 -111.5 -4t-53 -51.5t-33 -69q-4 -16 -25 -41q0 -4 -12 -25q-45 -84 -67 -145q-61 -145 -62 -177q127 25 170 41q53 31 70 48q129 121 180 217q45 72 50 106.5t-21 59.5q-27 30 -85.5 40.5zM782 1378q2 0 21 2q49 4 90 2q145 -12 229 -82.5 t82 -207.5q-4 -53 -59 -145.5t-135 -164t-115 -88.5q2 -2 76 -28q160 -59 200 -226q20 -90 -45 -239l-30 -45q-2 -8 -37 -62.5t-62 -87.5q-135 -115 -223 -147q-84 -37 -196.5 -39t-165.5 33q-88 55 -104.5 113.5t40.5 92.5q12 8 49 1t54 -23q78 -72 221 -35q80 25 126 61.5 t109 114.5q59 80 73.5 161t-17.5 112q-109 152 -326 94q-41 -6 -81 -15.5t-55.5 -11.5t-16.5 -8t-17 -37q-20 -39 -95 -251t-118 -216q-23 -2 -55 45q-2 4 -16.5 25.5t-20.5 37t-6 25.5q-4 23 10 48.5t31 86.5q27 80 154.5 397.5t189 457t41.5 145.5q0 6 -6.5 18.5 t-4.5 18.5q0 12 73 36.5t99 20.5q39 0 39 10z" />
<glyph unicode="C" horiz-adv-x="1005" d="M560 53q11 0 28.5 6.5t31 10.5t36 12t34.5 14t39 19q143 59 193 104q53 39 86 39q27 8 42 -16.5t15 -60.5t-39 -75.5t-92 -70.5q-23 -23 -100 -53q-76 -55 -178.5 -94.5t-174.5 -22.5q-162 59 -202.5 165.5t-36.5 258.5q0 182 63 346q2 4 28.5 68.5t37.5 84.5 q35 80 123 207q115 174 177 238.5t201 161.5q47 35 116 43t138.5 -26t100.5 -109q45 -82 -4 -243t-136 -241q-61 -39 -143 35q-25 45 -20.5 47t8.5 2q18 23 54 87.5t44 93t13.5 51t7.5 35t4 25.5l3 19.5t-1 14.5q0 10 -14.5 24.5t-71.5 -16.5q-100 -43 -240 -231 q-178 -233 -221 -365l-23 -53q6 -33 -24 -94q-35 -143 -25 -265q10 -150 74 -174q10 -4 23.5 -3t24.5 1z" />
<glyph unicode="D" horiz-adv-x="1202" d="M371 -12q-2 -8 -2 -19q37 -16 63.5 -12t73.5 6q109 4 141 31q113 74 215 162q4 10 43 24q10 10 62.5 64.5t60.5 60.5q2 10 7 27.5t5 25.5q25 27 74 128.5t68 175.5q74 322 -133 499q-43 37 -140.5 80t-109 40t-46 -94t-98 -270.5t-92.5 -259.5q-8 -33 -24 -79 q-37 -109 -37 -119q-59 -92 -88 -312q-4 -18 -9.5 -38.5t-8.5 -35t-6 -28.5t-6 -24.5t-5 -18.5q-4 -14 -8 -14zM533.5 1436.5q119.5 27.5 223 18.5t259.5 -64q106 -41 219 -156t143 -242q12 -45 17.5 -114.5t-9 -97t4.5 -33.5q-4 -8 -17.5 -53.5t-19.5 -61.5 q-6 -74 -48 -181.5t-79 -170.5q-12 -2 -15 -9q0 -10 -22 -39q-6 -4 -25.5 -29.5t-27.5 -31.5q-2 -14 -12.5 -23.5t-18.5 -9.5q0 -6 -6 -8q-37 -53 -146.5 -146.5t-185.5 -123.5q-10 -8 -86 -43q-12 -12 -119.5 -21.5t-128.5 -13.5q-78 -12 -213 24q-31 6 -45 22.5t-17 20 t-12.5 16.5t-15.5 19q-35 45 -25.5 106.5t62.5 69.5q14 2 39 -8q0 57 12 103.5t84 258.5t114 357.5t75 206.5q4 10 14 47q25 90 59 178l15 68l-23 10q-37 -12 -55 0q-18 -6 -50 20.5t-36 47.5l-6 34q4 25 123.5 52.5z" />
<glyph unicode="E" horiz-adv-x="1140" d="M549 106l82 -6q49 0 86 17q160 27 225 73q10 4 19.5 14.5t17.5 10.5q-2 -4 -2 -5t39 32.5t85 44t73.5 3.5t29.5 -18q18 -33 -45 -112q-188 -233 -622 -240q-59 6 -106.5 35t-60 37t-42 28.5t-35.5 24.5q-61 61 -84 180q-12 53 10.5 162t50.5 170q45 109 199 348l12 17 q0 14 60 127q51 55 28 86q-14 18 78 96q41 35 86 59q47 37 95.5 42t54.5 -19q18 -6 68 5t67 13q14 18 137 33l143 4q14 4 42 -18.5t43.5 -58.5t-23.5 -63.5t-143.5 -39.5t-187.5 -29.5t-114.5 -24t-41 -8.5t-30 -9t-30.5 -15q-33 -31 -55 -66q-18 -12 -82 -139 q-14 -20 -64.5 -87t-40.5 -79q55 -12 66 -12q16 8 98 22q279 72 320 78q27 20 56.5 -2t47 -70.5t-19.5 -71t-175.5 -54t-214 -52t-118.5 -31t-78 -12.5t-51.5 6.5t-14.5 28.5q-23 10 -51 -51q-51 -109 -51 -221q0 -31 6 -47q35 -101 158 -136z" />
<glyph unicode="F" horiz-adv-x="972" d="M1241 1337q84 -14 90 -22q12 -12 8 -25l15 -10q33 -18 8 -90q-2 -18 -19.5 -21.5t-93.5 -1.5q-137 18 -350 -10q-104 -8 -125 -33q-35 -41 -103.5 -212t-72.5 -177q66 -18 363 8q80 16 108 13q37 -4 44 -61.5t-33 -81t-140 -34t-217 -12.5t-166 4q-18 -14 -18 -36 q-37 -68 -103.5 -240t-66.5 -209q-16 -41 -23.5 -81t-13.5 -44q-6 -29 -39 -31t-47 19q-94 43 -64 139q16 74 60.5 211t70 187.5t37.5 95.5t17 53q-4 23 -1 30t17 25q29 25 61 96l103 293q18 66 10 66q-2 0 -60.5 -7.5t-60.5 -7.5q-53 -8 -53 29q6 37 25.5 70t48.5 35l80 18 q57 12 110 -2q25 16 27 29q16 61 74.5 73.5t74.5 -30.5q6 -16 4 -34t9 -18q23 0 122 23q147 12 183 2q18 4 43 6q49 2 57 6z" />
<glyph unicode="G" horiz-adv-x="1038" d="M1276 1196q0 -33 -37 -66.5t-66.5 -33.5t-39.5 12q-76 111 -170.5 111t-180.5 -80t-147.5 -201t-108.5 -266q-88 -268 -102 -492q0 -66 18.5 -96.5t81 -30.5t168 60.5t174.5 169.5q88 166 88 223q0 33 -30 33q-102 0 -147.5 8t-59.5 39q-27 8 -27 49q0 84 184 84 q129 -4 195 -45t66 -166q0 -37 -7 -68q-31 -135 -110.5 -248.5t-177.5 -183.5q-207 -143 -371 -143q-90 0 -159.5 83t-69.5 218q0 270 84 514q174 516 409 666q88 55 215 55q33 0 76 -6q86 -23 169 -78t83 -121z" />
<glyph unicode="H" horiz-adv-x="1173" d="M1188 317l-53 -182q-47 -217 -48 -270q-57 -6 -88.5 17.5t-40.5 25.5q-76 43 -30 137q4 8 57 209q12 35 35 106q51 174 57 181v20q0 10 -134 9t-247 -15h-176q-10 -23 -59 -179.5t-78 -296.5t-70 -265q-78 27 -100 26q-31 8 -46 36t-7 61q16 16 16 77q10 20 23.5 87 t73 280t73.5 227v23q0 31 23 63q20 61 20 84l119 289v10q4 4 51 109.5t82 181.5t35 82q29 33 61 20q51 -20 86 -84l21 -32l-76 -148q-80 -141 -80 -159q-33 -88 -50 -143.5t-33.5 -93.5t-26 -57.5t-9.5 -23.5q0 6 103 8q330 2 368 8l107 11q109 348 142.5 447.5t70.5 141 t65 41.5q8 0 42 -23.5t40 -39.5q47 -43 -10 -127q-33 -57 -58.5 -133t-33.5 -92q0 -43 -14.5 -57.5t-35 -64.5t-20.5 -75.5t-20 -46.5q-92 -320 -127 -410z" />
<glyph unicode="I" horiz-adv-x="837" d="M489 -75.5q0 -20.5 -18 -33t-48 -6.5t-52 31q-27 37 -156 31q-43 -6 -87 14.5t-36 46.5q2 27 60.5 54.5t140.5 29.5l86 2q27 51 36 92t16 67t36 116q68 209 76 249q31 66 67 220q94 287 78 292q-20 2 -108 -7t-99 -15q-10 -14 -34.5 4t-30.5 41q-8 45 12 57q20 18 105 41 t164 32t120 44q43 14 72 12q25 -16 141 -8q188 18 221 -53q10 -39 -4 -64.5t-49 -23.5q-37 -10 -137 -12q-135 -12 -146 -29q-6 -6 -14 -18.5t-12 -16.5q2 -18 -21.5 -88t-48.5 -149q-66 -201 -80 -230q-2 -8 -155 -551q51 4 166.5 15.5t124 5.5t16.5 -29q41 -55 -6 -92 t-160 -35q-162 -6 -199 -11t-37 -25.5z" />
<glyph unicode="J" horiz-adv-x="645" d="M705 616l-127 -380q0 -41 -27 -68q-115 -285 -131 -311q-29 -47 -29 -56.5t-10 -9.5q-12 -8 -12 -20q-10 -25 -79 -97.5t-102 -91.5q-76 -37 -157.5 -18.5t-132.5 76.5q-14 20 -12.5 60t12 73.5t26.5 33.5q23 0 51 -38q111 -98 234 92q10 25 53 121q113 246 121 274.5 t18 40.5q0 2 10.5 32.5t16.5 57.5l86 244q20 94 39.5 140t73.5 206q84 268 78 276l-115 -20q-94 -37 -101 -6q-2 4 0 10v23q-6 -4 -18 8q-25 29 -25 61q0 16 49.5 38t94.5 28t113.5 13t87.5 9q10 8 65 -15.5t72 -39.5q20 -41 11 -80t-48 -146.5t-52.5 -145.5t-43.5 -126 q-70 -197 -90 -248z" />
<glyph unicode="K" horiz-adv-x="1030" d="M162 88q14 0 14 21.5t6 42t15 53.5q16 51 32 92q31 74 31 90t27 57q20 55 20 101q41 90 47 111.5t22.5 65.5t33 92t30 79t35.5 86q47 111 57 111v22q0 6 7.5 20.5t19.5 40t23 44.5q25 39 34 83q12 23 23 33q51 35 88 31t47 -27q41 -82 12 -123q-137 -287 -190 -423l14 10 q53 53 170 141l252 205q41 20 113 74q160 115 172 112q23 10 57.5 -42t30.5 -79q4 -20 -9.5 -35.5t-82 -50t-80.5 -57.5q-57 -45 -135 -100q-174 -113 -215 -172q-6 0 -15.5 -6.5t-15.5 -4.5q-29 -18 -39 -30q-20 -47 -51 -45q-31 -16 -107 -76q18 -143 78 -252 q59 -131 121 -193q92 -100 139 -100q18 -6 51 -28.5t37 -40t-3 -57.5t-38 -60q-33 -29 -104 4q-33 -2 -113 61.5t-123 116.5q-125 176 -155 289q-10 45 -27.5 95t-19.5 65l-6 -17q0 -2 -13 -31q-33 -84 -80 -254q-94 -299 -116 -331q-25 -33 -70 0q-78 47 -61 106 q0 14 10 80z" />
<glyph unicode="L" horiz-adv-x="872" d="M440 520v-6q-4 0 -7 -14.5t-7 -20.5q-14 -12 -14 -59q-23 -55 -37.5 -139t-9.5 -125q8 -70 60 -95.5t77 -25.5q47 -10 188 28q23 6 53.5 10.5t97 25t77.5 12.5q41 -35 28 -72q-8 -18 -84 -76.5t-127 -73.5q-59 -27 -176 -29.5t-162 15.5q-143 35 -213 240q-4 39 0 119.5 t11.5 87t6.5 22.5t14 62.5t9 72.5q10 23 21 33q14 16 10 35.5t16 48.5l19 31q2 14 31.5 91t39.5 93v4q8 20 23 43q12 82 129 269.5t166 234.5q84 96 137 43q23 -25 31 -70t-14 -49q-29 -18 -205 -338l-80 -166q-49 -104 -92 -225q-17 -17 -17 -37z" />
<glyph unicode="M" horiz-adv-x="1492" d="M1430 -74q-12 -14 -18.5 -13t-12.5 1t-15.5 -9t-25.5 -9q-51 0 -66.5 36.5t-15.5 87t4 87t115.5 485t111.5 469.5q-10 -14 -49 -86t-82 -146l-143 -268q-23 -31 -50.5 -86t-140.5 -207q-20 -41 -122.5 -134t-160 -93t-101.5 53t-44 119t21 195q82 360 104.5 427.5 t22.5 86t-4 22.5q-6 -4 -13 -14q-104 -170 -237 -461q-293 -539 -336 -588q-31 0 -63.5 40t-32.5 93.5t27.5 108.5t55 97t38 58.5t14.5 47.5q29 37 76 133q61 96 151 258q190 348 248 428q4 8 9 21.5t22.5 47t34.5 60.5q43 68 71 67q45 0 96.5 -50t51.5 -134q0 -25 -23 -178 q-27 -127 -82 -382t-55 -283.5t14 -28.5q8 0 25 18q4 2 32.5 46t65.5 96.5t70 103.5q102 160 332 565q20 31 63 98q86 143 108.5 161t62.5 17t88 -48.5t48 -103.5t-29.5 -187t-68.5 -254q-8 -43 -61.5 -243t-53.5 -261v-17q-31 -57 -30 -221q-12 -92 -47 -129z" />
<glyph unicode="N" horiz-adv-x="1177" d="M948 129q55 0 201 588q35 117 53 270q66 248 66 275v45q8 0 17 26.5t9 67.5t29 69q33 55 92.5 37t67.5 -64t-56 -317q0 -25 -25.5 -136t-33.5 -159q-20 -133 -37 -129q-84 -360 -215 -659q-51 -117 -126 -145.5t-142 53.5q-61 80 -90 163t-47 238q-43 272 -39 469 t-17 199q-18 0 -54 -104.5t-88 -234.5t-54 -138q-37 -74 -56 -150q-82 -217 -118.5 -357t-51 -178t-31 -48.5t-69.5 17.5t-62.5 83t11.5 113q14 55 53 148t55 177q70 162 113 297q2 10 103 229q78 221 196 402q37 61 113 53t96 -69q41 -94 45 -406q0 -88 2 -127t6 -100 q4 -100 27 -187q4 -29 14 -116q25 -195 43 -195z" />
<glyph unicode="O" horiz-adv-x="1034" d="M479 78q39 -20 87 -13t83 32.5t140.5 146.5t146.5 191.5t83 223t44 175t0 165.5q-4 98 -35 134q-68 72 -156 43q-59 -25 -173.5 -158t-112.5 -172q0 -16 -11 -31q-53 -57 -108 -242q-70 -238 -61 -376q1 -82 73 -119zM821 1329q96 57 133 43q252 -55 301 -319 q35 -168 7.5 -305.5t-158.5 -352.5q-160 -315 -374 -441t-347 -26q-162 119 -168 197q-12 113 29 317q12 12 10 32t4 40.5t18.5 60t20.5 80.5q92 279 227 457q139 143 297 217z" />
<glyph unicode="P" horiz-adv-x="966" d="M532 618l-2 -40q0 -4 4.5 -12.5t53.5 -0.5q127 20 272 111q45 31 107 108q115 190 94 275q-20 106 -119 141q-90 14 -139 6q-33 -10 -46.5 -27.5t-37.5 -78.5q-66 -125 -86 -180q-45 -158 -73 -229t-28 -73zM256 379l10 67q25 0 45 84q4 18 11 39q12 41 14 49 q16 53 55 134q61 227 115 344l17 42.5t13.5 34t8.5 21.5q4 16 -4 25q-18 8 -13.5 52t37.5 72q51 59 232 46q25 -2 131 -3q12 -6 43 -18q72 -27 71 -35q0 -16 26 -18t83 -58q133 -125 111 -256q-8 -82 -25 -102q-33 -25 -33 -44t-59 -114q-102 -164 -232 -245 q-86 -39 -193.5 -68t-162.5 -27q-4 0 -44 -6t-50 -22q-39 -92 -39 -119q-12 -23 -50 -137.5t-52 -175.5q-8 -27 -33 -42.5t-47.5 -15.5t-38.5 27q-20 18 -29.5 37.5t-4.5 89t42 176.5q10 43 22 82q23 72 23 84z" />
<glyph unicode="Q" horiz-adv-x="1003" d="M532 289q12 29 46 48t69 9q45 0 86 -98q0 -8 19 -49q92 141 188 415q2 8 43 101q76 178 76 307q12 86 -6.5 121t-71.5 59q-104 37 -213 -52t-193 -298q-125 -268 -163.5 -434t-8.5 -305q4 -66 30 -96.5t75 -16.5q59 6 123 55l-103 193q-16 16 4 41zM1118 580 q-12 0 -12 -13q14 -47 -51 -174q-80 -219 -209 -375q16 -33 24 -43q4 -14 27 -49t29 -55q45 -74 36.5 -102.5t-54.5 -28.5t-88 16.5t-48 42.5q-12 12 -14 24.5t-4 14.5q-27 10 -43 58q-119 -84 -234 -72q-47 8 -118.5 60.5t-92.5 97.5q-51 102 -57 221t31 286 q20 78 67 216.5t55 138.5q6 6 6.5 31.5t64 126t112.5 143.5q104 137 196 184q16 10 77 27.5t93 19.5q195 12 275 -149q35 -41 41 -74t10 -74t6 -53q2 -117 -42 -281.5t-83 -164.5z" />
<glyph unicode="R" horiz-adv-x="1019" d="M965 1194q-123 31 -163 22.5t-54 -67.5q0 -4 -17 -37q-55 -111 -86 -192q-121 -244 -122 -258.5t5 -20.5q53 4 224 74q334 156 323 325q0 41 -35.5 91.5t-74.5 62.5zM684 1368q215 49 389 -43q92 -55 142.5 -128t51.5 -139.5t-18 -127.5q-33 -82 -166 -193.5t-247 -161.5 q-176 -86 -273 -102q100 -186 320 -375q111 -96 190 -135q16 -18 0 -69.5t-29 -55.5q-61 -23 -139 29q-193 115 -383 334q-31 35 -47 67.5t-22 42.5q-20 39 -39 92q-61 -207 -183 -526q-6 -23 -55 -21.5t-82 27.5q-33 33 -33 49.5t58 145.5q12 74 59 170q10 35 160.5 402.5 t214.5 504.5q8 23 -7.5 44.5t-47.5 21.5q-23 25 -24 48t22 36z" />
<glyph unicode="S" horiz-adv-x="1013" d="M1194 1438q80 -4 149 -58q145 -113 33 -305q-63 -109 -143 -153q-57 -23 -98 -6.5t-39 55.5t75 121q113 166 39 182q-33 6 -130 -16.5t-97 -32.5l-8 -11q-8 2 -115.5 -67.5t-111.5 -79.5q-4 -23 -48 -41q-37 -23 -66.5 -61.5t-76.5 -122.5q-35 -47 -49 -101 q-25 -92 46 -145t136 -86q104 -59 188.5 -126t102.5 -105q59 -84 16 -236q-18 -39 -46.5 -72.5t-51.5 -31.5q-18 -4 -37.5 -15.5t-33 -19.5t-115 -23.5t-168.5 -13.5l-82 24q4 10 -4 18.5t-29 10.5q-43 27 -92 91.5t-58.5 88t-10.5 31.5t4.5 13.5t10.5 7.5t16 7t17 7 q68 45 91 -2q41 -76 142 -106.5t216 12.5q94 41 22 155q-8 20 -43.5 49t-66.5 58q-45 20 -103.5 49t-122 83t-87.5 101q-47 49 -45 140.5t45 171.5q25 55 119 169.5t139 143.5l65 61q2 2 23 11q51 20 98 63q233 113 385 113z" />
<glyph unicode="T" horiz-adv-x="937" d="M1024 1147q-49 -6 -80 -6q-16 -53 -41 -101q-6 -23 -14 -49q-20 -59 -21 -67q-12 -16 -69.5 -193.5t-61.5 -187.5l-98 -269q-41 -78 -70.5 -185t-48 -145t-30 -44t-39 -8.5t-53 32.5t-23.5 73t33.5 144.5t58.5 165.5q6 29 15.5 58.5t9.5 33.5q23 27 34 82.5t148 483.5 q18 31 35 77q16 10 16 43l14 31q4 4 9.5 2t13.5 6h-2l-283 -28q-78 -6 -110.5 19.5t-24.5 62.5q12 51 117 71q41 10 192 29q133 18 400 37q18 0 87.5 -9.5t98.5 -19.5q92 -20 113 -98q10 -43 -23 -60q-14 -4 -45 -13t-45 -13q-23 -4 -45 4q-14 12 -25 18q-24 15 -143 23z " />
<glyph unicode="U" horiz-adv-x="987" d="M787.5 276q60.5 86 60.5 100.5t26 45.5q37 37 181 338q125 399 137 459.5t35 126.5q27 23 53.5 11.5t40.5 -19t29.5 -16.5t19.5 -11q18 -23 8 -68q-53 -252 -88 -347t-60.5 -156.5t-38.5 -93.5t-45 -103.5t-44 -100.5v-12q-25 -14 -45.5 -52t-28.5 -42l-18 -47 q-2 -12 -24.5 -25.5t-28 -28t-7.5 -18.5q-70 -104 -178 -200.5t-179 -124t-124 -15.5q-162 41 -207 203t21 483q31 150 105.5 357.5t155.5 350t149.5 130.5t90 -71.5t-29.5 -92.5q-25 -27 -70 -115t-61 -118q-127 -365 -160 -549q-37 -170 -42 -202t-5 -87q4 -8 11 -20.5 t10 -19.5t9 -15q6 -10 23 -17q74 -35 149 8q12 23 44 37q6 -8 9 -5t7 13q-2 10 18 31q31 12 91.5 98z" />
<glyph unicode="V" horiz-adv-x="1003" d="M481 1262q-12 115 68 151q33 12 67 0q47 -23 41 -98q8 -27 4 -135.5t-27.5 -221t-30.5 -254t-13 -260.5q-10 -160 -9 -222t17 -60q12 0 24.5 35.5t20.5 54.5q68 131 102 227q27 59 75 148.5t70.5 143.5t102.5 204q98 152 142 233q117 190 178 191q45 6 67 -23 q63 -59 -68.5 -253.5t-238.5 -397.5q-29 -70 -43 -92q-27 -25 -123 -221l-149 -344q-8 -27 -27.5 -59t-19.5 -38q-23 -35 -86.5 -69.5t-83.5 -24.5q-18 4 -20.5 35t-14.5 42t-47 19q-37 37 -51.5 97.5t-24.5 248.5q16 268 39 429q-4 31 4 100.5t4 89.5q10 31 19.5 103.5 t17.5 103.5q14 111 14 117z" />
<glyph unicode="W" horiz-adv-x="1474" d="M1577 569.5q-8 -16.5 -8 -32t-107.5 -209t-167 -268t-147.5 -131t-117 -56.5q-59 -4 -78 45q-10 10 -27.5 45t-21.5 57q-12 125 -5 245t21.5 184.5t29 108.5t26.5 79q27 66 19.5 65.5t-20.5 -24t-34 -68.5q-76 -170 -246 -456q-10 -12 -65.5 -93t-89.5 -112 q-88 -86 -181 -41q-33 4 -63.5 45t-22.5 78q-6 51 11.5 209.5t34 262t57.5 295t53 253.5q14 31 34.5 105.5t22.5 84.5q0 41 32 55.5t68 5t50 -29.5q70 -74 29 -172q-92 -225 -148 -594q-59 -348 -43 -354q33 -8 78 90q115 188 277.5 498.5t170.5 326.5q47 82 58.5 101.5 t27 46t25.5 43t20 32.5q18 29 31 35q86 0 127 -98q12 -43 -2 -78q0 -2 -17.5 -59.5t-27.5 -100.5q-39 -102 -51 -167.5t-43 -207.5q-66 -291 -67 -387t14 -131q8 -31 44 18.5t69.5 123t54.5 110.5q154 289 297 627q59 170 93 242.5t64 91.5q10 8 45 6q35 0 54.5 -17.5 t25.5 -23.5q18 -18 19 -43q-18 -63 -100.5 -266t-110 -262.5t-46 -88t-26.5 -45z" />
<glyph unicode="X" horiz-adv-x="1073" d="M754 930l8 -82q0 -14 24 -113q166 166 211 221q190 227 242 334q20 39 27.5 41t17.5 1t14 -1q63 -4 69.5 -89t-62.5 -189q-47 -47 -54 -80q-158 -190 -200 -225q-127 -109 -164 -156q-41 -45 -47 -49q41 -154 102.5 -280t114.5 -157q4 -4 21.5 -5t21.5 5q29 4 35 -24 q6 -39 6 -86q6 -23 -39 -45q-158 -72 -279 151q-84 115 -143 281q-18 -18 -18 -21q-59 -57 -231.5 -244.5t-187 -215t-55.5 -17.5q-10 -4 -36.5 -2t-32.5 4q-6 12 -13 43q-20 33 19 131q16 39 53 73t71 64.5t55.5 52t48 46.5t43 39t16.5 18t7 12.5t18.5 20.5t19.5 25 q35 29 170 159q-12 63 -26.5 167t-29.5 118q-4 10 9 14q4 4 -10.5 52.5t-28.5 183.5q-14 150 -23 178q2 6 49 53q47 33 102.5 -4t55.5 -100.5t12 -75.5q-4 -8 3.5 -90t13.5 -102q-8 -25 0 -35z" />
<glyph unicode="Y" horiz-adv-x="1032" d="M431 -50q1 9 2 15t5 19.5t6 21.5t6.5 26.5t8.5 30.5q4 123 61 228q0 63 64 215l22 69q-117 152 -135 291q-31 104 -18 332q0 55 14 92q23 66 41 103q59 51 92 -10.5t31 -163.5q12 -414 82 -471q8 -8 22.5 -2t20.5 7t22.5 17t26.5 27.5t34.5 39t65.5 69.5t127 145 q215 252 268 276q23 10 60 21q12 -4 19 -30t12.5 -34t13.5 -18q20 -25 19 -38.5t-87 -99.5q-45 -39 -143 -141t-156 -174q-186 -215 -247 -270q0 -4 -11 -4q-14 -47 -32 -136q-12 -41 -35 -114q-31 -106 -66 -213q-37 -139 -63.5 -190.5t-55.5 -41.5q-12 2 -79 50 q-18 18 -18.5 32.5t0.5 23.5z" />
<glyph unicode="Z" horiz-adv-x="1069" d="M765 85q153 9 198 9t71 -37q27 -10 18.5 -54t-34.5 -64q-10 0 -49 -9q-102 -18 -157.5 -14t-258.5 -18q-147 -23 -248.5 -18t-120.5 9q-61 8 -78.5 50.5t-2 92.5t39.5 77q225 246 500 489q170 145 336 320q20 23 28.5 31.5l26 26t24.5 27t19.5 23.5t19.5 23.5t13 19.5 q12 20 18 41q18 57 -4 71.5t-167.5 25t-391.5 -30.5q-12 -4 -32.5 13t-20.5 28q25 33 -8 59q-16 35 16 67q12 6 106.5 21.5t199 17.5t186.5 -6t136 -15t123.5 -35t86.5 -69q18 -51 11 -76.5t-10 -34.5t-13.5 -34t-14.5 -37q-37 -70 -145.5 -196.5t-294.5 -299.5t-318.5 -286 t-210.5 -187q-45 -55 56 -55q61 -2 127.5 11.5t219.5 22.5z" />
<glyph unicode="[" horiz-adv-x="675" d="M1221 1563h8q18 0 26.5 -14.5t10.5 -16.5q10 -16 12 -21q29 -33 24.5 -54t-47.5 -40q-225 -74 -323 -86q-92 -25 -100.5 -35t-41 -83.5t-32.5 -82.5q-10 -10 -59.5 -111t-53.5 -121.5t-22 -66.5q-53 -121 -85 -219t-40 -116q0 -35 -21.5 -72t-36.5 -92l-24 -49 q0 -16 -19 -82q-4 -4 -8 -23q-20 -70 -49 -151.5t-29 -94.5l-10 -57l61 12q221 31 304 31q20 10 41.5 2t25.5 -10q4 0 37 -43q16 -39 9 -46t-98 -28.5t-159 -32.5h-76q0 -18 -67 -18q-16 -8 -59.5 -20.5t-51.5 -16.5q-90 -37 -133 0q-35 14 -43 56t17 77q27 18 26.5 54 t57 241t73.5 229q0 37 64 134q63 207 166.5 461.5t152.5 330.5q16 70 17 101q0 70 100 69q29 4 98 8q193 14 324 84q25 13 33 13z" />
<glyph unicode="\" horiz-adv-x="675" d="M467 498l-8 82q-16 14 -12 62t-17 48q-8 29 -52 246t-44 239.5t-11.5 134t31.5 171t107 32.5q14 -12 21 -50t1 -76.5t10.5 -148.5t41 -254t30.5 -198q27 -86 17 -112q-2 -23 8 -23q10 -14 9 -28.5t21.5 -100.5t36.5 -121q0 -16 5.5 -41.5t5.5 -29.5t12 -51 q27 -109 46 -170.5t31.5 -101.5t17.5 -52t11.5 -34.5t3 -28t-3.5 -42t-30 -57.5l-74 -41q-23 0 -29 15q-37 6 -28 38q2 27 -65.5 326t-92.5 367z" />
<glyph unicode="]" horiz-adv-x="675" d="M739 1526q139 37 211 12q6 0 19.5 -27.5t13.5 -46.5q16 -29 16 -36t-16 -29.5t-56 -108.5t-39 -100t-14 -16q-10 -2 -9 -16.5t-8 -44.5t-17 -30q-10 -2 -10.5 -20.5t-16.5 -65.5t-31.5 -89t-24.5 -64.5t-15.5 -35.5t-10.5 -32q-20 -47 -29 -125q-37 -53 -51 -114l-12 -58 q0 -12 -20.5 -84.5t-34.5 -99.5q0 -29 -37 -143q-25 -127 -33 -144l-18 -31q0 -35 -11 -43l-6 -32l2 -8q-8 0 -8 -54q0 -111 -156 -98h-71q-49 0 -68 4q-68 -6 -117 2q-25 -2 -67.5 10.5t-46.5 12.5l-31 41l-29 20l25 10q14 18 127 44t135 20l70 -4l55 6l20 55q10 55 11 84 q29 23 24 55q33 90 41 117q2 23 24.5 93.5t29 97t27 88t24.5 80.5q2 18 17 61t18 66q16 53 81.5 247.5t96.5 294.5q29 55 45 129q-61 -4 -229.5 -15t-170.5 -3q-4 4 -7 14t-7 10q-8 -2 -16.5 13.5t-10.5 31.5q-2 27 79 53.5t155 35.5q106 14 141 14z" />
<glyph unicode="^" d="M819 551q-18 14 -43 90q-45 137 -108 242q-12 20 -18.5 32.5t-13.5 23.5t-10 15t-10 9q-8 4 -38 -5q-68 -20 -168 -243q-23 -68 -64 -106t-72 -21q-66 41 -10 178q14 27 28.5 58.5t22.5 45.5q14 31 37 58q41 72 143.5 154.5t161.5 76.5q39 -4 123 -167t152 -318 q18 -41 -28 -98.5t-85 -24.5z" />
<glyph unicode="_" d="M715 119q90 0 124.5 -34t17.5 -67.5t-62 -25.5q-319 -20 -460.5 -20.5t-172.5 10.5q-51 0 -74 41q-33 43 45 59l60 8q129 29 522 29z" />
<glyph unicode="`" horiz-adv-x="722" d="M766 955.5q0 -21.5 -39 -58.5q-45 -41 -65.5 -41t-30.5 62q-6 23 -58.5 112.5t-52.5 121.5t36 59.5t58 27.5q43 0 97.5 -131t54.5 -152.5z" />
<glyph unicode="a" d="M672 635q-76 0 -250 -293q-31 -49 -55 -129q33 -4 127 74q18 16 49.5 42.5t46 39t37.5 32.5q39 39 69 84l45 74q-34 76 -69 76zM190 100q0 18 -26 52q-31 31 127 319q12 12 31.5 43t25.5 35q0 8 6 15t15 7l16 33q8 18 80 88t115 96.5t88 24.5t77 -29q4 -6 27 -22 q39 -31 174 -152l-35 -102q-47 -135 25 -250q20 -43 69.5 -51t49.5 -45q0 -84 -56 -96q-160 -23 -239 131q-29 39 -37 90q-14 -20 -47 -54q-279 -283 -422 -190q-6 12 -35 32.5t-29 24.5z" />
<glyph unicode="b" horiz-adv-x="909" d="M352 717l23 69q10 8 37.5 89t50.5 133q76 166 104 245q12 18 29 47q35 59 45 66q14 4 62.5 -20.5t62.5 -47.5q12 -12 5 -36.5t-35.5 -82t-35 -70.5t-18.5 -39t-43 -92.5t-64.5 -151.5t-59.5 -160.5t-36 -102.5l-10 -45l53 60q74 74 142 102q117 51 196.5 51t143.5 -108 q23 -45 16.5 -111t-35.5 -113q-31 -23 -33 -47t-104 -137q-53 -55 -140 -110.5t-120 -66.5t-53 -13q-51 -8 -66 -13q-76 8 -100 66q-25 27 -21 47q25 0 29 8q0 12 22 8q106 -8 355 221q76 98 90 131t-2 58q-25 47 -133 -25q-156 -96 -240 -209l-82 -100q0 -8 -23.5 -20.5 t-39.5 -12.5q-33 14 -39 45q-25 16 -28 19.5t-11 21.5q-12 29 16 127q51 240 74 258q16 29 16 62z" />
<glyph unicode="c" horiz-adv-x="745" d="M771.5 502q-23.5 -37 -43 -37t-19.5 -11.5t-21.5 -12.5t-45.5 9.5t-28 24.5q0 10 14.5 74.5t3.5 84t-50 3.5q-76 -43 -114 -111.5t-65.5 -174t-25.5 -130.5q4 -39 18 -47q61 -16 108.5 8.5t125.5 83.5q4 2 17 22.5t26 26.5q16 27 49 27h43q37 -12 59 -49q8 -18 0 -25 l-10 -10q8 -16 -71.5 -97t-102.5 -81t-23 -12q0 -8 -62 -38t-101 -38q-94 -16 -173 39t-79 149q-10 94 34 235.5t113 227.5q104 125 161.5 148.5t123.5 23.5q113 -27 112 -70l11 -10q18 0 40.5 -63.5t6.5 -93.5q-8 -39 -31.5 -76z" />
<glyph unicode="d" horiz-adv-x="823" d="M370.5 202q18.5 -7 61.5 9t102.5 60t87 79t44 89.5t-30.5 95.5q-57 45 -137 -29q-104 -94 -142 -275q-4 -22 14.5 -29zM799.5 -34q-13.5 -3 -37 -7t-48 14.5t-36.5 42.5q-18 49 -23 201l-84 -76q-129 -121 -239 -121q-33 6 -83 55.5t-65 84.5q-25 59 18.5 195.5 t116.5 219.5q66 98 168.5 128t178.5 -17q66 -33 73 12q2 8 56.5 176t148.5 369q41 86 84 82q27 0 58.5 -17.5t45 -51t-9.5 -74.5q-53 -92 -131 -301t-110.5 -328t-39.5 -293t5 -201q4 -33 3 -50t-18.5 -28.5t-31 -14.5z" />
<glyph unicode="e" horiz-adv-x="684" d="M600 664q-27 0 -77 -44.5t-87 -101.5q4 -25 67.5 -24.5t81 9.5t59.5 51t44 58q0 45 -65 52h-23zM614 813q121 0 176.5 -58.5t55.5 -109.5v-16q0 -43 -58 -142q-29 -51 -88 -91t-118.5 -42t-113.5 7.5t-66.5 9.5t-22.5 -15q-14 -23 -14 -84q6 -57 31.5 -79.5t62.5 -22.5 t69.5 14.5t76.5 51t68.5 36.5t49.5 -24.5t27 -46.5q-6 -47 -95.5 -124t-202 -77t-184 65.5t-71.5 186.5q0 47 5 100.5t35.5 131t98 167.5t145.5 126t133 36z" />
<glyph unicode="f" horiz-adv-x="614" d="M338 29l-16 -201q-6 -61 -21 -76q-12 -8 -56 19.5t-66.5 53t-25.5 42t3 70.5q10 31 10 86q0 68 29.5 187.5t37.5 176.5q39 129 39 168t29 55q2 16 31 68q86 240 123 305q37 102 59 129q14 35 77.5 102.5t113.5 108.5q102 53 166.5 53t142.5 -73q29 -31 33 -41.5t4 -38.5 q-8 -39 -72 -137.5t-80 -100.5q-25 -8 -33 -8q-43 0 -43 44t25 95q25 33 24 58q0 35 -55 34q-16 -8 -64 -58t-48 -63q-10 -27 -39 -61q-37 -51 -37 -70.5t-13 -19.5q-8 -29 -28 -66q-18 -49 -41 -71h2q-39 -92 -37 -101.5t49 -4.5t93 17.5t87 2.5q23 -14 37.5 -63.5 t5.5 -61.5q-8 -23 -131 -45q-25 -6 -80 -19q-121 -23 -120 -32q-20 0 -20.5 -27t-9.5 -48.5t-32.5 -130t-23.5 -132.5q-16 -20 -17 -74q-12 -22 -12 -51z" />
<glyph unicode="g" horiz-adv-x="745" d="M643 598q-2 59 -62.5 49t-140.5 -110q-31 -41 -51 -99q-43 -125 6 -143q66 2 103 22.5t86 98.5q67 94 59 182zM500 788q76 37 135 21q49 -6 113 -61q98 -98 114 -140q29 -63 -22 -129q-27 -27 -46.5 -65.5t-25.5 -73.5t-39 -135q-37 -106 -76 -260q-45 -156 -104.5 -241 t-110.5 -114q-55 -23 -118.5 6t-108.5 95q-23 31 -57.5 115.5t-22.5 91.5q12 31 66.5 27.5t60.5 -23.5q18 -53 45 -82q20 -35 47 -48.5t43 -2.5q33 25 50.5 59.5t48.5 128.5q72 250 94 285q-12 -8 -41 -31q-57 -47 -94 -61q-12 -16 -62 -19q-104 -4 -151 59q-18 27 -37 68 q-33 84 30 252q39 80 123.5 170t145.5 108z" />
<glyph unicode="h" horiz-adv-x="968" d="M766 240l12 157q0 45 -22 45q-41 0 -142.5 -74.5t-205.5 -193.5q-66 -96 -125 -96q-37 6 -68 41t-31 82t62 250q6 49 31.5 108t41 114.5t75 220.5t84 232.5t34.5 98.5q18 43 31 82q0 16 23.5 31.5t48 15.5t55.5 -43q53 -74 18 -147.5t-114.5 -307t-108.5 -285.5l-23 -45 l-32 -125q0 -6 2 -6q94 94 165.5 147.5t79 62.5t55.5 45t124 36q37 0 82 -51t45 -119v-31q0 -47 -41 -229q10 0 30 4q41 0 62.5 -17.5t23.5 -17.5q4 -4 4 -12q0 -47 -51 -82t-98 -39q-57 0 -92 43.5t-35 104.5z" />
<glyph unicode="i" horiz-adv-x="401" d="M193 197l8 43q-2 12 16 67q45 102 115 334q0 25 33 27q23 8 57.5 -19.5t56.5 -62.5q27 -27 -5 -97.5t-44 -138.5q-25 -55 -33 -80.5t-18 -84t-23 -76.5q-18 -80 -64 -98.5t-81 24.5q-23 23 -27.5 81t9.5 81zM385 938q0 16 9 28.5t32 61.5q45 88 59 90q25 16 69 -2t64 -51 q37 -82 -32 -166q-31 -41 -78 -52t-71.5 6t-38 43t-13.5 42z" />
<glyph unicode="j" horiz-adv-x="436" d="M-131 -156q18 0 50 -18.5t32 -38.5q0 -76 39 -80q47 -16 92 55q33 41 133 306q20 70 49 230.5t37 194t13 53t5 47.5t15 56q0 25 9 70t9 47q8 8 45 -5t54 -30q37 -41 45 -84t-4 -141q0 -61 -32 -187t-39 -155t-13.5 -48.5t-7.5 -29.5t-26.5 -81t-29.5 -99.5t-32.5 -92 t-89 -141.5t-89.5 -100q-43 -47 -114.5 -45t-120.5 53q-45 61 -64.5 124t-8.5 101.5t44 38.5zM422 1061q20 129 115 137q47 4 73 -18q49 -82 13 -138q-49 -55 -105.5 -73.5t-81.5 6.5q-22 27 -14 86z" />
<glyph unicode="k" horiz-adv-x="765" d="M786 141l72 15q31 0 51.5 -20.5t20.5 -47.5t-74 -72t-110.5 -45t-84 37t-139.5 158q0 12 -24.5 57t-30.5 51q0 -6 -2 2q-16 49 -37 52q-10 0 -32.5 -41t-42 -102.5t-19.5 -100.5t-18.5 -64.5t-51.5 -25.5q-27 6 -69.5 62.5t-42.5 88.5q6 12 15 43t24.5 79t27.5 87 q16 27 43 109q18 35 62.5 142.5t78.5 187.5q170 391 195 451.5t31 90.5v8q0 33 84 33q18 0 46.5 -35.5t28.5 -64.5q0 -70 -144 -374t-144 -353q0 -6 2 -6q43 16 116.5 72.5t100.5 64.5q88 61 110.5 61t47 -27.5t24.5 -51.5q0 -70 -227 -191q-82 -45 -88 -51q0 -2 49 -72 q18 -33 37.5 -74t30 -60t22.5 -38q24 -35 61 -35z" />
<glyph unicode="l" horiz-adv-x="364" d="M336 686l20 78q33 63 115 285.5t82 243t12.5 34.5t28.5 14q12 12 59 13l33 -33q47 -43 47 -78t-13 -70.5t-77 -168.5q-8 -23 -22.5 -52.5t-22.5 -47t-8 -21.5t-3 -13.5t-9.5 -25t-16.5 -37.5q-82 -180 -82 -199.5t-10 -29.5q-10 0 -10 -17v-6q0 -20 -33 -109 q-88 -297 -88 -371.5t-47 -97.5q-59 -16 -96 62t-13 190q23 59 23 86q6 39 42 140.5t46 122.5q20 0 20 45t23 63z" />
<glyph unicode="m" horiz-adv-x="1165" d="M313 686l-4 45q0 31 30 52.5t75 21.5t71.5 -38t26.5 -76t-16 -70l-74 -181q0 -6 4 -6q6 -6 53 39t140.5 111.5t134.5 79.5q29 0 69.5 -37t40.5 -84q-31 -139 -43 -158q39 47 135.5 112.5t141.5 67.5q66 0 89 -61.5t29.5 -158.5t20.5 -132q2 -12 23.5 -18.5t41 -19.5 t19.5 -46q0 -82 -135 -82q-59 0 -103.5 62.5t-44.5 148.5q0 35 5.5 69.5t5.5 41t-7 6.5q-53 0 -231 -195q-6 -4 -10 -10q-16 -12 -43 -39q-61 -57 -86 -57t-39 12l-23 18q-27 18 -26 54v10l47 137q51 113 51 125t-2 12q-31 0 -115 -92q-90 -98 -120.5 -130t-64.5 -70.5 t-57.5 -66.5t-25.5 -28q-45 0 -81 35t-36 72t6.5 68.5t20.5 91t19 81t9.5 43t5.5 26.5t9 27.5t19.5 48t35.5 83.5q8 26 8 55z" />
<glyph unicode="n" horiz-adv-x="940" d="M776 195l10 139v33q-6 41 -26 41q-37 0 -137 -72q-180 -129 -271 -246q-18 -20 -29.5 -23.5t-33 -1t-58 41t-49.5 69.5q0 82 82 242q10 33 56.5 142.5t52.5 168.5l-2 2q0 20 20 21q4 6 41 6t76 -29t39 -80t-53.5 -157.5t-53.5 -110.5q33 23 125 94q211 170 260 170 q27 0 75 -29.5t56 -54.5l-8 -94l4 -113q0 -66 -8 -92l6 -12q-8 -8 16.5 -61.5t24.5 -66.5t-29.5 -41t-56.5 -32q-129 5 -129 146z" />
<glyph unicode="o" horiz-adv-x="741" d="M649 431.5q8 23.5 15.5 35.5t8.5 62.5t-16 60.5q-23 10 -37 6t-47 -27q-156 -131 -186 -280q-6 -51 11.5 -77t58.5 -13.5t73.5 44t43 42t17.5 18.5t14 23.5t11.5 22.5t11.5 25.5t10 26t11 31zM406 668q102 88 184 106q123 29 172 -22q80 -35 92 -146q16 -170 -113 -356 q-76 -111 -209 -191q-53 -37 -188 -45q-35 0 -80 39q-92 96 -80 170l4 47q-10 10 -5 16.5t7 8.5q12 0 8.5 19.5t14.5 74.5t47 103q70 115 146 176z" />
<glyph unicode="p" horiz-adv-x="774" d="M387 240q29 0 107.5 31.5t112.5 60t52.5 48t32.5 44.5q31 47 -4 102q-59 72 -219 -82q-66 -70 -84 -137t2 -67zM125 -12l14 73q10 55 80 262t119 334q57 133 57 177q0 10 23 34q23 18 54.5 15.5t55.5 -21.5q33 -53 23 -114q0 -41 -45 -107q-4 -6 -2 -4q121 72 208 59.5 t134 -73t47 -142.5q0 -35 -33 -103.5t-53 -86.5q-12 0 -33 -43q-25 -33 -93.5 -69t-92.5 -27q-10 -6 -10 -19q0 -14 -69 -31.5t-105.5 -17.5t-55.5 16q-14 -14 -14 -30.5t-20.5 -60.5t-32.5 -44q-12 -10 0 -22q0 -43 -13 -64q0 -53 -20 -98q0 -25 -7.5 -48.5t-15.5 -23.5 q-12 -4 -13 -56t-30.5 -91t-56.5 -39q-39 -4 -49 16q-43 61 -31 123q23 86 23 119l10 65q23 37 22 97q0 25 25 45z" />
<glyph unicode="q" horiz-adv-x="772" d="M711 647q-16 37 -156.5 -70.5t-183.5 -207.5l-23 -60q59 -6 115.5 27t120 94.5t100.5 126.5t27 90zM324 147q-41 0 -90.5 66t-49.5 107.5t32 108.5t63.5 114t111.5 112.5t116 87t81 41.5q37 23 53 23q72 16 145 -6q27 -18 62 -65.5t43 -86.5q0 -35 -8.5 -61.5 t-46.5 -112.5q-29 -45 -52.5 -93t-23.5 -58q-10 -29 -88 -197q-2 -12 -17 -70q-39 -141 -59 -235q-37 -197 0 -250q8 -25 -27 -43q-41 -23 -77 6q-51 39 -56.5 50.5t-9.5 20.5t-6 19q-33 174 94 537q37 66 33 82q-20 -10 -49 -25.5t-43.5 -23t-34 -17.5t-29.5 -14t-22 -8 q-29 -9 -45 -9z" />
<glyph unicode="r" horiz-adv-x="737" d="M457 817q45 0 61 -16q45 -39 -63 -250q-35 -70 -23 -70q23 39 110 106.5t109.5 79t48 21.5t29.5 12q45 23 102.5 18t69.5 -36q0 -20 25 -33l10 -12q0 -16 -28.5 -42t-59.5 -28t-73 -21.5t-81 -41t-58.5 -32.5t-49.5 -30q-57 -39 -103 -92q-55 -55 -63 -71 q-14 -14 -29.5 -75t-15.5 -75q-8 -33 -30.5 -62.5t-44 -35.5t-56.5 24q-63 47 -56 101.5t41 201.5q6 55 64.5 218t97.5 221q21 20 66 20z" />
<glyph unicode="s" horiz-adv-x="716" d="M621 852q31 14 80 14t63 -8q12 4 16 4q25 0 64 -41t49 -65q0 -150 -25 -150q-10 0 -10 -12q0 -29 -50 -63.5t-91 -34.5q-23 6 -45.5 27.5t-22.5 43.5q0 2 42 51.5t42 88.5q0 16 -35 16q-113 -51 -161 -96q-12 -25 -25 -25q0 2 -3 2t-23.5 -20.5t-42 -54t-25.5 -60.5 l-4 -6v-10q-2 -4 -2 -17q0 -33 87 -97.5t120.5 -98t42.5 -60.5q18 -37 18 -65q0 -70 -72.5 -108t-173 -38t-174.5 43t-75 75t22 38q20 16 57 8q43 -8 107 -16q41 0 76.5 8t35.5 16.5t-16 22.5t-35 14q0 8 -81 68.5t-81 79.5q0 2 2 4v10q-14 0 -26.5 39t-12.5 76 q0 106 128.5 232t259.5 165z" />
<glyph unicode="t" horiz-adv-x="677" d="M240.5 747.5q-9.5 12.5 -9.5 25.5t17.5 44t31 30t61.5 0t64.5 7t24.5 27q8 23 41 75q72 139 100.5 162t66.5 27t73 -19q31 -43 2 -86q-12 -25 -39 -63.5t-39 -61.5q-35 -49 -10.5 -53t121 11.5t108.5 -70.5q6 -49 -10.5 -59.5t-93.5 -10.5q-66 -10 -124.5 -11t-70.5 -5 q-25 -6 -39 -39q-6 -4 -14 -23q-12 -25 -51 -96q-53 -156 -82 -321q-6 -41 4 -57.5t65 -22.5q98 -10 215 59l56 33q14 25 45 -27q8 -12 12 -24q0 -80 -86 -129q-84 -53 -176 -68.5t-139.5 -6.5t-88 55t-51.5 79l-10 16q-12 10 -8 105.5t14 134.5q12 49 70 207l55 119l-82 22 q-14 2 -23.5 14.5z" />
<glyph unicode="u" horiz-adv-x="757" d="M627 182v31q-20 -51 -45 -70q-47 -47 -95 -69q-135 -86 -211 12q-82 68 -61 166q6 143 88 323q90 180 94 187q33 12 77 -1t48 -40q12 -20 -1 -78.5t-48 -126.5q-82 -201 -85 -247t24 -54q23 -14 54.5 -2t84.5 80.5t93 165t46 170.5q-4 23 12.5 49.5t42.5 42.5 q8 12 21.5 19.5t19.5 -1.5l33 2q4 0 18.5 -19.5t20.5 -23.5q57 -49 -29 -252q-117 -246 -24 -325q33 -23 26 -107q-8 -29 -60 -30.5t-83 20.5q-29 27 -57 139q-4 12 -4 39z" />
<glyph unicode="v" horiz-adv-x="677" d="M266 727q8 6 36 9t38 1q45 -16 82 -250q4 -37 8 -69q10 -55 12 -61.5t6.5 -30t10.5 -23.5q23 0 147 180q72 102 119 147.5t70 51.5q49 8 60 -36t-30 -101q-12 -16 -25.5 -44t-26.5 -52.5t-73.5 -106.5t-72 -93t-27.5 -26q-51 -43 -70 -71q-47 -47 -94 -58.5t-69 15.5 q-23 16 -62 139t-51 197.5t-37 148.5q-10 35 6 76t43 57z" />
<glyph unicode="w" horiz-adv-x="1058" d="M752 315q0 -47 18 -53q6 -2 24.5 -2t40 16.5t62.5 57.5t102.5 137t61.5 111.5t18 38.5q59 86 119 26q20 -20 21 -96q-43 -160 -68 -186q-39 -31 -66 -76q-57 -68 -81.5 -88.5t-30.5 -26.5q-63 -63 -151.5 -88t-129.5 8q-63 33 -63 111l-11 43q-31 0 -54 -41t-100 -93.5 t-116 -52.5q-47 0 -89 97.5t-34 195.5q0 68 13.5 131.5t15.5 71.5q16 125 51 178q35 47 85 41t56 -51q16 -18 12.5 -84t-22.5 -90q-4 -10 -15 -103.5t-15 -115.5q-10 -59 20 -47q33 14 88 95t78 122t49.5 116.5t48 99t55 22.5t62.5 -21q59 -59 10 -158q-65 -131 -65 -246z " />
<glyph unicode="x" horiz-adv-x="702" d="M442 248q-197 -207 -226.5 -207t-67 36t-37.5 85q66 78 141 143l104 107l-22 77q-37 80 -53 129q-25 33 -26 43.5t15 34.5q20 20 57.5 34.5t59.5 0.5q16 0 52 -68.5t36 -93t4 -32.5q10 -14 72 26l53 53q125 104 144 113q25 16 64.5 -13.5t39.5 -62.5q0 -68 -70 -106 q-51 -37 -90 -74q-55 -51 -125 -106l33 -56q23 -43 53 -59q16 -23 71.5 -66t61 -43t45.5 -20q25 -25 9.5 -86.5t-39.5 -61.5q-33 0 -43 13q-63 0 -168 91t-105 116q0 8 -1 9t-9 1q-12 10 -12 22q-1 21 -21 21z" />
<glyph unicode="y" horiz-adv-x="698" d="M-65.5 -240q30.5 0 45.5 -8q78 -53 146.5 -39.5t143.5 117.5q86 137 131 219q-43 25 -81.5 83t-32.5 81v23q-23 0 -30 126.5t-1 179t14 187.5q-2 53 37 80q74 33 110 -33.5t25 -216.5q-18 -279 39 -344q18 49 31 61q29 59 31 70.5t10 27t41 81.5q53 154 65.5 175 t19.5 36.5t11 23.5t10.5 19.5t10.5 17.5t10 12q8 10 18 15q33 25 74 2q31 -31 43 -49q29 -49 -25 -148q-37 -109 -65 -141q-68 -156 -122 -264.5t-79 -171.5q-131 -209 -184 -273q-135 -123 -205 -135q-106 -23 -201.5 7t-109.5 83q-12 41 13.5 68.5t56 27.5z" />
<glyph unicode="z" horiz-adv-x="645" d="M522 190q147 6 199 7q66 0 85 -7.5t28.5 -52.5t1.5 -57q-4 0 -31 -2q-53 -8 -118.5 -11.5t-293 -31t-259.5 -22.5t-56.5 22.5t-30.5 39t8.5 58.5t53.5 78q78 96 126 135t226 160q14 12 108 82q-104 10 -154 9t-71 5h-31q-18 0 -61 31t-45 51q23 25 33 37q35 23 43 14 q86 4 151 8q170 -2 220.5 -13t93.5 -48q33 -33 42 -74t-12.5 -66.5t-27.5 -25.5q-78 -53 -129 -84q-86 -51 -93 -61q-41 -20 -63 -43q-27 -33 -74 -66l-92 -88q121 20 223 16z" />
<glyph unicode="{" horiz-adv-x="675" d="M1108 1432l-88 -11q-59 -14 -133 -80q-35 -43 -44 -62t-14 -56q-20 -53 -26 -80q-6 -39 -17.5 -154t-27 -154.5t-21.5 -54.5q-55 -152 -141 -227q-35 -20 -38 -28.5t15 -30.5q0 -2 10.5 -27t10.5 -41q14 -35 2 -81t-61 -157q-39 -78 -39 -112q-16 -23 -35 -101.5t-22 -89 t-3 -14.5q0 -39 92 -25q39 6 48.5 1t25.5 -27q25 -18 13.5 -52t-54.5 -47q-45 -25 -112.5 -26.5t-88.5 14.5q-18 29 -18 17q-41 39 -59.5 64.5t-16.5 90.5v58q12 10 17 53q37 143 96 268q49 92 49 152q0 66 -102 86q-61 0 -41 59q8 25 33.5 39t52.5 6q47 0 108 68 q127 137 150 448q8 115 44 189.5t113 148.5q33 41 80 60.5t67.5 27.5t71 9t62.5 -9q14 -6 32.5 -56t8.5 -56z" />
<glyph unicode="|" horiz-adv-x="675" d="M434 666l21 77q35 66 167 410t132 364.5t22.5 38t40.5 17.5q10 10 33 10l33 -33q53 -49 53 -94q0 -37 -12.5 -64.5t-18.5 -42t-24.5 -52t-29.5 -63.5t-51 -118t-74 -171t-34 -83t-3 -13t-9 -24.5t-16 -38.5q-82 -180 -82 -199.5t-11 -29.5q-10 0 -10 -16v-6 q0 -20 -33 -109q-170 -571 -170 -638t-51 -91q-61 -16 -97 58.5t-11 187.5q23 59 22 86q8 39 84 274.5t86 253.5q20 0 20 45.5t23 63.5z" />
<glyph unicode="}" horiz-adv-x="675" d="M418 94l4 146q0 31 -4 113.5t-2 115.5t18 66q25 23 19 67q-16 41 -13.5 75t21.5 46q86 92 125 168q113 178 145 311v21q16 39 -18 88q-16 33 -41 48t-67 26.5t-48 42t14 51.5q12 25 58.5 38t62 -3.5t27.5 -16.5t69.5 -50t73.5 -79q14 -10 25 -100q10 -37 7 -60.5 t-44 -153.5t-66 -159q-23 -14 -22.5 -23.5t-37.5 -72t-65 -88.5l-22 -39l-14 -8q-25 -16 6 -93q4 -10 11 -22t11 -21q0 -29 -10 -28q-39 -20 -49 -68.5t-6 -202t-15 -198.5q-33 -143 -47 -144l-6 -8q0 -43 -75.5 -88t-140 -48t-112 25.5t-47.5 53.5l13 22q10 -8 20 -8t10 8 q29 23 76 41q86 14 104.5 34t35 92.5t16.5 82.5z" />
<glyph unicode="~" d="M719 549q27 0 113 38t117.5 38t53 -21.5t21.5 -50.5t-35 -64l-43 -24q-49 -18 -96 -41t-64 -31q-29 -10 -54 -10t-56 10q-74 23 -146 78q-61 47 -91.5 47t-65.5 -37t-60 -39q-12 -35 -30 -34q-37 0 -60.5 25.5t-23.5 45t16 47t60 66.5t104 63l51 7q90 -6 121 -29 q109 -84 168 -84z" />
<glyph unicode="&#xa1;" horiz-adv-x="430" d="M604 831q-41 -25 -60.5 -26.5t-60.5 14.5q-68 43 -59.5 95.5t90.5 93.5q78 31 135 -11q80 -80 -45 -166zM344 72l-27 -72q-37 -61 -106.5 -231t-72.5 -194t-11 -36t-25 -10q-10 -8 -49 -8q-33 10 -52 31.5t-19 62.5t5 57.5t9 27.5t15.5 32.5t17.5 34.5q8 18 41 73 q59 115 59 118t27 65q16 27 33.5 73.5t17.5 57.5q10 27 16 32q10 0 10 17v6q0 29 39 108q70 199 76 275t58 100q63 12 89.5 -48t-3.5 -206q-29 -57 -29 -86q-25 -88 -70 -172q-8 0 -17 -14t-9 -45t-23 -49z" />
<glyph unicode="&#xa2;" horiz-adv-x="921" d="M674 676l31 67q29 43 94 175l-33 18q-25 0 -98 -107q-51 -55 -62.5 -99t-16.5 -74.5t-10.5 -44t1 -41t18.5 -35.5q18 33 20 34q8 0 18.5 14.5t12.5 28.5q0 50 25 64zM836 399l-33 -8q-10 0 -63.5 -13t-75 -23.5t-39.5 -10.5q-147 -319 -152.5 -369.5t-10.5 -65.5t-24 -20 q-55 -12 -63 53.5t28 178.5q31 43 35 90q14 37 74 158q-14 6 -55 44t-51 58q-63 90 45 360q23 47 75 124t70 87q33 10 80 35q16 6 63 17.5t71 9.5t69 -27q139 287 143 316q12 33 41 26q12 12 33 4l28 -28q35 -59 -12 -150q-8 -14 -35 -57q-92 -156 -110 -187q18 -31 14 -47 t-24.5 -56t-34 -55.5t-52.5 -4.5q-4 -12 -66.5 -120t-64.5 -125.5t-20 -35.5q-6 0 -10 -10q90 23 149 47q27 18 48.5 18t28.5 -1t19.5 -4t14.5 -3q33 -12 16.5 -62t-65.5 -77q-84 -43 -84 -66z" />
<glyph unicode="&#xa3;" horiz-adv-x="921" d="M600 713l160 -2q111 0 155 -45q31 -33 13.5 -66t-62.5 -25l-159 -6q-23 -4 -156 0q-6 -18 -31 -100q-2 -14 -21.5 -125t-23.5 -164l4 -51l74 -25q10 -4 36.5 -22.5t53.5 -22.5q53 -35 111.5 -34.5t98.5 19.5t46 36q8 0 15.5 9t7.5 20l61 14q57 0 70 -55q18 -76 -78 -148 q-33 -25 -85 -50.5t-136 -18t-148 50.5q-25 25 -59 24q-10 6 -52 12.5t-53 8.5q-68 14 -114 0q-82 -27 -180.5 6t-98.5 80q0 68 101 78q74 8 88 9t20 6t8 5t6 10q31 80 49.5 202t40.5 228q-80 0 -109.5 1t-59.5 14q-49 0 -72 41q-37 51 63 67q86 12 215 17q43 137 88 229 q195 397 338 422q53 16 120 -3.5t104 -55.5q4 23 40.5 -30.5t40.5 -82.5l21 -53q6 -4 6 -39q-10 -57 -53 -90q-43 -27 -95.5 -6.5t-45.5 79.5q8 100 -45 115q-18 12 -38 9t-59 -34q-18 -33 -47 -57q-27 -45 -65.5 -120.5t-108.5 -280.5z" />
<glyph unicode="&#xa4;" horiz-adv-x="921" d="M852 672q6 90 -94 100q-43 6 -83 -12.5t-58.5 -35.5t-27.5 -32.5t-34 -60.5q-43 -61 -54.5 -114.5t19.5 -72.5q25 -37 125 -30q195 104 207 258zM945 109q-32 0 -66 32q-72 53 -119 148q6 23 -19 10q-8 -4 -18 -10q-109 -47 -158 -39q-23 8 -30 7t-27 -21q-6 -23 -78 -89 q-12 -33 -24 -45q-23 -23 -19 -34q-10 -10 -60.5 -27.5t-54.5 -3.5q-10 -8 -23 6t-17.5 33.5t4.5 29.5q6 8 12 9q-14 14 7 51t42 55q0 4 6 13.5t8 21.5q20 14 47 14q0 23 6.5 29t8.5 9t9 6t16.5 14.5t5 17.5t-8.5 4q-27 43 -35 47q-12 119 5 170q4 0 6 13q6 41 18 53 q-2 6 8 18l21 21q4 6 4 14q8 16 27 45q6 14 11 25.5t7 17.5t4 10t0 9q-2 12 -4 22q-41 33 -71.5 77t-22.5 66l-15 23q-33 47 13 98q25 29 35 15q29 0 45 -33q16 -27 34 -45q8 0 21 -25q23 -43 47.5 -60.5t32.5 -20.5t9 -5t2 -2t3 2l4 4q6 12 21 19q10 14 37.5 8t48.5 -4 l57 -4l70 94q123 158 155 96q14 -4 26.5 -34.5t9.5 -35l-5 -7.5t-5 -7t-5 -9t-6 -11t-8.5 -14.5t-23 -41t-22.5 -43.5q-23 -6 -27.5 -21t-6.5 -20q8 -16 30 -34q25 -10 33 -74q16 -12 24.5 -53t2.5 -47l-9 -23q6 -14 -32.5 -92t-85.5 -133l-35 -41l26 -29q14 -27 55.5 -65.5 t57.5 -38.5q10 -2 12 -51.5t-10 -66.5t-44 -17z" />
<glyph unicode="&#xa5;" horiz-adv-x="921" d="M934 233q-141 0 -281 -8q-41 -133 -47 -149q-37 -139 -63.5 -190.5t-55.5 -41.5q-12 2 -79 50q-18 18 -18.5 32.5t0.5 23.5t2 15t5 19.5t6.5 21.5t6.5 26.5t8 30.5q0 70 31 158q-68 -2 -132.5 -2t-95.5 10q-53 0 -76 41q-37 49 66 68q127 18 281 24q20 63 51 144h-162 q-41 0 -72 10q-51 0 -73 41q-39 51 67 70q133 16 209 20q-68 109 -82 219q-31 104 -18 332q0 55 12 92q25 66 43 103q59 51 92 -10.5t31 -163.5q12 -414 82 -471q8 -8 22.5 -2t20.5 7t22.5 17t26.5 27.5t34.5 39t65.5 69.5t129 145q213 252 267 276q23 10 59 21 q12 -4 19.5 -30t12.5 -34t13 -18q20 -25 19 -38.5t-87 -99.5q-45 -39 -143 -141t-156 -174q-84 -98 -141 -158h57q113 0 151 -36.5t21.5 -70.5t-61.5 -26l-160 -10l-133 -4l-24 -105l-13 -36h129q117 0 154 -36t19.5 -71t-62.5 -27z" />
<glyph unicode="&#xa6;" horiz-adv-x="675" d="M520 426q-170 -571 -170 -638t-49 -91q-59 -16 -90 58.5t-6 187.5q23 59 22 86q6 33 59.5 199.5t88.5 267.5q8 18 46 11t76 -30.5t27 -40.5zM768 1538q0 33 33 33q10 10 33 10l32 -33q70 -63 70 -94q0 -37 -12.5 -64.5t-18.5 -42t-24.5 -52.5t-29.5 -63.5t-51 -117.5 t-74 -171t-34 -83t-3 -13t-9 -24q-12 -33 -41 -96q-10 -39 -88 -10.5t-80 59.5q0 6 33 81t148.5 368t115.5 313z" />
<glyph unicode="&#xa7;" horiz-adv-x="788" d="M662 621q-35 39 -50 59q-18 -14 -90 -92q-23 -27 -26 -58l36 -10q45 -39 101.5 -23.5t64.5 58.5q-16 5 -36 66zM695 878.5q1 -14.5 1 -33t20.5 -59.5t37.5 -43q20 -45 65 -86q139 -229 -100 -286q-100 -25 -182 14q14 -18 20 -23q27 -45 66 -75q137 -236 -117 -285 q-80 -18 -149.5 1.5t-100.5 72.5q-14 27 -14 53.5t14 36.5q20 0 45 -10.5t35 -14.5q47 -29 107.5 -12.5t68.5 55.5q0 2 -15.5 28t-21.5 44q-63 61 -98 136t-35 128q-12 35 11.5 83t58.5 81q33 49 129 119q-18 45 -19 82q-10 33 12.5 92t55.5 104q90 100 254 179 q92 0 127 -11q20 -8 46.5 -55t33.5 -84q0 -10 -13.5 -50t-17.5 -56.5t-11.5 -33t-12.5 -26.5t-5 -14q-2 -20 -25.5 -23.5t-48 10t-34.5 35.5q-16 66 -6 92q35 41 12 41q-6 0 -21.5 -1t-58.5 -32.5t-76 -80.5q-33 -37 -36 -57.5t-2 -35z" />
<glyph unicode="&#xa8;" horiz-adv-x="722" d="M862 1122q59 43 111 -49q20 -49 13 -78.5t-54 -83.5q-70 -94 -133 -32q-18 16 -30.5 50t-8.5 46q16 76 65 117q4 2 11 10q16 20 26 20zM545 1122q59 43 110 -49q20 -49 13.5 -78.5t-54.5 -83.5q-70 -94 -133 -32q-18 16 -30.5 50t-8.5 46q16 76 66 117q4 2 10 10 q15 20 27 20z" />
<glyph unicode="&#xa9;" horiz-adv-x="1015" d="M850 444l-33 -6q-37 0 -92 -22q-25 0 -27 -1t-37.5 11t-51 14t-46.5 41q-63 96 2 252q16 55 103 156q12 14 34 41q25 14 101 33q49 -2 114.5 -71t55.5 -97q0 -2 -13.5 -17.5t-17.5 -23.5q-8 -18 -48 -7t-42 35q-27 37 -53 37q-43 0 -64 -69q-25 -29 -30 -56 q-29 -123 -7 -137q37 -12 62.5 -2t103.5 70q20 14 62 -43q14 -23 22 -25q-2 -33 -34.5 -67t-63.5 -46zM1044 838q0 23 -77 131q-135 102 -258 51q-199 -59 -254 -283q-29 -94 -31 -123.5t25 -76.5q-4 -23 5 -51.5t10 -41t46 -67.5t80 -64q33 -29 102.5 -16.5t153.5 59.5 q53 25 116.5 79t61.5 81q-4 10 0 22.5t12 14.5q29 25 38 114t-10.5 128t-19.5 43zM1219 709v-15q12 -16 1.5 -106t-20.5 -92q-10 -4 -5 -7.5t-7 -17.5q-29 -43 -58 -47q-4 -6 7 -8q8 -4 -30 -45t-97.5 -89.5t-104.5 -62.5l-16 -18q-14 -20 -69.5 -38t-96.5 -13 q-297 -6 -377 223q-25 41 -33 86t-11 54t-4 18.5t-3 16.5t-1 50t3 51q12 8 4 23q-16 39 42 179t81 155q2 0 2 7t4 7q25 37 213 135q272 133 477 -158q6 -23 26.5 -56.5t20.5 -41.5q29 -43 43.5 -105.5t6.5 -70.5q2 -4 2 -14z" />
<glyph unicode="&#xaa;" horiz-adv-x="716" d="M756 1186q-68 0 -221 -258q-25 -41 -48 -115q45 0 213 156q41 37 78 86l41 65q-30 66 -63 66zM356.5 692.5q-24.5 18.5 -24.5 23.5t-9.5 20.5t-17.5 21.5q-25 31 115 284q10 10 27.5 38t21.5 32q0 18 20 18l13 29q8 16 72.5 78.5t101.5 85.5t77 21.5t56 -15.5t35.5 -30.5 t44.5 -36.5q29 -25 110 -97l-30 -90q-43 -123 20 -221q20 -39 63.5 -46t43.5 -40q0 -76 -47 -84q-141 -20 -215 115q-25 35 -33 80q-12 -18 -41 -48q-248 -250 -373 -169q-6 12 -30.5 30.5z" />
<glyph unicode="&#xab;" horiz-adv-x="1323" d="M1278 874q-6 -59 -23.5 -74.5t-54.5 -41.5q-74 -59 -177 -151.5t-120.5 -120t-11.5 -66.5q51 -115 262 -234q82 -41 117 -113.5t-8 -84.5q-80 -8 -160 28q-43 25 -61.5 33t-35 17.5t-24.5 15.5t-18 14q-20 14 -37 35q-111 63 -181 191l-63 86l-14 77q18 4 31.5 33 t22.5 39t34.5 32.5t86 72t113.5 94.5q70 51 152 133q41 45 53 45q18 6 41 -9.5t39 -21.5q33 -13 37 -29zM848 874q-6 -59 -23.5 -74.5t-54.5 -41.5q-74 -59 -177.5 -151.5t-121.5 -120t-12 -66.5q51 -115 264 -234q82 -41 116.5 -113.5t-8.5 -84.5q-80 -8 -159 28 q-43 25 -61.5 33t-35 17.5t-24.5 15.5t-19 14q-20 14 -36 35q-111 63 -181 191l-65 86l-14 77q20 4 38 47q12 23 44 50.5t93.5 79t112.5 94.5q70 51 152 133q41 45 53 45q18 6 41 -9.5t41 -21.5q33 -13 37 -29z" />
<glyph unicode="&#xac;" horiz-adv-x="952" d="M874 641q90 0 127 -35q41 -43 17 -67q6 -68 6 -147t-38 -120t-81 -30.5t-35 55.5l-16 195q-207 -14 -455 -15q-41 0 -71 10q-29 0 -37 14.5t-14.5 29t-13.5 23.5t-8 19.5t9 16.5q20 14 94 22q129 29 516 29z" />
<glyph unicode="&#xad;" horiz-adv-x="667" d="M281 471q195 35 294 35t137 -37t21.5 -70.5t-61.5 -25.5q-258 -20 -304 -20.5t-77 9.5q-53 0 -76 41q-36 50 66 68z" />
<glyph unicode="&#xae;" horiz-adv-x="1015" d="M823 774v19q8 16 -6 26q-18 20 -35 25q-6 -6 -12 -11.5t-14 -13.5q-2 -29 -13 -33q-43 -137 -26 -141q20 6 30.5 16.5t17.5 33t9 24.5q12 6 27.5 26.5t17.5 20.5q4 4 4 8zM647 922q0 14 38 26.5t82 8t54 -12.5q25 -2 62 -22.5t37 -26.5q29 -27 36 -100q0 -43 -28 -82 q-29 -55 -86 -95l-25 -26q2 -10 31 -30.5t47 -29.5q18 8 26.5 0t2.5 -40q-16 -35 -44 -53.5t-53 -0.5q-31 6 -48 23.5t-33.5 37t-38.5 40.5q0 2 -29 4l-16 -43q0 -25 -13 -68q-20 -43 -51 -37t-57.5 40t-19.5 68t36 107q0 45 8 45q14 90 72 166q0 23 2 31q4 14 -9.5 30.5 t17.5 39.5zM1044 838q0 23 -77 131q-135 102 -258 51q-199 -59 -254 -283q-29 -94 -31 -123.5t25 -76.5q-4 -23 5 -51.5t10 -41t46 -67.5t80 -64q33 -29 102.5 -16.5t153.5 59.5q53 25 116.5 79t61.5 81q-4 10 0 22.5t12 14.5q29 25 38 114t-10.5 128t-19.5 43zM1219 709 v-15q12 -16 1.5 -106t-20.5 -92q-10 -4 -5 -7.5t-7 -17.5q-29 -43 -58 -47q-4 -6 7 -8q8 -4 -30 -45t-97.5 -89.5t-104.5 -62.5l-16 -18q-14 -20 -69.5 -38t-96.5 -13q-297 -6 -377 223q-25 41 -33 86t-11 54t-4 18.5t-3 16.5t-1 50t3 51q12 8 4 23q-16 39 42 179t81 155 q2 0 2 7t4 7q25 37 213 135q272 133 477 -158q6 -23 26.5 -56.5t20.5 -41.5q29 -43 43.5 -105.5t6.5 -70.5q2 -4 2 -14z" />
<glyph unicode="&#xaf;" horiz-adv-x="722" d="M569 1051q129 29 239 28.5t157 -41.5q31 -31 14.5 -64.5t-61.5 -27.5l-308 -18q-41 0 -71 10q-51 0 -74 39q-20 31 4 48.5t100 25.5z" />
<glyph unicode="&#xb0;" horiz-adv-x="579" d="M619.5 1301.5q-44.5 -62.5 -44.5 -170t91 -127.5q51 0 111.5 57t58.5 151q-2 139 -103 148q-69 4 -113.5 -58.5zM702 1516q117 0 212.5 -81t95.5 -202q0 -68 -18.5 -119t-36 -72.5t-51.5 -61.5t-60.5 -64.5t-72.5 -54.5t-83 -30q-203 0 -258 164q-16 29 -26.5 85.5 t-10.5 75t25 89.5q39 111 94 162q25 25 59.5 48.5t42.5 31.5q63 29 88 29z" />
<glyph unicode="&#xb1;" d="M823 168q117 0 154 -36t19.5 -70.5t-62.5 -26.5q-319 -20 -586 -21q-41 0 -72 11q-51 0 -73 41q-39 51 67 69l37 4q129 29 516 29zM672 502l2 -105q0 -39 -10 -67q0 -49 -41 -72q-31 -20 -48.5 4.5t-25.5 95.5q-12 51 -19 140q-78 -2 -150.5 -2t-103.5 10q-51 0 -73 41 q-39 51 67 69l37 5q70 14 215 20q-2 35 -2 122t36 122t71 19.5t26 -58.5l13 -199q66 2 169 2t141 -37t20.5 -70.5t-62.5 -25.5q-223 -14 -262 -14z" />
<glyph unicode="&#xb2;" horiz-adv-x="655" d="M412 858q43 51 43 62l28 20h-4l43 43h-2q35 53 39 61.5t16 22.5q86 86 91 104q12 16 24 23l39 35q4 10 47 53q25 59 28 64.5t-3 7.5q-35 12 -79 12t-89 -31q-23 -4 -45.5 -16t-40.5 -8l-49 63l-25 58l76 32q154 94 223 66l45 -8q25 -4 69 -37t66.5 -74t22.5 -88t-60 -131 q-14 -18 -89.5 -103t-94.5 -104q-31 -20 -75 -66.5t-40 -46.5l7 -4q139 47 184 33q43 12 135 -18q16 -6 22.5 -17.5t17.5 -21.5t21.5 -23.5t16.5 -30t-4 -24.5q-29 -23 -121 -10l-119 -13h-12q-43 6 -94.5 -12t-137.5 -33.5t-99 -10.5t-36.5 30.5t-31.5 42.5q0 12 19.5 55 t27.5 43z" />
<glyph unicode="&#xb3;" horiz-adv-x="655" d="M791 913v21q0 37 -101 76q-53 20 -88 24q-4 -2 -8 -2t-8 1t-7.5 2t-8.5 4t-8 5.5t-10 7.5t-12 9t-10.5 16.5t-9.5 24.5t-14 28q-4 31 164 134q154 92 176 114h-2q8 12 15 20.5t-1 10.5q-76 8 -84 -2q-12 4 -58 -5t-48 -15.5t-48.5 -13.5t-56.5 -5t-27.5 46t-17.5 63 q8 12 50 42.5t69 43.5q78 20 207 14h2q72 -8 127 -51t67 -101q10 -63 -75 -149q-31 -20 -50 -31q-47 -23 -90 -61l-14 -10l-66 -29l103 -37q49 -27 90 -94q12 -23 16 -29q20 -55 20.5 -100t-38.5 -103q-106 -158 -334 -172q-94 0 -142 32t-45 69t26.5 59.5t64.5 17.5 q176 -43 250 43q35 39 35 82z" />
<glyph unicode="&#xb4;" horiz-adv-x="722" d="M674 979l2 20q4 18 88 108.5t113 100.5q16 8 30 13q27 0 52.5 -29t25.5 -76q0 -29 -89 -101.5t-109.5 -103t-51.5 -30.5q-61 0 -61 98z" />
<glyph unicode="&#xb5;" horiz-adv-x="757" d="M461 772q74 0 74 -67q0 -51 -63.5 -212t-65.5 -202q0 -61 55 -62q92 0 213 293q18 70 18 95.5t35 79t66 53.5q4 0 12 -5l39 -4q6 6 18 -18l23 -53q2 -10 2 -33q0 -82 -57.5 -210t-57.5 -196.5t57 -113.5q27 -23 27 -68q-12 -33 -48 -57.5t-65.5 -24.5t-57.5 39t-38 77 t-10 73v39q-12 -27 -91 -94.5t-131.5 -67.5t-84.5 39q-123 -401 -154 -441l-8 -6q-18 -18 -35 -18q-33 0 -55.5 47t-22.5 72.5t33 128.5q109 340 132.5 463.5t84.5 256.5q80 158 101 179q14 18 55 18z" />
<glyph unicode="&#xb6;" horiz-adv-x="868" d="M815 541q0 4 2 12t4 21.5t6 22.5t13 26q10 25 20 53l23 33q-10 0 11 43t24.5 55t6.5 29.5t7 31.5q59 125 78 156q25 78 24 96q-86 18 -96 -18l-49 -84q-10 -27 -39 -90.5t-35 -83.5q-35 -70 -57 -129q-35 -70 -47 -117q-4 -8 -57.5 -139t-82.5 -176q-4 -12 -9 -39t-7 -33 t-106 -293q-16 -25 -28.5 -31t-49.5 0q-88 76 -64 109q0 2 23 65q49 174 104 263q4 12 12 45q20 74 62 129l31 98q-10 2 -43 2t-78 8q-133 49 -109 232q2 6 11.5 36.5t12.5 40t13 36t17.5 40t19.5 33.5q23 37 57 61q152 109 312 172q82 0 182 15q328 -27 311 -107 q-8 -39 -15 -49t-35 -74.5t-52.5 -110.5t-63.5 -155q-27 -49 -55 -131q-14 -25 -27 -47q-8 -53 -63 -160q-61 -145 -70 -192q-6 -12 -29.5 -69.5t-39.5 -86.5l-25 -86h-94q-4 2 -14 6q-25 10 -35 23q-6 23 4 80q35 66 39 67q8 6 11 35t34 76l16 53q0 12 23.5 57t31.5 78 q23 62 29 62z" />
<glyph unicode="&#xb7;" horiz-adv-x="382" d="M360 723q25 16 64 5t59 -44q37 -80 -34 -166q-31 -41 -77 -53t-73 12q-10 8 -20 39q-23 63 -11 76q16 2 45 43t28 62.5t19 25.5z" />
<glyph unicode="&#xb8;" horiz-adv-x="722" d="M360 123l115 -62q-115 -55 -115 -96q12 -18 41 -51q59 -72 68 -107q18 -70 -29 -130t-114.5 -73.5t-231.5 42.5q-31 10 -44 47t8.5 62.5t76.5 8.5q133 -45 162 -30q14 8 22 24q16 29 -30 84q-10 10 -22.5 24.5t-51.5 51.5q-20 29 -22.5 52.5t36.5 65.5t131 87z" />
<glyph unicode="&#xb9;" horiz-adv-x="655" d="M732 1478q7 5 43 33.5t100.5 60.5t75 28.5t43 -33t37.5 -49t-23.5 -98.5t-70.5 -224t-46 -153.5t-4 -18.5q-16 -45 -29 -104q-35 -84 -51 -183q-33 -94 -41 -102q-16 -59 -98 -14q-27 18 -31 26q-20 49 -4 105l37 157q10 4 47 135.5t57 180.5q10 27 45 133 q-12 -8 -41.5 -38t-52.5 -48q-53 -35 -72 -49q-55 -49 -61 -54q-72 -66 -107 -41q-27 23 -44 60t-7 55q6 2 70.5 54.5t70.5 54.5t46 34h-3q16 16 55.5 46t45.5 35.5t13 10.5z" />
<glyph unicode="&#xba;" horiz-adv-x="579" d="M770 1042q10 27 10 72t-10 51h2q-39 25 -97.5 -32.5t-129.5 -233.5q-14 -61 -15 -72q0 -51 31 -51q49 0 111 74q63 81 98 192zM367 852q4 4 4 6l12 4q-4 10 -6 17q2 25 20.5 85t61.5 137t114.5 146.5t171.5 95.5q39 14 57.5 11.5t43.5 -29.5q37 -20 67.5 -69.5 t34.5 -96.5q12 -141 -86 -303q-63 -98 -182 -182h2q-74 -57 -156 -64q-45 0 -125 80q-27 31 -33 52.5t1 58.5v37l4 -2q-10 10 -2 18z" />
<glyph unicode="&#xbb;" horiz-adv-x="1449" d="M803 39q6 29 27.5 47t191.5 172t187.5 183.5t13.5 54.5q-55 123 -279 247q-90 45 -128 106.5t3 72.5q119 10 197 -25q43 -25 61.5 -33t34.5 -17t24.5 -15.5t18.5 -14.5q20 -14 37 -35q111 -63 180 -190l49 -86l15 -62q-20 -4 -33.5 -38.5t-16.5 -34.5q-35 -43 -245 -224 q-70 -51 -152 -133q-41 -45 -53 -45q-8 -4 -43 19.5t-51 27.5q-37 9 -39 23zM350 39q6 29 27.5 47t46.5 41q29 27 171 156t159.5 158.5t13.5 54.5q-55 123 -279 247q-90 45 -126.5 106.5t4.5 72.5q117 10 194 -25q43 -25 61.5 -33t35 -17t24.5 -15.5t18 -14.5q20 -14 37 -35 q111 -63 181 -190l49 -86l14 -62q-20 -4 -33.5 -38.5t-15.5 -34.5q-39 -47 -244 -224q-70 -51 -151 -133q-41 -45 -54 -45q-8 -4 -42.5 19.5t-51.5 27.5q-37 9 -39 23z" />
<glyph unicode="&#xbc;" horiz-adv-x="1638" d="M1743 805h12q37 0 41 -39v12q57 -57 45 -92q-2 -8 -88 -212t-117.5 -309.5t-38 -134t4.5 -59.5q2 -53 -56 -84q-59 -33 -84 9q-41 31 -20 137q6 49 17 97t14 58l26 76q-14 -4 -45 -16q-43 -10 -74.5 -10t-68.5 16q-55 25 -74 106q-12 45 0 60q43 109 45 114t2 13 q14 33 88 145q76 121 96 142q18 12 52 22t49 0q20 -18 27.5 -52t0.5 -42q-2 -8 -34 -62l-21 -18h2q-88 -137 -133 -233q-20 -57 -18 -60q20 -2 53 8q47 14 61.5 14.5t26.5 8.5q25 0 25 10h8q0 4 2 31l14 39l25 45q33 72 41 86q53 141 57 148t9 12.5t9 7.5q7 6 19 6z M572.5 1273q7.5 5 43 33.5t100 60.5t75 29t43 -33t38 -49.5t-23.5 -98t-71 -224t-46 -154t-4 -18.5q-16 -45 -29 -104q-35 -84 -51 -183q-33 -94 -41 -102q-16 -59 -98 -14q-27 18 -31 26q-20 49 -4 105l37 158q10 4 47 136t57 179q10 31 45 133q-12 -8 -41.5 -38t-52.5 -48 q-53 -35 -71 -49q-55 -49 -62 -53q-72 -66 -106 -41q-27 23 -44.5 59.5t-7.5 54.5q6 2 71 54.5t71 54.5t45 35h-2q16 16 55 45.5t45 35t13.5 10.5zM1659 1386q14 8 33 0q31 -35 49 -63q25 -37 -10 -90q-23 -33 -43 -49q-72 -57 -237 -217t-165 -164q-20 -16 -43 -45 q-143 -127 -147 -144q-14 -18 -25 -22l-14 -12q0 -18 -68 -82q-334 -403 -352.5 -447.5t-44 -67t-43.5 -26.5q-68 6 -79 63.5t62 167.5q41 45 48 62q37 51 327 379q8 -2 18.5 7t20.5 35.5t37 30.5q2 6 12.5 17.5t11.5 16.5t9 12.5t10 13.5q53 45 317.5 316.5t274.5 291.5 q8 26 41 16z" />
<glyph unicode="&#xbd;" horiz-adv-x="1638" d="M1116 141q43 51 43 62l29 20h-4l43 43h-2q35 53 39 61.5t16 22.5q86 86 90 105q12 16 25 22l39 35q4 10 47 53q25 59 27.5 64.5t-3.5 7.5q-35 12 -79 12t-89 -31q-23 -4 -45 -16t-41 -8l-49 63l-24 58l75 33q154 94 224 65l45 -8q25 -4 68.5 -37t66 -74t22.5 -88 t-59 -131q-14 -18 -90 -103t-94 -104q-31 -20 -75 -66t-40 -46l6 -4q12 12 88 25t96 7q43 12 136 -18q16 -6 22 -17.5t17.5 -21.5t21.5 -23.5t16.5 -30t-4.5 -24.5q-29 -23 -121 -10l-118 -12h-13q-43 6 -94 -12.5t-137 -34t-99.5 -10.5t-37 31t-31.5 42q0 12 19.5 55 t27.5 43zM572.5 1273q7.5 5 43 33.5t100 60.5t75 29t43 -33t38 -49.5t-23.5 -98t-71 -224t-46 -154t-4 -18.5q-16 -45 -29 -104q-35 -84 -51 -183q-33 -94 -41 -102q-16 -59 -98 -14q-27 18 -31 26q-20 49 -4 105l37 158q10 4 47 136t57 179q10 31 45 133q-12 -8 -41.5 -38 t-52.5 -48q-53 -35 -71 -49q-55 -49 -62 -53q-72 -66 -106 -41q-27 23 -44.5 59.5t-7.5 54.5q6 2 71 54.5t71 54.5t45 35h-2q16 16 55 45.5t45 35t13.5 10.5zM1597 1386q14 8 33 0q31 -35 49 -63q25 -37 -10 -90q-23 -33 -43 -49q-72 -57 -236.5 -217t-164.5 -164 q-20 -16 -43 -45q-143 -127 -148 -144q-14 -18 -24 -22l-15 -12q0 -18 -67 -82q-334 -403 -352.5 -447.5t-44 -67t-44.5 -26.5q-68 6 -79 63.5t63 167.5q41 45 47 62q37 51 328 379q8 -2 18 7t20.5 35.5t37.5 30.5q2 6 12 17.5t11 16.5t9.5 12.5t10.5 13.5q53 45 317 316.5 t274 291.5q8 26 41 16z" />
<glyph unicode="&#xbe;" horiz-adv-x="1638" d="M1681 805h13q35 0 41 -37v10q57 -57 45 -92q-2 -8 -88 -212t-118 -309.5t-38 -134t4 -59.5q2 -53 -55 -84q-59 -33 -84 9q-41 31 -21 137q6 49 17.5 97t13.5 58l27 76q-14 -4 -45 -16q-43 -10 -75 -10t-69 16q-55 25 -73 106q-12 45 0 60q43 109 45 114t2 13 q14 33 88 145q76 121 96 142q18 12 52 22t48 0q20 -18 27.5 -52t1.5 -42q-2 -8 -35 -62l-20 -18h2q-88 -137 -133 -233q-20 -57 -19 -60q20 -2 53 8q47 14 61.5 14.5t27.5 8.5q25 0 24 10h8q0 4 2 31l15 39l24 45q33 72 41 86q53 141 57.5 148t9.5 12.5t9 7.5q6 6 18 6z M1679 1386q14 8 33 0q31 -35 49 -63q25 -37 -10 -90q-23 -33 -43 -49q-72 -57 -236.5 -217t-164.5 -164q-20 -16 -43 -45q-143 -127 -148 -144q-14 -18 -24 -22l-15 -12q0 -18 -67 -82q-334 -403 -352.5 -447.5t-44 -67t-44.5 -26.5q-68 6 -79 63.5t63 167.5q41 45 47 62 q37 51 328 379q8 -2 18 7t20.5 35.5t37.5 30.5q2 6 12 17.5t11 16.5t9 12.5t11 13.5q53 45 317 316.5t274 291.5q8 26 41 16zM625 711v22q0 35 -101 74q-53 20 -88 24q-4 -2 -8 -2t-8 1t-7 2.5t-8.5 4.5t-8.5 5t-10 7t-12 9t-10.5 16.5t-9.5 26.5q-4 10 -14 27 q-4 31 164 133q154 92 176 115h-2q8 12 15 20t-1 8q-76 10 -84 0q-12 4 -58 -5t-48 -15t-48 -13.5t-56.5 -5.5t-28 46t-17.5 63q8 12 50 43t69 43q78 20 207 14h2q72 -8 127 -51t65 -102q12 -61 -73 -148q-31 -20 -49 -31q-47 -23 -91 -61l-14 -10l-65 -29l102 -37 q49 -27 88 -94q14 -23 18 -29q20 -55 20.5 -100t-38.5 -102q-106 -158 -334 -172q-94 0 -142 31.5t-45 68.5t26.5 59.5t64.5 18.5q176 -43 250 43q35 39 35 82z" />
<glyph unicode="&#xbf;" horiz-adv-x="765" d="M766 846q-39 -27 -59.5 -28t-59.5 16q-70 43 -61.5 95t90.5 93q80 31 135 -12q82 -80 -45 -164zM500 -76l-11 72q2 0 16.5 5t27 7t30.5 4q35 0 66 -24q39 -51 42 -62.5t4 -17.5t0 -21.5t-1 -25.5q-66 -199 -193 -264l-116 -62q-18 0 -68 -6q-8 2 -18 0q-25 -2 -25 8h-59 q-37 10 -92.5 46t-77.5 61q-31 92 8 253.5t119 249.5q2 2 73.5 68t98.5 94q66 37 120 112t82 157q39 82 103 81q31 -2 46 -24.5t15 -50.5q10 -55 2 -76t-19 -45.5t-18 -42.5q-23 -39 -68.5 -91.5t-80.5 -76.5l-35 -25q0 -8 -28.5 -30.5t-49.5 -32.5q-47 -33 -67 -51 q-63 -66 -84 -119t-47 -187q-2 -66 6 -85t35 -39q170 -31 256 161q16 49 8 80z" />
<glyph unicode="&#xc0;" horiz-adv-x="1028" d="M1036 1769q39 -14 87 -123.5t49.5 -128t-12 -38t-30.5 -23.5q-25 -16 -34 -10t-21 43q-8 16 -47 76q-88 131 -59 166q49 42 67 38zM922 662h4q6 18 32.5 206.5t28.5 253.5l-6 103q-18 0 -84 -97.5t-127 -220.5q-47 -84 -65 -84q-14 -14 -61.5 -96t-37.5 -90q82 16 133 18 q131 35 164 21q11 -14 19 -14zM842 1358q45 61 99 61t120 -49q86 -61 94 -121q2 -12 2 -34.5t-1 -45t-4 -57.5t-5 -60.5t-6 -68.5t-6 -76t-25 -248q-45 -442 -35 -628q2 -14 0 -37t-2 -25q-18 -20 -94 -8t-82 41q-10 8 -10 18l18 478l-26 -2q-41 0 -173.5 -16.5 t-166.5 -26.5q-43 0 -93 -88q-12 -31 -31.5 -65t-19.5 -38l-33 -39q0 -23 -39.5 -116t-78.5 -152l-56 -78l-71 55q-33 16 -39 36t11 62t55 114.5t57 109.5q88 168 88 248q-8 31 30 49q2 2 25 18q57 43 80 82q43 100 209 381q98 181 209 326z" />
<glyph unicode="&#xc1;" horiz-adv-x="1028" d="M1163 1751q35 20 84 -57q8 -20 -28.5 -57.5t-91 -81.5t-70.5 -66q-20 -35 -31.5 -39t-36.5 12q-14 12 -21 40t-4 43.5t86.5 105.5t112.5 100zM922 662h4q6 18 32.5 206.5t28.5 253.5l-6 103q-18 0 -84 -97.5t-127 -220.5q-47 -84 -65 -84q-14 -14 -61.5 -96t-37.5 -90 q82 16 133 18q131 35 164 21q11 -14 19 -14zM842 1358q45 61 99 61t120 -49q86 -61 94 -121q2 -12 2 -34.5t-1 -45t-4 -57.5t-5 -60.5t-6 -68.5t-6 -76t-25 -248q-45 -442 -35 -628q2 -14 0 -37t-2 -25q-18 -20 -94 -8t-82 41q-10 8 -10 18l18 478l-26 -2 q-41 0 -173.5 -16.5t-166.5 -26.5q-43 0 -93 -88q-12 -31 -31.5 -65t-19.5 -38l-33 -39q0 -23 -39.5 -116t-78.5 -152l-56 -78l-71 55q-33 16 -39 36t11 62t55 114.5t57 109.5q88 168 88 248q-8 31 30 49q2 2 25 18q57 43 80 82q43 100 209 381q98 181 209 326z" />
<glyph unicode="&#xc2;" horiz-adv-x="1028" d="M795 1515.5q4 18.5 18 37t83 78t108 79.5q39 33 63 -4q33 -27 91.5 -86t76.5 -84t-8 -61q-29 -41 -84 26q-41 49 -111 109q-35 -20 -101.5 -77.5t-85 -64t-29.5 0t-18 17.5t-3 29.5zM922 662h4q6 18 32.5 206.5t28.5 253.5l-6 103q-18 0 -84 -97.5t-127 -220.5 q-47 -84 -65 -84q-14 -14 -61.5 -96t-37.5 -90q82 16 133 18q131 35 164 21q11 -14 19 -14zM842 1358q45 61 99 61t120 -49q86 -61 94 -121q2 -12 2 -34.5t-1 -45t-4 -57.5t-5 -60.5t-6 -68.5t-6 -76t-25 -248q-45 -442 -35 -628q2 -14 0 -37t-2 -25q-18 -20 -94 -8t-82 41 q-10 8 -10 18l18 478l-26 -2q-41 0 -173.5 -16.5t-166.5 -26.5q-43 0 -93 -88q-12 -31 -31.5 -65t-19.5 -38l-33 -39q0 -23 -39.5 -116t-78.5 -152l-56 -78l-71 55q-33 16 -39 36t11 62t55 114.5t57 109.5q88 168 88 248q-8 31 30 49q2 2 25 18q57 43 80 82q43 100 209 381 q98 181 209 326z" />
<glyph unicode="&#xc3;" horiz-adv-x="1028" d="M1331 1569q-135 -76 -155.5 -76t-33 2t-19.5 4t-21.5 10.5t-18.5 10.5t-22.5 15t-21.5 15t-44 37t-62.5 35t-47 -35t-45.5 -37q-4 -27 -21 -32q-20 4 -34.5 19t-12.5 34.5t35 64.5t94 76q27 10 70 -1t64.5 -29.5t39 -36t23.5 -22.5t19 -14.5t22 -11.5q33 -4 97 33 t88 46.5t40 -9t14 -34t-16.5 -36t-30.5 -28.5zM922 662h4q6 18 32.5 206.5t28.5 253.5l-6 103q-18 0 -84 -97.5t-127 -220.5q-47 -84 -65 -84q-14 -14 -61.5 -96t-37.5 -90q82 16 133 18q131 35 164 21q11 -14 19 -14zM842 1358q45 61 99 61t120 -49q86 -61 94 -121 q2 -12 2 -34.5t-1 -45t-4 -57.5t-5 -60.5t-6 -68.5t-6 -76t-25 -248q-45 -442 -35 -628q2 -14 0 -37t-2 -25q-18 -20 -94 -8t-82 41q-10 8 -10 18l18 478l-26 -2q-41 0 -173.5 -16.5t-166.5 -26.5q-43 0 -93 -88q-12 -31 -31.5 -65t-19.5 -38l-33 -39q0 -23 -39.5 -116 t-78.5 -152l-56 -78l-71 55q-33 16 -39 36t11 62t55 114.5t57 109.5q88 168 88 248q-8 31 30 49q2 2 25 18q57 43 80 82q43 100 209 381q98 181 209 326z" />
<glyph unicode="&#xc4;" horiz-adv-x="1028" d="M936 1696q33 33 58.5 19.5t35.5 -46.5q16 -31 12 -50.5t-32 -55.5q-70 -94 -121 8q-10 20 -6 31q18 63 41 81zM1198 1696q33 33 58.5 19.5t35.5 -46.5q16 -31 12 -50.5t-32 -55.5q-70 -94 -121 8q-10 20 -6 31q18 63 41 81zM922 662h4q6 18 32.5 206.5t28.5 253.5l-6 103 q-18 0 -84 -97.5t-127 -220.5q-47 -84 -65 -84q-14 -14 -61.5 -96t-37.5 -90q82 16 133 18q131 35 164 21q11 -14 19 -14zM842 1358q45 61 99 61t120 -49q86 -61 94 -121q2 -12 2 -34.5t-1 -45t-4 -57.5t-5 -60.5t-6 -68.5t-6 -76t-25 -248q-45 -442 -35 -628q2 -14 0 -37 t-2 -25q-18 -20 -94 -8t-82 41q-10 8 -10 18l18 478l-26 -2q-41 0 -173.5 -16.5t-166.5 -26.5q-43 0 -93 -88q-12 -31 -31.5 -65t-19.5 -38l-33 -39q0 -23 -39.5 -116t-78.5 -152l-56 -78l-71 55q-33 16 -39 36t11 62t55 114.5t57 109.5q88 168 88 248q-8 31 30 49 q2 2 25 18q57 43 80 82q43 100 209 381q98 181 209 326z" />
<glyph unicode="&#xc5;" horiz-adv-x="1028" d="M1100 1667q-78 0 -78 -102q0 -23 17.5 -46.5t33.5 -23.5q82 0 79 86t-52 86zM984 1686.5q40 64.5 105.5 64.5t108.5 -30.5t43 -100.5t-44 -138.5t-116 -68.5q-123 0 -137 143q0 66 40 130.5zM922 662h4q6 18 32.5 206.5t28.5 253.5l-6 103q-18 0 -84 -97.5t-127 -220.5 q-47 -84 -65 -84q-14 -14 -61.5 -96t-37.5 -90q82 16 133 18q131 35 164 21q11 -14 19 -14zM842 1358q45 61 99 61t120 -49q86 -61 94 -121q2 -12 2 -34.5t-1 -45t-4 -57.5t-5 -60.5t-6 -68.5t-6 -76t-25 -248q-45 -442 -35 -628q2 -14 0 -37t-2 -25q-18 -20 -94 -8t-82 41 q-10 8 -10 18l18 478l-26 -2q-41 0 -173.5 -16.5t-166.5 -26.5q-43 0 -93 -88q-12 -31 -31.5 -65t-19.5 -38l-33 -39q0 -23 -39.5 -116t-78.5 -152l-56 -78l-71 55q-33 16 -39 36t11 62t55 114.5t57 109.5q88 168 88 248q-8 31 30 49q2 2 25 18q57 43 80 82q43 100 209 381 q98 181 209 326z" />
<glyph unicode="&#xc6;" horiz-adv-x="1605" d="M1051 858q100 180 118 217q-23 23 -137 15q-6 10 -55 -41.5t-66.5 -74t-31.5 -44.5q-43 -63 -80 -117q-156 -205 -119 -225q219 12 252 10q2 8 11 16.5t26 57.5q0 23 12 51q31 51 31 68q31 44 39 67zM1468 166l62 18q16 23 31.5 23t34 -17.5t37 -48t18.5 -61.5t-240 -125 q-86 -37 -120 -47t-114.5 -10t-141 11t-107.5 48q-145 109 -76 371q10 51 22 90h-4q-39 -6 -315 10l-33 -43q-43 -51 -96 -152.5t-102 -158.5q-72 -111 -108 -111t-56 19q-96 45 -4 155l32 43q2 12 78 130t94 126q43 41 5 78q-10 10 -13.5 35.5t22 51.5t70.5 24 q43 20 44 29.5t43 73t73 95.5q18 37 70 115q14 14 41.5 55t40.5 58q23 18 108 118q8 14 84 105q88 86 330 4q113 47 250 57q18 12 100 15.5t154 -2.5q47 0 125 -37q2 -2 11 -10.5t14 -13.5t12.5 -15t10.5 -17.5t3 -17.5q0 -16 -27 -31q-14 -14 -135 -14t-192.5 -12.5 t-77.5 -12.5q-33 -12 -88 -12h-19q-8 0 -47 -77t-40 -97t-38 -74q-70 -96 -32 -119q184 29 276 29q51 14 90 -8q35 -8 33 -45t-25 -47q-27 -29 -231.5 -77t-230.5 -42q-18 41 -44 -41l-20 -80q-37 -82 -45 -107.5t-25 -117.5q-33 -119 86 -174q84 -16 217 18q8 4 125 70z " />
<glyph unicode="&#xc7;" horiz-adv-x="987" d="M552 53q11 0 28.5 6.5t31 10.5t36 12t34.5 14t39 19q143 59 192 104q53 39 86 39q27 8 42.5 -16.5t15.5 -60.5t-39 -75.5t-92 -70.5q-23 -23 -101 -53q-141 -104 -282 -119q-25 -20 -25 -45q12 -18 39 -51q61 -72 70 -107q18 -70 -29 -130t-114.5 -73.5t-231.5 41.5 q-31 10 -44 47t8.5 62.5t76.5 9.5q133 -45 162 -31q14 8 22 25q16 29 -31 84q-10 10 -21 24.5t-52 51.5q-47 68 24 129q-100 59 -134 148t-30 241q0 182 64 346q2 4 28.5 68.5t36.5 84.5q35 80 123 207q115 174 177.5 238.5t201.5 161.5q47 35 116 43t138.5 -26t100.5 -109 q45 -82 -4.5 -243t-135.5 -241q-61 -39 -143 35q-25 45 -20.5 47t8.5 2q18 23 54 87.5t44 93t13 51t7 35t4.5 25.5t3.5 19.5t-1 14.5q0 10 -14.5 24.5t-71.5 -16.5q-100 -43 -240 -231q-178 -233 -221 -365l-23 -53q6 -33 -24 -94q-35 -143 -25 -265q10 -150 74 -174 q10 -4 23.5 -3t24.5 1z" />
<glyph unicode="&#xc8;" horiz-adv-x="1122" d="M1081 1769q39 -14 87.5 -123.5t49.5 -128t-12.5 -38t-29.5 -23.5q-25 -16 -34 -10t-22 43q-8 16 -47 76q-88 131 -59 166q49 42 67 38zM541 106l82 -6q49 0 86 17q160 27 225 73q10 4 19.5 14.5t17.5 10.5q-2 -4 -2 -5t39 32.5t85 44t73.5 3.5t29.5 -18q18 -33 -45 -112 q-188 -233 -623 -240q-59 6 -106 35t-59.5 37t-42 28.5t-35.5 24.5q-61 61 -84 180q-12 53 10 162t51 170q45 109 199 348l12 17q0 14 59 127q51 55 29 86q-14 18 78 96q41 35 86 59q47 37 95 42t54 -19q18 -6 68.5 5t67.5 13q14 18 137 33l143 4q14 4 42 -18.5t43.5 -58.5 t-23.5 -63.5t-143.5 -39.5t-187.5 -29.5t-115 -24t-41 -8.5t-29.5 -9t-30.5 -15q-33 -31 -55 -66q-18 -12 -82 -139q-14 -20 -64.5 -87t-40.5 -79q55 -12 66 -12q16 8 98 22q279 72 320 78q27 20 56.5 -2t46.5 -70.5t-19.5 -71t-175 -54t-214 -52t-118.5 -31t-78 -12.5 t-51.5 6.5t-14.5 28.5q-23 10 -51 -51q-51 -109 -51 -221q0 -31 6 -47q35 -101 158 -136z" />
<glyph unicode="&#xc9;" horiz-adv-x="1122" d="M1208 1751q35 20 84 -57q8 -20 -28.5 -57.5t-91 -81.5t-70.5 -66q-20 -35 -31.5 -39t-36.5 12q-14 12 -21 40t-4 43.5t86.5 105.5t112.5 100zM541 106l82 -6q49 0 86 17q160 27 225 73q10 4 19.5 14.5t17.5 10.5q-2 -4 -2 -5t39 32.5t85 44t73.5 3.5t29.5 -18 q18 -33 -45 -112q-188 -233 -623 -240q-59 6 -106 35t-59.5 37t-42 28.5t-35.5 24.5q-61 61 -84 180q-12 53 10 162t51 170q45 109 199 348l12 17q0 14 59 127q51 55 29 86q-14 18 78 96q41 35 86 59q47 37 95 42t54 -19q18 -6 68.5 5t67.5 13q14 18 137 33l143 4 q14 4 42 -18.5t43.5 -58.5t-23.5 -63.5t-143.5 -39.5t-187.5 -29.5t-115 -24t-41 -8.5t-29.5 -9t-30.5 -15q-33 -31 -55 -66q-18 -12 -82 -139q-14 -20 -64.5 -87t-40.5 -79q55 -12 66 -12q16 8 98 22q279 72 320 78q27 20 56.5 -2t46.5 -70.5t-19.5 -71t-175 -54t-214 -52 t-118.5 -31t-78 -12.5t-51.5 6.5t-14.5 28.5q-23 10 -51 -51q-51 -109 -51 -221q0 -31 6 -47q35 -101 158 -136z" />
<glyph unicode="&#xca;" horiz-adv-x="1122" d="M922 1515.5q4 18.5 18 37t83 78t107 79.5q39 33 64 -4q33 -27 91 -86t76.5 -84t-7.5 -61q-29 -41 -84 26q-41 49 -111 109q-35 -20 -101.5 -77.5t-85 -64t-29.5 0t-18 17.5t-3 29.5zM541 106l82 -6q49 0 86 17q160 27 225 73q10 4 19.5 14.5t17.5 10.5q-2 -4 -2 -5 t39 32.5t85 44t73.5 3.5t29.5 -18q18 -33 -45 -112q-188 -233 -623 -240q-59 6 -106 35t-59.5 37t-42 28.5t-35.5 24.5q-61 61 -84 180q-12 53 10 162t51 170q45 109 199 348l12 17q0 14 59 127q51 55 29 86q-14 18 78 96q41 35 86 59q47 37 95 42t54 -19q18 -6 68.5 5 t67.5 13q14 18 137 33l143 4q14 4 42 -18.5t43.5 -58.5t-23.5 -63.5t-143.5 -39.5t-187.5 -29.5t-115 -24t-41 -8.5t-29.5 -9t-30.5 -15q-33 -31 -55 -66q-18 -12 -82 -139q-14 -20 -64.5 -87t-40.5 -79q55 -12 66 -12q16 8 98 22q279 72 320 78q27 20 56.5 -2t46.5 -70.5 t-19.5 -71t-175 -54t-214 -52t-118.5 -31t-78 -12.5t-51.5 6.5t-14.5 28.5q-23 10 -51 -51q-51 -109 -51 -221q0 -31 6 -47q35 -101 158 -136z" />
<glyph unicode="&#xcb;" horiz-adv-x="1122" d="M981 1696q33 33 58.5 19.5t35.5 -46.5q16 -31 12 -50.5t-32 -55.5q-70 -94 -121 8q-10 20 -6 31q18 63 41 81zM1243 1696q33 33 58.5 19.5t35.5 -46.5q16 -31 12.5 -50.5t-32.5 -55.5q-70 -94 -121 8q-10 20 -6 31q18 63 41 81zM541 106l82 -6q49 0 86 17q160 27 225 73 q10 4 19.5 14.5t17.5 10.5q-2 -4 -2 -5t39 32.5t85 44t73.5 3.5t29.5 -18q18 -33 -45 -112q-188 -233 -623 -240q-59 6 -106 35t-59.5 37t-42 28.5t-35.5 24.5q-61 61 -84 180q-12 53 10 162t51 170q45 109 199 348l12 17q0 14 59 127q51 55 29 86q-14 18 78 96q41 35 86 59 q47 37 95 42t54 -19q18 -6 68.5 5t67.5 13q14 18 137 33l143 4q14 4 42 -18.5t43.5 -58.5t-23.5 -63.5t-143.5 -39.5t-187.5 -29.5t-115 -24t-41 -8.5t-29.5 -9t-30.5 -15q-33 -31 -55 -66q-18 -12 -82 -139q-14 -20 -64.5 -87t-40.5 -79q55 -12 66 -12q16 8 98 22 q279 72 320 78q27 20 56.5 -2t46.5 -70.5t-19.5 -71t-175 -54t-214 -52t-118.5 -31t-78 -12.5t-51.5 6.5t-14.5 28.5q-23 10 -51 -51q-51 -109 -51 -221q0 -31 6 -47q35 -101 158 -136z" />
<glyph unicode="&#xcc;" horiz-adv-x="819" d="M872 1769q41 -14 89.5 -123.5t49.5 -128t-12.5 -38t-29.5 -23.5q-25 -16 -34 -10t-22 43q-8 16 -49 76q-86 131 -57 166q49 42 65 38zM481 -75.5q0 -20.5 -18.5 -33t-48 -6.5t-52.5 31q-27 37 -155 31q-43 -6 -87 14.5t-36 46.5q2 27 60.5 54.5t140.5 29.5l86 2 q27 51 36 92t16 67t36 116q68 209 76 249q31 66 67 220q94 287 78 292q-20 2 -108.5 -7t-98.5 -15q-10 -14 -34.5 4t-30.5 41q-8 45 12 57q20 18 105 41t164 32t120 44q43 14 72 12q25 -16 141 -8q188 18 221 -53q10 -39 -4 -64.5t-49 -23.5q-37 -10 -137 -12 q-135 -12 -146 -29q-6 -6 -14 -18.5t-12 -16.5q2 -18 -21.5 -88t-48.5 -149q-66 -201 -80 -230q-2 -8 -156 -551q51 4 167 15.5t124 5.5t17 -29q41 -55 -6.5 -92t-159.5 -35q-162 -6 -199 -11t-37 -25.5z" />
<glyph unicode="&#xcd;" horiz-adv-x="819" d="M1001 1751q35 20 84 -57q8 -20 -28.5 -57.5t-91 -81.5t-70.5 -66q-20 -35 -31.5 -39t-36.5 12q-14 12 -21 40t-4 43.5t86.5 105.5t112.5 100zM481 -75.5q0 -20.5 -18.5 -33t-48 -6.5t-52.5 31q-27 37 -155 31q-43 -6 -87 14.5t-36 46.5q2 27 60.5 54.5t140.5 29.5l86 2 q27 51 36 92t16 67t36 116q68 209 76 249q31 66 67 220q94 287 78 292q-20 2 -108.5 -7t-98.5 -15q-10 -14 -34.5 4t-30.5 41q-8 45 12 57q20 18 105 41t164 32t120 44q43 14 72 12q25 -16 141 -8q188 18 221 -53q10 -39 -4 -64.5t-49 -23.5q-37 -10 -137 -12 q-135 -12 -146 -29q-6 -6 -14 -18.5t-12 -16.5q2 -18 -21.5 -88t-48.5 -149q-66 -201 -80 -230q-2 -8 -156 -551q51 4 167 15.5t124 5.5t17 -29q41 -55 -6.5 -92t-159.5 -35q-162 -6 -199 -11t-37 -25.5z" />
<glyph unicode="&#xce;" horiz-adv-x="819" d="M715 1515.5q4 18.5 18.5 37t83 78t107.5 79.5q39 33 63 -4q33 -27 91.5 -86t77 -84t-8.5 -61q-29 -41 -84 26q-41 49 -111 109q-35 -20 -101.5 -77.5t-84.5 -64t-29.5 0t-18.5 17.5t-3 29.5zM481 -75.5q0 -20.5 -18.5 -33t-48 -6.5t-52.5 31q-27 37 -155 31 q-43 -6 -87 14.5t-36 46.5q2 27 60.5 54.5t140.5 29.5l86 2q27 51 36 92t16 67t36 116q68 209 76 249q31 66 67 220q94 287 78 292q-20 2 -108.5 -7t-98.5 -15q-10 -14 -34.5 4t-30.5 41q-8 45 12 57q20 18 105 41t164 32t120 44q43 14 72 12q25 -16 141 -8q188 18 221 -53 q10 -39 -4 -64.5t-49 -23.5q-37 -10 -137 -12q-135 -12 -146 -29q-6 -6 -14 -18.5t-12 -16.5q2 -18 -21.5 -88t-48.5 -149q-66 -201 -80 -230q-2 -8 -156 -551q51 4 167 15.5t124 5.5t17 -29q41 -55 -6.5 -92t-159.5 -35q-162 -6 -199 -11t-37 -25.5z" />
<glyph unicode="&#xcf;" horiz-adv-x="819" d="M774 1696q33 33 58.5 19.5t35.5 -46.5q16 -31 12.5 -50.5t-32.5 -55.5q-70 -94 -121 8q-10 20 -6 31q18 63 41 81zM1036 1696q33 33 58.5 19.5t35.5 -46.5q16 -31 12.5 -50.5t-32.5 -55.5q-70 -94 -121 8q-10 20 -6 31q18 63 41 81zM481 -75.5q0 -20.5 -18.5 -33 t-48 -6.5t-52.5 31q-27 37 -155 31q-43 -6 -87 14.5t-36 46.5q2 27 60.5 54.5t140.5 29.5l86 2q27 51 36 92t16 67t36 116q68 209 76 249q31 66 67 220q94 287 78 292q-20 2 -108.5 -7t-98.5 -15q-10 -14 -34.5 4t-30.5 41q-8 45 12 57q20 18 105 41t164 32t120 44 q43 14 72 12q25 -16 141 -8q188 18 221 -53q10 -39 -4 -64.5t-49 -23.5q-37 -10 -137 -12q-135 -12 -146 -29q-6 -6 -14 -18.5t-12 -16.5q2 -18 -21.5 -88t-48.5 -149q-66 -201 -80 -230q-2 -8 -156 -551q51 4 167 15.5t124 5.5t17 -29q41 -55 -6.5 -92t-159.5 -35 q-162 -6 -199 -11t-37 -25.5z" />
<glyph unicode="&#xd0;" horiz-adv-x="1183" d="M362 -12q-2 -8 -2 -19q37 -16 64 -12t74 6q109 4 141 31q113 74 215 162q4 10 43 24q10 10 62.5 64.5t60.5 60.5q2 10 7 27.5t5 25.5q25 27 74 128.5t68 175.5q74 322 -134 499q-43 37 -140 80t-107.5 40t-23.5 -35t-35.5 -92t-44 -119.5t-53.5 -149.5t-52 -148 q86 -2 133 -41q31 -31 14.5 -64.5t-61.5 -27.5l-133 -8q-43 -133 -43 -137q-59 -92 -88 -312q-4 -18 -9.5 -38.5t-8.5 -35t-6 -28.5t-6 -24.5t-5 -18.5q-5 -14 -9 -14zM322 709l71 14q57 195 90 256q4 10 15 47q25 90 59 178l14 68l-22 10q-37 -12 -55 0q-18 -6 -50 20.5 t-36 47.5l-7 34q4 25 124 52.5t223.5 18.5t259.5 -64q106 -41 218.5 -156t143.5 -242q12 -45 17.5 -114.5t-9 -97t3.5 -33.5q-4 -8 -17 -53.5t-19 -61.5q-6 -74 -48.5 -181.5t-78.5 -170.5q-12 -2 -15 -9q0 -10 -22 -39q-6 -4 -25.5 -29.5t-28.5 -31.5q-2 -14 -12 -23.5 t-18 -9.5q0 -6 -6 -8q-37 -53 -146.5 -146.5t-185.5 -123.5q-10 -8 -86 -43q-12 -12 -120 -21.5t-128 -13.5q-78 -12 -213 24q-31 6 -45 22.5t-17.5 20t-12.5 16.5t-15 19q-35 45 -26 106.5t63 69.5q14 2 39 -8q0 57 11 101.5t140 431.5q-31 0 -59 10q-51 0 -74 39 q-20 31 4.5 48.5t100.5 25.5z" />
<glyph unicode="&#xd1;" horiz-adv-x="1159" d="M1280 1569q-135 -76 -155.5 -76t-33 2t-19.5 4t-21.5 10.5t-18.5 10.5t-22.5 15t-21.5 15t-44 37t-62.5 35t-47 -35t-46.5 -37q-4 -27 -20 -32q-20 4 -34.5 19t-12.5 34.5t34.5 64.5t94.5 76q27 10 70 -1t64.5 -29.5t38.5 -36t23.5 -22.5t19.5 -14.5t19 -11.5 q35 -4 99.5 33t88 46.5t40 -9t14.5 -34t-16.5 -36t-30.5 -28.5zM940 129q55 0 201 588q35 117 53 270q66 248 66 275v45q8 0 17 26.5t9 67.5t29 69q33 55 92 37t67.5 -64t-55.5 -317q0 -25 -25.5 -136t-33.5 -159q-20 -133 -37 -129q-84 -360 -215 -659 q-51 -117 -126 -145.5t-142 53.5q-61 80 -90 163t-48 238q-43 272 -38.5 469t-16.5 199q-18 0 -54 -104.5t-88 -234.5t-54 -138q-37 -74 -56 -150q-82 -217 -118.5 -357t-51 -178t-31 -48.5t-69.5 17.5t-62.5 83t11.5 113q14 55 53 148t55 177q70 162 113 297q2 10 102 229 q78 221 197 402q37 61 112.5 53t96.5 -69q41 -94 45 -406q0 -88 2 -127t6 -100q4 -100 27 -187q4 -29 14 -116q25 -195 43 -195z" />
<glyph unicode="&#xd2;" horiz-adv-x="1015" d="M1024 1769q41 -14 89 -123.5t49 -128t-12 -38t-30 -23.5q-25 -16 -34 -10t-21 43q-8 16 -49 76q-86 131 -58 166q50 42 66 38zM471 78q39 -20 87 -13t83 32.5t140.5 146.5t146.5 191.5t83 223t44 175t0 165.5q-4 98 -35 134q-68 72 -156 43q-59 -25 -174 -158t-112 -172 q0 -16 -11 -31q-53 -57 -108 -242q-70 -238 -62 -376q2 -82 74 -119zM813 1329q96 57 133 43q252 -55 301 -319q35 -168 7.5 -305.5t-158.5 -352.5q-160 -315 -374 -441t-347 -26q-162 119 -168 197q-12 113 29 317q12 12 10 32t4 40.5t18.5 60t20.5 80.5q92 279 227 457 q139 143 297 217z" />
<glyph unicode="&#xd3;" horiz-adv-x="1015" d="M1153 1751q35 20 84 -57q8 -20 -29 -57.5t-91 -81.5t-70 -66q-20 -35 -31.5 -39t-36.5 12q-14 12 -21.5 40t-4.5 43.5t87 105.5t113 100zM471 78q39 -20 87 -13t83 32.5t140.5 146.5t146.5 191.5t83 223t44 175t0 165.5q-4 98 -35 134q-68 72 -156 43q-59 -25 -174 -158 t-112 -172q0 -16 -11 -31q-53 -57 -108 -242q-70 -238 -62 -376q2 -82 74 -119zM813 1329q96 57 133 43q252 -55 301 -319q35 -168 7.5 -305.5t-158.5 -352.5q-160 -315 -374 -441t-347 -26q-162 119 -168 197q-12 113 29 317q12 12 10 32t4 40.5t18.5 60t20.5 80.5 q92 279 227 457q139 143 297 217z" />
<glyph unicode="&#xd4;" horiz-adv-x="1015" d="M866 1515.5q4 18.5 18.5 37t83 78t107.5 79.5q39 33 64 -4q33 -27 91 -86t76.5 -84t-8.5 -61q-29 -41 -84 26q-41 49 -110 109q-35 -20 -101.5 -77.5t-85 -64t-29.5 0t-18.5 17.5t-3.5 29.5zM471 78q39 -20 87 -13t83 32.5t140.5 146.5t146.5 191.5t83 223t44 175 t0 165.5q-4 98 -35 134q-68 72 -156 43q-59 -25 -174 -158t-112 -172q0 -16 -11 -31q-53 -57 -108 -242q-70 -238 -62 -376q2 -82 74 -119zM813 1329q96 57 133 43q252 -55 301 -319q35 -168 7.5 -305.5t-158.5 -352.5q-160 -315 -374 -441t-347 -26q-162 119 -168 197 q-12 113 29 317q12 12 10 32t4 40.5t18.5 60t20.5 80.5q92 279 227 457q139 143 297 217z" />
<glyph unicode="&#xd5;" horiz-adv-x="1015" d="M1321 1569q-135 -76 -155.5 -76t-33 2t-19.5 4t-21.5 10.5t-18.5 10.5t-22.5 15t-21.5 15t-44 37t-62.5 35t-47 -35t-46.5 -37q-4 -27 -20 -32q-20 4 -34.5 19t-12.5 34.5t34.5 64.5t94.5 76q27 10 70 -1t64.5 -29.5t38.5 -36t23.5 -22.5t19.5 -14.5t19 -11.5 q35 -4 99.5 33t88 46.5t40 -9t14.5 -34t-16.5 -36t-30.5 -28.5zM471 78q39 -20 87 -13t83 32.5t140.5 146.5t146.5 191.5t83 223t44 175t0 165.5q-4 98 -35 134q-68 72 -156 43q-59 -25 -174 -158t-112 -172q0 -16 -11 -31q-53 -57 -108 -242q-70 -238 -62 -376 q2 -82 74 -119zM813 1329q96 57 133 43q252 -55 301 -319q35 -168 7.5 -305.5t-158.5 -352.5q-160 -315 -374 -441t-347 -26q-162 119 -168 197q-12 113 29 317q12 12 10 32t4 40.5t18.5 60t20.5 80.5q92 279 227 457q139 143 297 217z" />
<glyph unicode="&#xd6;" horiz-adv-x="1015" d="M926 1696q33 33 58.5 19.5t35.5 -46.5q16 -31 12 -50.5t-33 -55.5q-70 -94 -120 8q-10 20 -7 31q18 63 41 81zM1188 1696q33 33 58.5 19.5t35.5 -46.5q16 -31 12 -50.5t-32 -55.5q-70 -94 -121 8q-10 20 -6 31q18 63 41 81zM471 78q39 -20 87 -13t83 32.5t140.5 146.5 t146.5 191.5t83 223t44 175t0 165.5q-4 98 -35 134q-68 72 -156 43q-59 -25 -174 -158t-112 -172q0 -16 -11 -31q-53 -57 -108 -242q-70 -238 -62 -376q2 -82 74 -119zM813 1329q96 57 133 43q252 -55 301 -319q35 -168 7.5 -305.5t-158.5 -352.5q-160 -315 -374 -441 t-347 -26q-162 119 -168 197q-12 113 29 317q12 12 10 32t4 40.5t18.5 60t20.5 80.5q92 279 227 457q139 143 297 217z" />
<glyph unicode="&#xd7;" d="M590 528q47 51 122.5 127t128 76t65 -34.5t-24.5 -61.5l-107 -123l-80 -84q88 -82 137 -131q25 -20 43 -57q39 -35 25 -82q-8 -72 -127 22q-37 25 -174 146l-133 -136q-20 -25 -57 -43q-35 -37 -82 -22q-72 8 22 125q29 45 144 174l-119 115q-80 80 -81 133t34.5 65.5 t62.5 -24.5q31 -31 121 -107q2 -4 12 -14q35 -31 68 -64z" />
<glyph unicode="&#xd8;" horiz-adv-x="1015" d="M555 815q-51 -53 -102.5 -220t-65.5 -308q303 471 338 506q8 -2 18.5 9t20.5 41.5t35 37.5q2 6 12 20t11 19.5t9.5 14.5t10.5 15q47 47 155 191q-59 66 -145 35q-59 -25 -174 -158t-113 -172q0 -17 -10 -31zM877 756q-8 4 -15 -15l-2 -4q0 -16 -63 -94 q-207 -303 -367 -549q51 -39 107.5 -30.5t91.5 34t140 146.5t146 191.5t95 256.5q4 12 19 70.5t15 92.5t-1 62.5t-1 51.5q-27 -27 -84 -102.5t-59 -81t-6 -11.5q-6 -16 -16 -18zM250 -207q-92 4 -78 105q8 59 61 145q-35 41 -38 82q-12 113 28 317q12 12 10 32t4.5 40.5 t18.5 60t20 80.5q92 279 228 457q139 143 297 217q96 57 133 43q100 -23 174 -84q80 113 84 125q8 31 43 19q6 4 34.5 4t39.5 -2q4 -12 24.5 -46t-6.5 -94q-12 -35 -31 -49q-61 -57 -92 -88q18 -47 31 -104q35 -168 7 -305.5t-159 -352.5q-160 -315 -373.5 -441t-347.5 -26 l-24 19q-37 -61 -43 -78q-20 -72 -45 -76z" />
<glyph unicode="&#xd9;" horiz-adv-x="987" d="M995 1769q39 -14 87 -123.5t49.5 -128t-12 -38t-29.5 -23.5q-25 -16 -34 -10t-22 43q-8 16 -47 76q-88 131 -59 166q49 42 67 38zM787.5 276q60.5 86 60.5 100.5t26 45.5q37 37 181 338q125 399 137 459.5t35 126.5q27 23 53.5 11.5t40.5 -19t29.5 -16.5t19.5 -11 q18 -23 8 -68q-53 -252 -88 -347t-60.5 -156.5t-38.5 -93.5t-45 -103.5t-44 -100.5v-12q-25 -14 -45.5 -52t-28.5 -42l-18 -47q-2 -12 -24.5 -25.5t-28 -28t-7.5 -18.5q-70 -104 -178 -200.5t-179 -124t-124 -15.5q-162 41 -207 203t21 483q31 150 105.5 357.5t155.5 350 t149.5 130.5t90 -71.5t-29.5 -92.5q-25 -27 -70 -115t-61 -118q-127 -365 -160 -549q-37 -170 -42 -202t-5 -87q4 -8 11 -20.5t10 -19.5t9 -15q6 -10 23 -17q74 -35 149 8q12 23 44 37q6 -8 9 -5t7 13q-2 10 18 31q31 12 91.5 98z" />
<glyph unicode="&#xda;" horiz-adv-x="987" d="M1122 1751q35 20 84 -57q8 -20 -28.5 -57.5t-91 -81.5t-70.5 -66q-20 -35 -31.5 -39t-36.5 12q-14 12 -21 40t-4 43.5t86.5 105.5t112.5 100zM787.5 276q60.5 86 60.5 100.5t26 45.5q37 37 181 338q125 399 137 459.5t35 126.5q27 23 53.5 11.5t40.5 -19t29.5 -16.5 t19.5 -11q18 -23 8 -68q-53 -252 -88 -347t-60.5 -156.5t-38.5 -93.5t-45 -103.5t-44 -100.5v-12q-25 -14 -45.5 -52t-28.5 -42l-18 -47q-2 -12 -24.5 -25.5t-28 -28t-7.5 -18.5q-70 -104 -178 -200.5t-179 -124t-124 -15.5q-162 41 -207 203t21 483q31 150 105.5 357.5 t155.5 350t149.5 130.5t90 -71.5t-29.5 -92.5q-25 -27 -70 -115t-61 -118q-127 -365 -160 -549q-37 -170 -42 -202t-5 -87q4 -8 11 -20.5t10 -19.5t9 -15q6 -10 23 -17q74 -35 149 8q12 23 44 37q6 -8 9 -5t7 13q-2 10 18 31q31 12 91.5 98z" />
<glyph unicode="&#xdb;" horiz-adv-x="987" d="M835.5 1515.5q4.5 18.5 18.5 37t83 78t107 79.5q39 33 64 -4q33 -27 91 -86t76.5 -84t-7.5 -61q-29 -41 -84 26q-41 49 -111 109q-35 -20 -101.5 -77.5t-85 -64t-29.5 0t-18.5 17.5t-3 29.5zM787.5 276q60.5 86 60.5 100.5t26 45.5q37 37 181 338q125 399 137 459.5 t35 126.5q27 23 53.5 11.5t40.5 -19t29.5 -16.5t19.5 -11q18 -23 8 -68q-53 -252 -88 -347t-60.5 -156.5t-38.5 -93.5t-45 -103.5t-44 -100.5v-12q-25 -14 -45.5 -52t-28.5 -42l-18 -47q-2 -12 -24.5 -25.5t-28 -28t-7.5 -18.5q-70 -104 -178 -200.5t-179 -124t-124 -15.5 q-162 41 -207 203t21 483q31 150 105.5 357.5t155.5 350t149.5 130.5t90 -71.5t-29.5 -92.5q-25 -27 -70 -115t-61 -118q-127 -365 -160 -549q-37 -170 -42 -202t-5 -87q4 -8 11 -20.5t10 -19.5t9 -15q6 -10 23 -17q74 -35 149 8q12 23 44 37q6 -8 9 -5t7 13q-2 10 18 31 q31 12 91.5 98z" />
<glyph unicode="&#xdc;" horiz-adv-x="987" d="M1157 1696q33 33 58.5 19.5t35.5 -46.5q16 -31 12.5 -50.5t-32.5 -55.5q-70 -94 -121 8q-10 20 -6 31q18 63 41 81zM895 1696q33 33 58.5 19.5t35.5 -46.5q16 -31 12 -50.5t-32 -55.5q-70 -94 -121 8q-10 20 -6 31q18 63 41 81zM787.5 276q60.5 86 60.5 100.5t26 45.5 q37 37 181 338q125 399 137 459.5t35 126.5q27 23 53.5 11.5t40.5 -19t29.5 -16.5t19.5 -11q18 -23 8 -68q-53 -252 -88 -347t-60.5 -156.5t-38.5 -93.5t-45 -103.5t-44 -100.5v-12q-25 -14 -45.5 -52t-28.5 -42l-18 -47q-2 -12 -24.5 -25.5t-28 -28t-7.5 -18.5 q-70 -104 -178 -200.5t-179 -124t-124 -15.5q-162 41 -207 203t21 483q31 150 105.5 357.5t155.5 350t149.5 130.5t90 -71.5t-29.5 -92.5q-25 -27 -70 -115t-61 -118q-127 -365 -160 -549q-37 -170 -42 -202t-5 -87q4 -8 11 -20.5t10 -19.5t9 -15q6 -10 23 -17q74 -35 149 8 q12 23 44 37q6 -8 9 -5t7 13q-2 10 18 31q31 12 91.5 98z" />
<glyph unicode="&#xdd;" horiz-adv-x="1032" d="M1116 1753q35 20 84 -57q8 -20 -28.5 -57t-91 -81.5t-70.5 -66.5q-20 -35 -31.5 -39t-36.5 12q-14 12 -21.5 40t-4 43.5t87 105.5t112.5 100zM431 -50q1 9 2 15t5 19.5t6 21.5t6.5 26.5t8.5 30.5q4 123 61 228q0 63 64 215l22 69q-117 152 -135 291q-31 104 -18 332 q0 55 14 92q23 66 41 103q59 51 92 -10.5t31 -163.5q12 -414 82 -471q8 -8 22.5 -2t20.5 7t22.5 17t26.5 27.5t34.5 39t65.5 69.5t127 145q215 252 268 276q23 10 60 21q12 -4 19 -30t12.5 -34t13.5 -18q20 -25 19 -38.5t-87 -99.5q-45 -39 -143 -141t-156 -174 q-186 -215 -247 -270q0 -4 -11 -4q-14 -47 -32 -136q-12 -41 -35 -114q-31 -106 -66 -213q-37 -139 -63.5 -190.5t-55.5 -41.5q-12 2 -79 50q-18 18 -18.5 32.5t0.5 23.5z" />
<glyph unicode="&#xde;" horiz-adv-x="966" d="M989 853q12 83 -8 109.5t-63 34.5q-82 16 -168 -32q-31 -12 -138.5 -259t-97.5 -278q92 -2 156 29q121 59 266 258q41 55 53 138zM475 848q0 14 27 51q0 37 22 53q12 51 4 58q-18 53 33 55q10 0 21.5 21.5t15.5 23.5q106 279 106.5 301.5t28 31.5t49.5 9q10 10 33 10 l33 -32q23 -20 22 -54v-41q0 -23 -11 -47t-17 -35q-14 -35 -39 -84l67 13q82 0 148 -15q70 -33 117 -96t53 -115.5t-40 -190.5t-83 -167q20 2 -29 -47t-67 -55q-20 -47 -56 -66q-78 -49 -96 -78q0 23 -37 -8q-12 -10 -16 -12q-92 -55 -178 -72q-14 -12 -74 -12l-70 10 l-32 -86q-10 -43 -32 -115.5t-29 -109.5t-26.5 -70t-41 -48t-31.5 -7q-2 0 -14.5 6t-19.5 9t-20.5 10.5t-21.5 13.5q-18 16 -18 33q-12 23 34 186q106 365 117 362q10 55 33 84q4 31 22.5 79t36.5 65q0 23 35 100.5t41 77.5z" />
<glyph unicode="&#xdf;" horiz-adv-x="815" d="M829 698q-12 0 -28.5 -33.5t-7.5 -50.5l-11 -12q-12 0 -9 -14.5t6 -24.5t9.5 -23.5t11.5 -23.5t12 -22.5t9 -18.5q23 -2 60 -100q2 -35 7 -75t7 -67q-8 -88 -76 -147q-82 -72 -201 -72q-25 0 -60.5 11.5t-43.5 13.5q-57 20 -88 70.5t-8 89.5q6 10 18 10l23 2q84 0 100 -8 t23 -8q10 0 24 18l53 6q2 0 1 10.5t2.5 11.5t11.5 3t18 13t6 24q-4 63 -39 108q-29 74 -65.5 124t-44.5 60q-16 16 20 84q0 4 86 107.5t93 116.5q35 20 67.5 51t32.5 41q-10 29 29 78q31 53 36 68.5t-4 47.5q-78 47 -172 -63q-59 -74 -67 -76q-47 -61 -110.5 -183 t-98.5 -224q8 -14 -4.5 -46t-32.5 -47v-75l-12 -35q-14 0 -15 -2q-6 -45 -33.5 -116t-34.5 -100.5t-20 -121.5q-80 -238 -59 -299q-23 -80 -23 -167t-65 -81q-35 8 -73 42t-44 67v75q14 25 10 129q18 45 19 90q53 219 76 289q20 98 83 262q-4 27 21 94.5t55 112.5 q12 74 53 156q-6 8 -2 51q31 18 35 45q0 6 76 106.5t117 149.5q119 115 182.5 129t147.5 14q16 2 73.5 -33.5t71.5 -68.5q31 -72 14 -168q-18 -123 -108 -223q-33 -37 -43 -37q-31 -25 -45 -61q-10 -10 -29 -32t-23 -22z" />
<glyph unicode="&#xe0;" horiz-adv-x="894" d="M856 955.5q0 -21.5 -39 -58.5q-45 -41 -65.5 -41t-30.5 62q-6 23 -58.5 112.5t-52.5 121.5t36 59.5t59 27.5q43 0 97 -131t54 -152.5zM664 635q-76 0 -250 -293q-31 -49 -56 -129q33 -4 127 74q18 16 50 42.5t46.5 39t36.5 32.5q39 39 70 84l45 74q-34 76 -69 76z M182 100q0 18 -26 52q-31 31 127 319q12 12 31.5 43t25.5 35q0 8 6 15t14 7l17 33q8 18 79.5 88t114.5 96.5t88.5 24.5t77.5 -29q4 -6 27 -22q39 -31 174 -152l-35 -102q-47 -135 25 -250q20 -43 69.5 -51t49.5 -45q0 -84 -56 -96q-160 -23 -239 131q-29 39 -37 90 q-14 -20 -47 -54q-279 -283 -422 -190q-6 12 -35 32.5t-29 24.5z" />
<glyph unicode="&#xe1;" horiz-adv-x="894" d="M760 979l2 20q4 18 88 108.5t113 100.5q16 8 30 13q27 0 52.5 -29t25.5 -76q0 -29 -89 -101.5t-109.5 -103t-51.5 -30.5q-61 0 -61 98zM664 635q-76 0 -250 -293q-31 -49 -56 -129q33 -4 127 74q18 16 50 42.5t46.5 39t36.5 32.5q39 39 70 84l45 74q-34 76 -69 76z M182 100q0 18 -26 52q-31 31 127 319q12 12 31.5 43t25.5 35q0 8 6 15t14 7l17 33q8 18 79.5 88t114.5 96.5t88.5 24.5t77.5 -29q4 -6 27 -22q39 -31 174 -152l-35 -102q-47 -135 25 -250q20 -43 69.5 -51t49.5 -45q0 -84 -56 -96q-160 -23 -239 131q-29 39 -37 90 q-14 -20 -47 -54q-279 -283 -422 -190q-6 12 -35 32.5t-29 24.5z" />
<glyph unicode="&#xe2;" horiz-adv-x="894" d="M528 989q16 20 93 88q131 113 176 107q27 -4 41 -25q33 -27 91 -86t70 -74q29 -31 14.5 -71.5t-49 -49t-73.5 30.5q-41 49 -111 109q-84 -47 -164 -115q-49 -49 -87 -4t-1 90zM664 635q-76 0 -250 -293q-31 -49 -56 -129q33 -4 127 74q18 16 50 42.5t46.5 39t36.5 32.5 q39 39 70 84l45 74q-34 76 -69 76zM182 100q0 18 -26 52q-31 31 127 319q12 12 31.5 43t25.5 35q0 8 6 15t14 7l17 33q8 18 79.5 88t114.5 96.5t88.5 24.5t77.5 -29q4 -6 27 -22q39 -31 174 -152l-35 -102q-47 -135 25 -250q20 -43 69.5 -51t49.5 -45q0 -84 -56 -96 q-160 -23 -239 131q-29 39 -37 90q-14 -20 -47 -54q-279 -283 -422 -190q-6 12 -35 32.5t-29 24.5z" />
<glyph unicode="&#xe3;" horiz-adv-x="894" d="M1047 936q-152 -84 -165.5 -84t-25.5 2t-19.5 4t-21.5 10.5t-18 10.5t-22.5 15t-21.5 15t-44 37t-62.5 35t-47.5 -35t-46 -37q-4 -27 -21 -32q-4 0 -6 2q-61 10 -61 71q0 27 36 79t97 83q84 31 142.5 -21.5t89 -68.5t67.5 0q23 6 74 31.5t73.5 35t43 -21.5t16.5 -51 q0 -49 -57 -80zM664 635q-76 0 -250 -293q-31 -49 -56 -129q33 -4 127 74q18 16 50 42.5t46.5 39t36.5 32.5q39 39 70 84l45 74q-34 76 -69 76zM182 100q0 18 -26 52q-31 31 127 319q12 12 31.5 43t25.5 35q0 8 6 15t14 7l17 33q8 18 79.5 88t114.5 96.5t88.5 24.5t77.5 -29 q4 -6 27 -22q39 -31 174 -152l-35 -102q-47 -135 25 -250q20 -43 69.5 -51t49.5 -45q0 -84 -56 -96q-160 -23 -239 131q-29 39 -37 90q-14 -20 -47 -54q-279 -283 -422 -190q-6 12 -35 32.5t-29 24.5z" />
<glyph unicode="&#xe4;" horiz-adv-x="894" d="M952 1122q59 43 111 -49q20 -49 13 -78.5t-54 -83.5q-70 -94 -133 -32q-18 16 -30.5 50t-8.5 46q16 76 65 117q4 2 11 10q16 20 26 20zM635 1122q59 43 110 -49q20 -49 13.5 -78.5t-53.5 -83.5q-70 -94 -134 -32q-18 16 -30.5 50t-8.5 46q16 76 66 117q4 2 10 10 q15 20 27 20zM664 635q-76 0 -250 -293q-31 -49 -56 -129q33 -4 127 74q18 16 50 42.5t46.5 39t36.5 32.5q39 39 70 84l45 74q-34 76 -69 76zM182 100q0 18 -26 52q-31 31 127 319q12 12 31.5 43t25.5 35q0 8 6 15t14 7l17 33q8 18 79.5 88t114.5 96.5t88.5 24.5t77.5 -29 q4 -6 27 -22q39 -31 174 -152l-35 -102q-47 -135 25 -250q20 -43 69.5 -51t49.5 -45q0 -84 -56 -96q-160 -23 -239 131q-29 39 -37 90q-14 -20 -47 -54q-279 -283 -422 -190q-6 12 -35 32.5t-29 24.5z" />
<glyph unicode="&#xe5;" horiz-adv-x="894" d="M852 1083q-68 0 -68 -86q0 -18 15.5 -38.5t27.5 -20.5q70 0 70 82q-4 63 -45 63zM718 1131.5q46 74.5 120.5 74.5t124 -35.5t49.5 -115.5t-51.5 -158t-131.5 -78q-139 0 -157 162q0 76 46 150.5zM664 635q-76 0 -250 -293q-31 -49 -56 -129q33 -4 127 74q18 16 50 42.5 t46.5 39t36.5 32.5q39 39 70 84l45 74q-34 76 -69 76zM182 100q0 18 -26 52q-31 31 127 319q12 12 31.5 43t25.5 35q0 8 6 15t14 7l17 33q8 18 79.5 88t114.5 96.5t88.5 24.5t77.5 -29q4 -6 27 -22q39 -31 174 -152l-35 -102q-47 -135 25 -250q20 -43 69.5 -51t49.5 -45 q0 -84 -56 -96q-160 -23 -239 131q-29 39 -37 90q-14 -20 -47 -54q-279 -283 -422 -190q-6 12 -35 32.5t-29 24.5z" />
<glyph unicode="&#xe6;" horiz-adv-x="1175" d="M1102 664q-27 0 -77 -44.5t-87 -101.5q4 -25 67.5 -24.5t81 9.5t60.5 51t45 58q0 45 -68 52h-22zM653 635q-47 0 -137 -116t-170 -306q53 -2 141 84q29 29 70 63q84 70 119 125l45 74q-35 76 -68 76zM1116 813q119 0 175.5 -56.5t56.5 -109.5v-18q-4 -29 -5 -43 q-33 -82 -107.5 -158t-191.5 -76q-39 0 -78.5 9.5t-50.5 9.5q-49 0 -49 -78q0 -123 95 -123q90 0 169 76q27 27 48.5 26.5t46 -26t26.5 -45.5q-6 -47 -94 -124t-201.5 -77t-185.5 66.5t-72 187.5v27q-238 -260 -385 -261q-41 0 -71 19q-4 8 -23 22q-49 35 -49 39 q0 10 -14.5 36t-14.5 32q0 59 109 262l33 53q16 16 28.5 40t19.5 36t17 12l21 39q31 57 130 129t144 73t82 -28l129 -112q68 78 137.5 109.5t124.5 31.5z" />
<glyph unicode="&#xe7;" horiz-adv-x="727" d="M762.5 502q-23.5 -37 -43 -37t-19.5 -11.5t-21.5 -12.5t-45 9.5t-27.5 24.5q0 10 14.5 74.5t3 84t-50.5 3.5q-76 -43 -113.5 -111.5t-65 -174t-25.5 -130.5q4 -39 18 -47q61 -16 108.5 8.5t125.5 83.5q4 2 17 22.5t26 26.5q16 27 49 27h43q37 -12 59 -49q8 -18 0 -25 l-10 -10q8 -16 -72 -97t-102.5 -81t-22.5 -12q0 -8 -62.5 -38t-101.5 -38h-8q-8 -10 -8 -27q12 -18 39 -51q61 -72 70 -107q18 -70 -29 -130t-114.5 -73.5t-231.5 42.5q-31 10 -44.5 47t8 62.5t77.5 8.5q133 -45 162 -30q14 8 22 24q16 29 -31 84q-10 10 -22 24.5t-51 51.5 q-39 55 0 105q-90 55 -90 157q-10 94 33.5 235.5t113.5 227.5q104 125 161.5 148.5t123.5 23.5q113 -27 112 -70l11 -10q18 0 40.5 -63.5t6.5 -93.5q-9 -39 -32.5 -76z" />
<glyph unicode="&#xe8;" horiz-adv-x="665" d="M592 664q-27 0 -77 -44.5t-87 -101.5q4 -25 67.5 -24.5t81 9.5t59.5 51t44 58q0 45 -66 52h-22zM737 955.5q0 -21.5 -39 -58.5q-45 -41 -65.5 -41t-30.5 62q-6 23 -58 112.5t-52 121.5t35.5 59.5t58.5 27.5q43 0 97 -131t54 -152.5zM606 813q121 0 176.5 -58.5 t55.5 -109.5v-16q0 -43 -58 -142q-29 -51 -88 -91t-118.5 -42t-113.5 7.5t-66.5 9.5t-22.5 -15q-14 -23 -15 -84q6 -57 32 -79.5t62.5 -22.5t69.5 14.5t77 51t68.5 36.5t49 -24.5t26.5 -46.5q-6 -47 -95 -124t-201.5 -77t-184.5 65.5t-72 186.5q0 47 5.5 100.5t36 131 t98 167.5t145.5 126t133 36z" />
<glyph unicode="&#xe9;" horiz-adv-x="665" d="M592 664q-27 0 -77 -44.5t-87 -101.5q4 -25 67.5 -24.5t81 9.5t59.5 51t44 58q0 45 -66 52h-22zM641 979l2 20q4 18 88 108.5t113 100.5q16 8 30 13q27 0 52.5 -29t25.5 -76q0 -29 -89 -101.5t-109.5 -103t-51.5 -30.5q-61 0 -61 98zM606 813q121 0 176.5 -58.5 t55.5 -109.5v-16q0 -43 -58 -142q-29 -51 -88 -91t-118.5 -42t-113.5 7.5t-66.5 9.5t-22.5 -15q-14 -23 -15 -84q6 -57 32 -79.5t62.5 -22.5t69.5 14.5t77 51t68.5 36.5t49 -24.5t26.5 -46.5q-6 -47 -95 -124t-201.5 -77t-184.5 65.5t-72 186.5q0 47 5.5 100.5t36 131 t98 167.5t145.5 126t133 36z" />
<glyph unicode="&#xea;" horiz-adv-x="665" d="M592 664q-27 0 -77 -44.5t-87 -101.5q4 -25 67.5 -24.5t81 9.5t59.5 51t44 58q0 45 -66 52h-22zM410 989q16 20 92 88q131 113 176 107q27 -4 41 -25q33 -27 91 -86t71 -74q29 -31 14.5 -71.5t-49.5 -49t-74 30.5q-41 49 -110 109q-84 -47 -164 -115q-49 -49 -87 -4 t-1 90zM606 813q121 0 176.5 -58.5t55.5 -109.5v-16q0 -43 -58 -142q-29 -51 -88 -91t-118.5 -42t-113.5 7.5t-66.5 9.5t-22.5 -15q-14 -23 -15 -84q6 -57 32 -79.5t62.5 -22.5t69.5 14.5t77 51t68.5 36.5t49 -24.5t26.5 -46.5q-6 -47 -95 -124t-201.5 -77t-184.5 65.5 t-72 186.5q0 47 5.5 100.5t36 131t98 167.5t145.5 126t133 36z" />
<glyph unicode="&#xeb;" horiz-adv-x="665" d="M592 664q-27 0 -77 -44.5t-87 -101.5q4 -25 67.5 -24.5t81 9.5t59.5 51t44 58q0 45 -66 52h-22zM516 1122q59 43 111 -49q20 -49 13 -78.5t-54 -83.5q-70 -94 -133 -32q-18 16 -30.5 50t-8.5 46q16 76 65 117q4 2 10 10q15 20 27 20zM834 1122q59 43 110 -49 q20 -49 13 -78.5t-54 -83.5q-70 -94 -133 -32q-18 16 -30.5 50t-8.5 46q16 76 66 117q4 2 10 10q15 20 27 20zM606 813q121 0 176.5 -58.5t55.5 -109.5v-16q0 -43 -58 -142q-29 -51 -88 -91t-118.5 -42t-113.5 7.5t-66.5 9.5t-22.5 -15q-14 -23 -15 -84q6 -57 32 -79.5 t62.5 -22.5t69.5 14.5t77 51t68.5 36.5t49 -24.5t26.5 -46.5q-6 -47 -95 -124t-201.5 -77t-184.5 65.5t-72 186.5q0 47 5.5 100.5t36 131t98 167.5t145.5 126t133 36z" />
<glyph unicode="&#xec;" horiz-adv-x="382" d="M186 197l9 43q-2 12 16 67q45 102 115 334q0 25 32 27q23 8 58 -19.5t57 -62.5q27 -27 -5 -97.5t-44 -138.5q-25 -55 -33 -80.5t-18.5 -84t-22.5 -76.5q-18 -80 -64 -98.5t-81 24.5q-23 23 -28 81t9 81zM571 955.5q0 -21.5 -39 -58.5q-45 -41 -65.5 -41t-30.5 62 q-6 23 -58 112.5t-52 121.5t35.5 59.5t56.5 27.5q45 0 99 -131t54 -152.5z" />
<glyph unicode="&#xed;" horiz-adv-x="382" d="M186 197l9 43q-2 12 16 67q45 102 115 334q0 25 32 27q23 8 58 -19.5t57 -62.5q27 -27 -5 -97.5t-44 -138.5q-25 -55 -33 -80.5t-18.5 -84t-22.5 -76.5q-18 -80 -64 -98.5t-81 24.5q-23 23 -28 81t9 81zM455 979l2 20q4 18 88 108.5t112 100.5q14 8 31 13q27 0 52.5 -29 t25.5 -76q0 -29 -89 -101.5t-109.5 -103t-51.5 -30.5q-61 0 -61 98z" />
<glyph unicode="&#xee;" horiz-adv-x="382" d="M264 989q16 20 92 88q131 113 176 107q27 -4 41 -25q33 -27 91.5 -86t70.5 -74q29 -31 14.5 -71.5t-49 -49t-73.5 30.5q-41 49 -111 109q-84 -47 -164 -115q-49 -49 -87 -4t-1 90zM186 197l9 43q-2 12 16 67q45 102 115 334q0 25 32 27q23 8 58 -19.5t57 -62.5 q27 -27 -5 -97.5t-44 -138.5q-25 -55 -33 -80.5t-18.5 -84t-22.5 -76.5q-18 -80 -64 -98.5t-81 24.5q-23 23 -28 81t9 81z" />
<glyph unicode="&#xef;" horiz-adv-x="382" d="M186 197l9 43q-2 12 16 67q45 102 115 334q0 25 32 27q23 8 58 -19.5t57 -62.5q27 -27 -5 -97.5t-44 -138.5q-25 -55 -33 -80.5t-18.5 -84t-22.5 -76.5q-18 -80 -64 -98.5t-81 24.5q-23 23 -28 81t9 81zM668 1122q59 43 110 -49q20 -49 13 -78.5t-54 -83.5 q-70 -94 -133 -32q-18 16 -30.5 50t-8.5 46q16 76 66 117q4 2 10 10q15 20 27 20zM350 1122q59 43 111 -49q20 -49 13 -78.5t-54 -83.5q-70 -94 -133 -32q-18 16 -30.5 50t-8.5 46q16 76 65 117q4 2 11 10q14 20 26 20z" />
<glyph unicode="&#xf0;" horiz-adv-x="714" d="M662 463q27 141 2 153q-66 37 -136 -36q-57 -53 -88.5 -115t-81.5 -186q-31 -86 22.5 -104.5t143.5 79.5q14 20 49 61q62 74 89 148zM649 938q-80 -25 -133 -18q-47 -12 -82 22q-53 49 88 94l70 31l-47 72q-14 14 -37 32q-43 41 -55 66q-2 8 41 45t59 39q12 8 46 -12.5 t44 -32.5q8 8 45 -39q63 -86 82 -119q121 29 167 0.5t36 -64.5t-58 -38l-90 -27q51 -168 32 -363.5t-103 -342.5q-66 -113 -193 -204t-192 -95q-35 -6 -80 32q-47 45 -83 99.5t-30 77.5q6 31 -2 57q-10 10 -5 16t7 8q12 2 7 21.5t14 83.5q31 94 89 178t93 113q86 86 196 123 q43 12 55.5 9t30 -18.5t21.5 -15.5q-15 111 -33 170z" />
<glyph unicode="&#xf1;" horiz-adv-x="921" d="M1059 936q-152 -84 -165 -84t-25.5 2t-19.5 4t-21.5 10.5t-18.5 10.5t-22.5 15t-21.5 15t-44 37t-62.5 35t-47 -35t-46.5 -37q-4 -27 -20 -32q-4 0 -6 2q-61 10 -62 71q0 27 36 79t97 83q84 31 142.5 -21.5t89 -68.5t67.5 0q23 6 74 31.5t73.5 35t43 -21.5t16.5 -51 q0 -49 -57 -80zM768 195l10 139v33q-6 41 -26 41q-37 0 -138 -72q-180 -129 -270 -246q-18 -20 -29.5 -23.5t-33 -1t-58.5 41t-49 69.5q0 82 82 242q10 33 56 142.5t53 168.5l-3 2q0 20 21 21q4 6 41 6t76 -29t39 -80t-53.5 -157.5t-53.5 -110.5q33 23 125 94 q211 170 260 170q27 0 75 -29.5t56 -54.5l-8 -94l4 -113q0 -66 -8 -92l6 -12q-8 -8 16.5 -61.5t24.5 -66.5t-29.5 -41t-56.5 -32q-129 5 -129 146z" />
<glyph unicode="&#xf2;" horiz-adv-x="722" d="M768 955.5q0 -21.5 -39 -58.5q-45 -41 -65.5 -41t-30.5 62q-6 23 -58.5 112.5t-52.5 121.5t36 59.5t56 27.5q45 0 99.5 -131t54.5 -152.5zM641 431.5q8 23.5 15.5 35.5t8.5 62.5t-16 60.5q-23 10 -37 6t-47 -27q-156 -131 -186 -280q-6 -51 11.5 -77t58 -13.5t73.5 44 t43 42t17.5 18.5t14.5 23.5t11 22.5t11.5 25.5t10.5 26t11 31zM397 668q102 88 185 106q123 29 172 -22q80 -35 92 -146q16 -170 -113 -356q-76 -111 -209 -191q-53 -37 -188 -45q-35 0 -80 39q-92 96 -80 170l4 47q-10 10 -5 16.5t7 8.5q12 0 8 19.5t14.5 74.5t47.5 103 q69 115 145 176z" />
<glyph unicode="&#xf3;" horiz-adv-x="722" d="M672 979l2 20q4 18 88 108.5t112 100.5q14 8 31 13q27 0 52.5 -29t25.5 -76q0 -29 -89 -101.5t-109.5 -103t-51.5 -30.5q-61 0 -61 98zM641 431.5q8 23.5 15.5 35.5t8.5 62.5t-16 60.5q-23 10 -37 6t-47 -27q-156 -131 -186 -280q-6 -51 11.5 -77t58 -13.5t73.5 44t43 42 t17.5 18.5t14.5 23.5t11 22.5t11.5 25.5t10.5 26t11 31zM397 668q102 88 185 106q123 29 172 -22q80 -35 92 -146q16 -170 -113 -356q-76 -111 -209 -191q-53 -37 -188 -45q-35 0 -80 39q-92 96 -80 170l4 47q-10 10 -5 16.5t7 8.5q12 0 8 19.5t14.5 74.5t47.5 103 q69 115 145 176z" />
<glyph unicode="&#xf4;" horiz-adv-x="722" d="M440 989q16 20 92 88q131 113 177 107q27 -4 41 -25q33 -27 91 -86t70 -74q29 -31 14.5 -71.5t-49 -49t-73.5 30.5q-41 49 -111 109q-84 -47 -164 -115q-49 -49 -87 -4t-1 90zM641 431.5q8 23.5 15.5 35.5t8.5 62.5t-16 60.5q-23 10 -37 6t-47 -27q-156 -131 -186 -280 q-6 -51 11.5 -77t58 -13.5t73.5 44t43 42t17.5 18.5t14.5 23.5t11 22.5t11.5 25.5t10.5 26t11 31zM397 668q102 88 185 106q123 29 172 -22q80 -35 92 -146q16 -170 -113 -356q-76 -111 -209 -191q-53 -37 -188 -45q-35 0 -80 39q-92 96 -80 170l4 47q-10 10 -5 16.5t7 8.5 q12 0 8 19.5t14.5 74.5t47.5 103q69 115 145 176z" />
<glyph unicode="&#xf5;" horiz-adv-x="722" d="M958 936q-152 -84 -165 -84t-25 2t-19.5 4t-21.5 10.5t-18 10.5t-22.5 15t-21.5 15t-44 37t-62.5 35t-47.5 -35t-46 -37q-4 -27 -14.5 -32t-12.5 2q-61 10 -61 71q0 27 36 79t97 83q84 31 142.5 -21.5t89 -68.5t67.5 0q23 6 74 31.5t73.5 35t43 -21.5t16.5 -51 q-1 -49 -58 -80zM641 431.5q8 23.5 15.5 35.5t8.5 62.5t-16 60.5q-23 10 -37 6t-47 -27q-156 -131 -186 -280q-6 -51 11.5 -77t58 -13.5t73.5 44t43 42t17.5 18.5t14.5 23.5t11 22.5t11.5 25.5t10.5 26t11 31zM397 668q102 88 185 106q123 29 172 -22q80 -35 92 -146 q16 -170 -113 -356q-76 -111 -209 -191q-53 -37 -188 -45q-35 0 -80 39q-92 96 -80 170l4 47q-10 10 -5 16.5t7 8.5q12 0 8 19.5t14.5 74.5t47.5 103q69 115 145 176z" />
<glyph unicode="&#xf6;" horiz-adv-x="722" d="M864 1122q59 43 111 -49q20 -49 13 -78.5t-54 -83.5q-70 -94 -133 -32q-18 16 -30.5 50t-8.5 46q16 76 65 117q4 2 11 10q14 20 26 20zM547 1122q59 43 110 -49q20 -49 13.5 -78.5t-54.5 -83.5q-70 -94 -133 -32q-18 16 -30.5 50t-8.5 46q16 76 66 117q4 2 10 10 q17 20 27 20zM641 431.5q8 23.5 15.5 35.5t8.5 62.5t-16 60.5q-23 10 -37 6t-47 -27q-156 -131 -186 -280q-6 -51 11.5 -77t58 -13.5t73.5 44t43 42t17.5 18.5t14.5 23.5t11 22.5t11.5 25.5t10.5 26t11 31zM397 668q102 88 185 106q123 29 172 -22q80 -35 92 -146 q16 -170 -113 -356q-76 -111 -209 -191q-53 -37 -188 -45q-35 0 -80 39q-92 96 -80 170l4 47q-10 10 -5 16.5t7 8.5q12 0 8 19.5t14.5 74.5t47.5 103q69 115 145 176z" />
<glyph unicode="&#xf7;" d="M575 727q0 16 3 23q23 25 42 69.5t31 65.5q25 51 90 20q45 -18 66 -51q37 -82 -33 -166q-31 -41 -77 -52t-70.5 7.5t-38 43t-13.5 40.5zM387 55.5q0 16.5 9.5 27.5t32 59t32.5 63q10 27 26 31q25 16 69 -2.5t65 -51.5q37 -82 -33 -166q-31 -41 -78 -52t-71.5 6.5t-38 43 t-13.5 42zM823 506q115 0 153 -37t20.5 -70.5t-62.5 -25.5q-319 -20 -586 -21q-41 0 -72 10q-51 0 -73 41q-39 51 67 70l37 4q129 29 516 29z" />
<glyph unicode="&#xf8;" horiz-adv-x="722" d="M641 557q16 8 61 43q-2 6 -8 12q-57 33 -139 -37q-55 -47 -85 -91t-67 -132q129 129 238 205zM698 510q-162 -127 -336 -301q2 -68 60.5 -55.5t142.5 104.5q113 125 133 252zM221 203q0 10 -4 24q-12 10 -7 16.5t5 8.5q16 4 4 22q-6 16 7.5 75t31.5 104q57 131 123 200 q96 109 162 133q90 37 157 -14q82 -25 119 -78q80 70 88 80q10 23 28.5 12.5t27 -34t-14.5 -45.5q-12 -25 -30.5 -38.5t-37 -26.5t-32.5 -24q27 -139 -66 -321q-70 -139 -157.5 -214t-218.5 -101q-35 -4 -84 26q-41 31 -74 84q-63 -63 -74 -80q-23 -43 -33 -43 q-39 10 -31.5 51t60.5 95l49 49v16q2 13 2 23z" />
<glyph unicode="&#xf9;" horiz-adv-x="757" d="M745 959.5q0 -21.5 -38 -58.5q-45 -41 -65.5 -41t-31.5 62q-6 23 -58 112.5t-52 121.5t35.5 59.5t58.5 27.5q43 0 97 -131t54 -152.5zM627 182v31q-20 -51 -45 -70q-47 -47 -95 -69q-135 -86 -211 12q-82 68 -61 166q6 143 88 323q90 180 94 187q33 12 77 -1t48 -40 q12 -20 -1 -78.5t-48 -126.5q-82 -201 -85 -247t24 -54q23 -14 54.5 -2t84.5 80.5t93 165t46 170.5q-4 23 12.5 49.5t42.5 42.5q8 12 21.5 19.5t19.5 -1.5l33 2q4 0 18.5 -19.5t20.5 -23.5q57 -49 -29 -252q-117 -246 -24 -325q33 -23 26 -107q-8 -29 -60 -30.5t-83 20.5 q-29 27 -57 139q-4 12 -4 39z" />
<glyph unicode="&#xfa;" horiz-adv-x="757" d="M600 973l2 20q4 18 88 108.5t113 100.5q16 10 31 12q27 0 52 -28.5t25 -75.5q0 -29 -89 -101.5t-109.5 -103.5t-50.5 -31q-62 1 -62 99zM627 182v31q-20 -51 -45 -70q-47 -47 -95 -69q-135 -86 -211 12q-82 68 -61 166q6 143 88 323q90 180 94 187q33 12 77 -1t48 -40 q12 -20 -1 -78.5t-48 -126.5q-82 -201 -85 -247t24 -54q23 -14 54.5 -2t84.5 80.5t93 165t46 170.5q-4 23 12.5 49.5t42.5 42.5q8 12 21.5 19.5t19.5 -1.5l33 2q4 0 18.5 -19.5t20.5 -23.5q57 -49 -29 -252q-117 -246 -24 -325q33 -23 26 -107q-8 -29 -60 -30.5t-83 20.5 q-29 27 -57 139q-4 12 -4 39z" />
<glyph unicode="&#xfb;" horiz-adv-x="757" d="M461 989q16 20 92 88q131 113 176 107q27 -4 41 -25q33 -27 91.5 -86t70.5 -74q29 -31 14.5 -71.5t-49.5 -49t-74 30.5q-41 49 -110 109q-84 -47 -164 -115q-49 -49 -87 -4t-1 90zM627 182v31q-20 -51 -45 -70q-47 -47 -95 -69q-135 -86 -211 12q-82 68 -61 166 q6 143 88 323q90 180 94 187q33 12 77 -1t48 -40q12 -20 -1 -78.5t-48 -126.5q-82 -201 -85 -247t24 -54q23 -14 54.5 -2t84.5 80.5t93 165t46 170.5q-4 23 12.5 49.5t42.5 42.5q8 12 21.5 19.5t19.5 -1.5l33 2q4 0 18.5 -19.5t20.5 -23.5q57 -49 -29 -252 q-117 -246 -24 -325q33 -23 26 -107q-8 -29 -60 -30.5t-83 20.5q-29 27 -57 139q-4 12 -4 39z" />
<glyph unicode="&#xfc;" horiz-adv-x="757" d="M885 1122q59 43 110 -49q20 -49 13 -78.5t-54 -83.5q-70 -94 -133 -32q-18 16 -30.5 50t-8.5 46q16 76 66 117q4 2 10 10q15 20 27 20zM567 1122q59 43 111 -49q20 -49 13 -78.5t-54 -83.5q-70 -94 -133 -32q-18 16 -30.5 50t-8.5 46q16 76 65 117q4 2 11 10q16 20 26 20 zM627 182v31q-20 -51 -45 -70q-47 -47 -95 -69q-135 -86 -211 12q-82 68 -61 166q6 143 88 323q90 180 94 187q33 12 77 -1t48 -40q12 -20 -1 -78.5t-48 -126.5q-82 -201 -85 -247t24 -54q23 -14 54.5 -2t84.5 80.5t93 165t46 170.5q-4 23 12.5 49.5t42.5 42.5 q8 12 21.5 19.5t19.5 -1.5l33 2q4 0 18.5 -19.5t20.5 -23.5q57 -49 -29 -252q-117 -246 -24 -325q33 -23 26 -107q-8 -29 -60 -30.5t-83 20.5q-29 27 -57 139q-4 12 -4 39z" />
<glyph unicode="&#xfd;" horiz-adv-x="698" d="M588 979l2 20q4 18 88 108.5t113 100.5q16 8 30 13q27 0 52.5 -29t25.5 -76q0 -29 -89 -101.5t-109.5 -103t-51.5 -30.5q-61 0 -61 98zM-65.5 -240q30.5 0 45.5 -8q78 -53 146.5 -39.5t143.5 117.5q86 137 131 219q-43 25 -81.5 83t-32.5 81v23q-23 0 -30 126.5t-1 179 t14 187.5q-2 53 37 80q74 33 110 -33.5t25 -216.5q-18 -279 39 -344q18 49 31 61q29 59 31 70.5t10 27t41 81.5q53 154 65.5 175t19.5 36.5t11 23.5t10.5 19.5t10.5 17.5t10 12q8 10 18 15q33 25 74 2q31 -31 43 -49q29 -49 -25 -148q-37 -109 -65 -141 q-68 -156 -122 -264.5t-79 -171.5q-131 -209 -184 -273q-135 -123 -205 -135q-106 -23 -201.5 7t-109.5 83q-12 41 13.5 68.5t56 27.5z" />
<glyph unicode="&#xfe;" horiz-adv-x="774" d="M408 240q29 0 107.5 31.5t112.5 60t52 48t33 44.5q31 47 -4 102q-59 72 -220 -82q-66 -70 -83.5 -137t2.5 -67zM145 -12l15 73q10 55 79.5 262t108.5 304.5t137.5 362.5t98.5 279.5t22 39.5q23 18 54.5 15t56.5 -21q33 -53 22 -115q0 -43 -109.5 -298t-105.5 -253 q121 72 208 59.5t134 -73t47 -142.5q0 -35 -32.5 -103.5t-53.5 -86.5q-12 0 -32 -43q-25 -33 -93.5 -69t-93.5 -27q-10 -6 -10 -19q0 -14 -68.5 -31.5t-105.5 -17.5t-55 16q-14 -14 -14.5 -30.5t-21 -60.5t-32.5 -44q-12 -10 0 -22q0 -43 -12 -64q0 -53 -21 -98 q0 -25 -7 -48.5t-15 -23.5q-12 -4 -13.5 -56t-31 -91t-56.5 -39q-39 -4 -49 16q-43 61 -30 123q23 86 22 119l10 65q23 37 23 97q-1 25 24 45z" />
<glyph unicode="&#xff;" horiz-adv-x="698" d="M463 1122q59 43 110 -49q20 -49 13.5 -78.5t-54.5 -83.5q-70 -94 -133 -32q-18 16 -30.5 50t-8.5 46q16 76 66 117q4 2 10 10q15 20 27 20zM780 1122q59 43 111 -49q20 -49 13 -78.5t-54 -83.5q-70 -94 -133 -32q-18 16 -30.5 50t-8.5 46q16 76 65 117q4 2 11 10 q16 20 26 20zM-65.5 -240q30.5 0 45.5 -8q78 -53 146.5 -39.5t143.5 117.5q86 137 131 219q-43 25 -81.5 83t-32.5 81v23q-23 0 -30 126.5t-1 179t14 187.5q-2 53 37 80q74 33 110 -33.5t25 -216.5q-18 -279 39 -344q18 49 31 61q29 59 31 70.5t10 27t41 81.5 q53 154 65.5 175t19.5 36.5t11 23.5t10.5 19.5t10.5 17.5t10 12q8 10 18 15q33 25 74 2q31 -31 43 -49q29 -49 -25 -148q-37 -109 -65 -141q-68 -156 -122 -264.5t-79 -171.5q-131 -209 -184 -273q-135 -123 -205 -135q-106 -23 -201.5 7t-109.5 83q-12 41 13.5 68.5 t56 27.5z" />
<glyph unicode="&#x152;" horiz-adv-x="1605" d="M1028 1134.5q-10 4.5 -20.5 4.5t-30.5 -4q-8 8 -16 8q-16 0 -47 -12.5t-49.5 -26.5t-26 -21.5t-33 -36t-37.5 -40.5q-16 -55 -68 -97q-8 -6 -24.5 -29.5t-24.5 -31.5l-12 -25q-66 -109 -143.5 -313.5t-77.5 -255.5t38 -86t87 -39q88 0 117.5 2t83 27.5t104.5 85.5 q20 37 33 49q12 27 32 53q23 111 43 111q27 141 40.5 153.5t29.5 61.5q0 23 12 51q31 51 31 68l55 96q-10 10 -10 12t6 8q20 20 -51 195q-2 2 -12 11t-14.5 13t-14.5 8.5zM1133 1296q0 -12 10 -12h2q14 2 50 -39t65 -90q27 82 38 94q-4 6 13.5 17.5t49.5 21.5t71 21 q84 23 153 26q18 12 100 15.5t154 -2.5q47 0 125 -37q2 -2 11.5 -10.5t14.5 -13.5t12 -15t10 -17.5t3 -17.5q0 -16 -26 -31q-14 -14 -135 -14t-193 -12.5t-78 -12.5q-33 -12 -88 -12h-18q-8 0 -47 -77t-40 -97t-38 -74q-70 -96 -33 -119q184 29 276 29q51 14 91 -8 q35 -8 32.5 -45t-24.5 -47q-27 -29 -232 -77t-231 -42q-18 41 -43 -41l-21 -80q-37 -82 -45 -107.5t-24 -117.5q-33 -119 86 -174q84 -16 217 18q8 4 125 70l61 18q16 23 31.5 23t34 -17.5t37 -48t18.5 -61.5t-240 -125q-86 -37 -119.5 -47t-114.5 -10t-141.5 11t-115.5 55 t-78 118q-20 -18 -100 -82q-143 -53 -258 -57q-53 0 -155.5 53t-127.5 106l-4 9q-39 66 -39 125t18.5 128.5t18.5 104.5q61 84 61 98v31q0 14 11.5 30.5t35.5 33.5q4 -2 7.5 -2.5t15.5 24.5q35 74 68 164q102 188 229 314t225 169q8 4 35 5t39 3q39 -2 94.5 -18.5 t59.5 -24.5z" />
<glyph unicode="&#x153;" horiz-adv-x="1107" d="M1113.5 651.5q-21.5 14.5 -53.5 14.5t-83 -39t-94 -109q4 -25 68.5 -24.5t76.5 10.5q20 10 62.5 51t43.5 61.5t-20.5 35zM526 294q49 73 63.5 135.5t14.5 102t-7 58t-15.5 21.5t-22.5 3q-59 0 -116.5 -85t-94.5 -228q-10 -37 -10 -63q0 -74 43 -74q20 0 58 28.5t87 101.5 zM166 266l-4 27q0 68 42 175t122 187q70 82 120 116t103 34t94 -27q109 -37 137 -123q66 86 147 123t128 37q117 0 177 -55t60 -113v-10l-6 -49q-29 -82 -104.5 -159t-192.5 -77q-41 0 -131 21q-47 0 -47 -71t25.5 -101.5t66.5 -30.5t74 14q29 16 59.5 41t50 37t40 12 t46 -23.5t25.5 -45.5q-10 -51 -95 -127t-200 -76q-211 0 -252 178q-39 -53 -86 -94l-37 -27q-86 -61 -190 -73q-68 0 -121 71.5t-53 126.5v17q0 25 -7 32t-7 9t8 10t8 14z" />
<glyph unicode="&#x178;" horiz-adv-x="1032" d="M1096 1696q33 33 58.5 19.5t35.5 -46.5q16 -31 12 -50.5t-33 -55.5q-70 -94 -120 8q-10 20 -7 31q18 63 41 81zM834 1696q33 33 58.5 19.5t35.5 -46.5q16 -31 12 -50.5t-33 -55.5q-70 -94 -121 8q-10 20 -6 31q18 63 41 81zM431 -50q1 9 2 15t5 19.5t6 21.5t6.5 26.5 t8.5 30.5q4 123 61 228q0 63 64 215l22 69q-117 152 -135 291q-31 104 -18 332q0 55 14 92q23 66 41 103q59 51 92 -10.5t31 -163.5q12 -414 82 -471q8 -8 22.5 -2t20.5 7t22.5 17t26.5 27.5t34.5 39t65.5 69.5t127 145q215 252 268 276q23 10 60 21q12 -4 19 -30t12.5 -34 t13.5 -18q20 -25 19 -38.5t-87 -99.5q-45 -39 -143 -141t-156 -174q-186 -215 -247 -270q0 -4 -11 -4q-14 -47 -32 -136q-12 -41 -35 -114q-31 -106 -66 -213q-37 -139 -63.5 -190.5t-55.5 -41.5q-12 2 -79 50q-18 18 -18.5 32.5t0.5 23.5z" />
<glyph unicode="&#x2c6;" horiz-adv-x="722" d="M442 989q16 20 93 88q131 113 176 107q27 -4 41 -25q33 -27 91 -86t70 -74q29 -31 14.5 -71.5t-49 -49t-73.5 30.5q-41 49 -111 109q-84 -47 -164 -115q-49 -49 -87 -4t-1 90z" />
<glyph unicode="&#x2dc;" horiz-adv-x="722" d="M956 936q-152 -84 -165 -84t-25 2t-19.5 4t-21.5 10.5t-18.5 10.5t-22.5 15t-21.5 15t-44 37t-62 35t-47.5 -35t-46 -37q-4 -27 -14.5 -32t-12.5 2q-61 10 -61 71q0 27 35.5 79t97.5 83q84 31 142.5 -21.5t89 -68.5t67.5 0q23 6 74 31.5t73.5 35t43 -21.5t16.5 -51 q-1 -49 -58 -80z" />
<glyph unicode="&#x2000;" horiz-adv-x="884" />
<glyph unicode="&#x2001;" horiz-adv-x="1769" />
<glyph unicode="&#x2002;" horiz-adv-x="884" />
<glyph unicode="&#x2003;" horiz-adv-x="1769" />
<glyph unicode="&#x2004;" horiz-adv-x="589" />
<glyph unicode="&#x2005;" horiz-adv-x="442" />
<glyph unicode="&#x2006;" horiz-adv-x="294" />
<glyph unicode="&#x2007;" horiz-adv-x="294" />
<glyph unicode="&#x2008;" horiz-adv-x="221" />
<glyph unicode="&#x2009;" horiz-adv-x="353" />
<glyph unicode="&#x200a;" horiz-adv-x="98" />
<glyph unicode="&#x2010;" horiz-adv-x="667" d="M730 469q38 -37 20.5 -70.5t-62.5 -25.5q-287 -20 -334 -20.5t-78 9.5q-51 0 -73 41q-39 51 67 70l37 4q129 29 257 29t166 -37z" />
<glyph unicode="&#x2011;" horiz-adv-x="667" d="M730 469q38 -37 20.5 -70.5t-62.5 -25.5q-287 -20 -334 -20.5t-78 9.5q-51 0 -73 41q-39 51 67 70l37 4q129 29 257 29t166 -37z" />
<glyph unicode="&#x2012;" horiz-adv-x="667" d="M730 469q38 -37 20.5 -70.5t-62.5 -25.5q-287 -20 -334 -20.5t-78 9.5q-51 0 -73 41q-39 51 67 70l37 4q129 29 257 29t166 -37z" />
<glyph unicode="&#x2013;" d="M823 506q115 0 153 -37t20.5 -70.5t-62.5 -25.5q-319 -20 -586 -21q-41 0 -72 10q-51 0 -73 41q-39 51 67 70l37 4q129 29 516 29z" />
<glyph unicode="&#x2014;" horiz-adv-x="1159" d="M1063 502q102 0 121.5 -7.5t47.5 -35t10.5 -60t-62.5 -24.5l-113 -10q-154 -10 -719 -11q-41 0 -72 11q-51 0 -73 38q-35 47 53 64q102 18 403.5 26.5t403.5 8.5z" />
<glyph unicode="&#x2018;" horiz-adv-x="239" d="M608.5 1006.5q-16.5 -60.5 -77 -99.5t-134.5 -8q-35 23 -56.5 62.5t-12.5 66.5q8 55 26.5 105.5t22.5 62.5q18 72 123 188q0 8 19.5 12.5t29.5 8.5q16 0 33.5 2t33.5 -8q43 -27 0 -86q-90 -145 -94 -161.5t-6 -23.5q35 6 72 -24q37 -37 20.5 -97.5z" />
<glyph unicode="&#x2019;" horiz-adv-x="239" d="M386 1287.5q15 60.5 75.5 99t134.5 8.5q35 -23 56.5 -64t13.5 -67q-8 -55 -26.5 -105.5t-23.5 -62.5q-18 -68 -122 -187q0 -8 -19.5 -12t-30.5 -8q-16 0 -33.5 -2t-31.5 8q-41 27 0 86q90 145 94 161.5t6 22.5q-35 -6 -71 25q-37 37 -22 97.5z" />
<glyph unicode="&#x201a;" horiz-adv-x="239" d="M33.5 167.5q15.5 61.5 76 100.5t134.5 8q35 -23 56.5 -63.5t12.5 -67.5q-8 -55 -26.5 -105t-22.5 -63q-18 -68 -123 -186q0 -8 -19.5 -12t-29.5 -8q-16 0 -33.5 -2t-33.5 8q-39 27 2 86q92 150 95 163t5 19q-35 -6 -72 25q-37 36 -21.5 97.5z" />
<glyph unicode="&#x201c;" horiz-adv-x="546" d="M605.5 1009.5q-15.5 -61.5 -76 -100.5t-134.5 -8q-35 23 -56.5 64t-12.5 67q8 55 26.5 105.5t22.5 62.5q18 68 123 186q0 8 19.5 12.5t29.5 8.5q16 0 33.5 2t33.5 -8q39 -27 -2 -86q-92 -150 -95 -163t-5 -19q35 6 72 -25q37 -37 21.5 -98.5zM970.5 1009.5 q-16.5 -61.5 -76.5 -100.5t-134 -8q-35 23 -56.5 64t-13.5 67q8 55 26.5 105.5t22.5 62.5q18 68 123 186q0 8 19.5 12.5t35 9.5t46 -1t36.5 -39q4 -18 -54 -110.5t-61 -105.5t-5 -19q35 6 71 -25q37 -37 20.5 -98.5z" />
<glyph unicode="&#x201d;" horiz-adv-x="546" d="M726 1265.5q15 61.5 75.5 100.5t134.5 8q35 -23 56.5 -63.5t13.5 -67.5q-8 -55 -26.5 -105.5t-23.5 -62.5q-18 -68 -122 -186q0 -8 -19.5 -12.5t-30.5 -8.5q-16 0 -33.5 -2t-33.5 8q-39 27 2 87q92 150 95 163t5 19q-35 -6 -71 24q-37 37 -22 98.5zM360.5 1265.5 q16.5 61.5 77 100.5t133.5 8q35 -23 56.5 -63.5t13.5 -67.5q-8 -55 -26.5 -105.5t-22.5 -62.5q-18 -68 -123 -186q0 -8 -19.5 -12.5t-35 -9.5t-46 1t-36.5 39q-4 18 54 110.5t61.5 106t5.5 19.5q-35 -6 -72 24q-37 37 -20.5 98.5z" />
<glyph unicode="&#x201e;" horiz-adv-x="546" d="M404.5 167.5q15.5 61.5 76 100.5t133.5 8q35 -23 56.5 -63.5t13.5 -67.5q-8 -55 -26.5 -105t-22.5 -63q-18 -68 -123 -186q0 -8 -19.5 -12t-29.5 -8q-16 0 -33.5 -2t-32.5 8q-41 27 0 86q92 150 95.5 163t5.5 19q-35 -6 -72 25q-37 36 -21.5 97.5zM39 167.5 q16 61.5 76.5 100.5t134.5 8q35 -23 56.5 -63.5t12.5 -67.5q-8 -55 -26.5 -105t-22.5 -63q-18 -68 -123 -186q0 -8 -19 -12t-34.5 -9.5t-46.5 1t-37 39.5q-4 18 54.5 110t61.5 105.5t5 19.5q-35 -6 -72 25q-36 36 -20 97.5z" />
<glyph unicode="&#x2022;" horiz-adv-x="382" d="M393 770q35 18 91.5 4t80.5 -49q37 -135 -76 -260q-68 -84 -196 -14q-16 14 -19.5 71.5t8 87t44 82.5t67.5 78z" />
<glyph unicode="&#x2026;" horiz-adv-x="1216" d="M1044 266q37 23 54.5 25t54.5 -15q61 -39 54 -86t-83 -84q-70 -29 -120 11q-75 71 40 149zM639 266q37 23 54.5 25t54.5 -15q61 -39 54 -86t-83 -84q-70 -29 -121 11q-74 71 41 149zM233 266q37 23 54.5 25t54.5 -15q61 -39 54 -86t-83 -84q-70 -29 -120 11 q-75 71 40 149z" />
<glyph unicode="&#x202f;" horiz-adv-x="353" />
<glyph unicode="&#x2039;" d="M848 874q-6 -59 -23.5 -74.5t-54.5 -41.5q-74 -59 -177.5 -151.5t-121.5 -120t-12 -66.5q51 -115 264 -234q82 -41 116.5 -113.5t-8.5 -84.5q-80 -8 -159 28q-43 25 -61.5 33t-35 17.5t-24.5 15.5t-19 14q-20 14 -36 35q-111 63 -181 191l-65 86l-14 77q20 4 38 47 q12 23 44 50.5t93.5 79t112.5 94.5q70 51 152 133q41 45 53 45q18 6 41 -9.5t41 -21.5q33 -13 37 -29z" />
<glyph unicode="&#x203a;" d="M365 39q6 29 27.5 47t191.5 172t187 183.5t13 54.5q-55 123 -278 247q-90 45 -128 106.5t3 72.5q117 10 194 -25q43 -25 61.5 -33t35 -17t25 -15.5t20.5 -14.5q18 -14 35 -35q111 -63 180 -190l49 -86l14 -62q-18 -4 -31.5 -38.5t-15.5 -34.5q-35 -43 -246 -224 q-70 -51 -151 -133q-41 -45 -53 -45q-8 -4 -43 19.5t-52 27.5q-36 9 -38 23z" />
<glyph unicode="&#x205f;" horiz-adv-x="442" />
<glyph unicode="&#x20ac;" horiz-adv-x="921" d="M422 504l235 -2q111 -4 158 -47q31 -33 12.5 -66t-63.5 -24q-10 0 -98 1t-108.5 -1.5t-178.5 -2.5q-12 -49 -25 -129q10 -57 -2 -57q8 -57 43 -88q18 -18 62 -12q35 -4 114.5 13t100.5 32q35 12 59 12q8 4 50 23.5t61 31.5q131 51 166 41q51 -8 -4 -86q-14 -18 -72 -59 t-77 -43t-71 -35q-135 -76 -237 -78q-57 -16 -147.5 15.5t-153.5 83.5q-18 27 -53 104.5t-29 85.5q14 20 8 43q-12 27 10 107q-23 0 -51 12q-55 0 -74 41q-23 31 4 48t103 24l61 6q51 121 70 164q-39 0 -66 12q-55 2 -73 43q-45 59 106 69q25 4 98 9q78 150 230.5 312.5 t240.5 199.5q92 33 140 24q111 -14 184 -106q29 -55 45 -152q16 -113 -10 -160q-4 -8 -5 -11t-4 -8t-4 -7t-4.5 -5t-5.5 -5q-14 -6 -26 -7q-33 -12 -131 62q2 33 12 63q63 160 -29 185q-121 4 -245 -144q-111 -127 -183 -237l191 -2q111 -4 157 -47q31 -31 12.5 -65 t-63.5 -26q-45 -8 -381 -2q-43 -100 -59 -153z" />
<glyph unicode="&#x2122;" horiz-adv-x="1351" d="M770 1284q-41 -121 -47 -129q4 -10 -43 -137l-78 -225q-31 -57 -51 -164l-14 -54q-18 -51 -80 -38q-16 4 -41 25.5t-24 42t20 95.5l47 164q18 31 27.5 77t76.5 251q14 23 21 49q10 4 10 25q2 2 3 5t3 3l-18 2q-4 -2 -3 -7t-4 -5q-102 0 -129 -9q-37 -2 -57 15.5t-16 40 t19.5 44t37.5 23.5q258 33 365 39q113 0 170 -41q27 -18 29.5 -35.5t-2.5 -43t-15 -31.5q-70 -20 -113 -2q-16 16 -82 22zM1657 1083q-27 -117 -37 -144.5t-20.5 -81.5t-10.5 -75q-14 -31 -14 -129q-4 -25 -4 -35l-2 -20q-2 -16 -26.5 -35.5t-43.5 -21.5q-2 -10 -20 -13 q-47 -2 -70 33q-10 35 -6 103v12q8 43 86 393q25 90 31 129q-141 -262 -146.5 -269t-23.5 -42q-18 -33 -68 -103q0 -8 -25.5 -46t-61.5 -75.5t-62.5 -45t-63.5 27.5q-35 37 -35 90t6 92l23 136l8 69q-4 -8 -13 -25.5t-15.5 -29.5t-18.5 -39q-102 -231 -120.5 -267t-24.5 -48 q-25 -55 -62 -93q-20 0 -57 24t-51 42q-8 18 21.5 87t57.5 95q6 27 9 37q12 6 49 84l112 205v-2l15 24q78 141 97.5 160t19.5 41.5t29.5 56t45.5 33.5q41 0 60 -26q41 -61 35 -115q-8 -68 -11 -72q-4 -8 -4 -28q-68 -209 -67 -320q0 2 6 8q4 6 18 41l51 90q59 88 164 281 l37 61q25 45 92 97q35 25 95.5 -14.5t63.5 -104t-48 -232.5z" />
<glyph unicode="&#x25fc;" horiz-adv-x="737" d="M0 737h737v-737h-737v737z" />
</font>
</defs>
</svg>
