<?xml version="1.0" encoding="UTF-8" standalone="no"?>
<!-- Created with Inkscape (http://www.inkscape.org/) -->

<svg
   xmlns:dc="http://purl.org/dc/elements/1.1/"
   xmlns:cc="http://creativecommons.org/ns#"
   xmlns:rdf="http://www.w3.org/1999/02/22-rdf-syntax-ns#"
   xmlns:svg="http://www.w3.org/2000/svg"
   xmlns="http://www.w3.org/2000/svg"
   xmlns:sodipodi="http://sodipodi.sourceforge.net/DTD/sodipodi-0.dtd"
   xmlns:inkscape="http://www.inkscape.org/namespaces/inkscape"
   width="296mm"
   height="9mm"
   viewBox="0 0 296 9"
   version="1.1"
   id="svg8"
   inkscape:version="0.92.3 (2405546, 2018-03-11)"
   sodipodi:docname="hrMenu1.svg">
  <defs
     id="defs2" />
  <sodipodi:namedview
     id="base"
     pagecolor="#ffffff"
     bordercolor="#666666"
     borderopacity="1.0"
     inkscape:pageopacity="0.0"
     inkscape:pageshadow="2"
     inkscape:zoom="0.98994949"
     inkscape:cx="331.68375"
     inkscape:cy="179.08695"
     inkscape:document-units="mm"
     inkscape:current-layer="layer1"
     showgrid="false"
     height="73mm"
     inkscape:window-width="1920"
     inkscape:window-height="1029"
     inkscape:window-x="0"
     inkscape:window-y="0"
     inkscape:window-maximized="1" />
  <metadata
     id="metadata5">
    <rdf:RDF>
      <cc:Work
         rdf:about="">
        <dc:format>image/svg+xml</dc:format>
        <dc:type
           rdf:resource="http://purl.org/dc/dcmitype/StillImage" />
        <dc:title />
      </cc:Work>
    </rdf:RDF>
  </metadata>
  <g
     inkscape:label="Calque 1"
     inkscape:groupmode="layer"
     id="layer1"
     transform="translate(0,-288)">
    <path
       style="opacity:1;fill:#000000;fill-opacity:1;fill-rule:nonzero;stroke:#000000;stroke-width:0.1571569;stroke-opacity:1"
       id="path1517"
       d="m 42.818275,293.0052 c 0.445008,-0.23404 0.92607,-0.41466 1.4286,-0.54399 0.2446,-0.0383 0.467903,-0.12689 0.707534,-0.18214 0.262916,-0.0499 0.532598,-0.0583 0.801096,-0.0619 0.289416,-0.0218 0.563271,0.0533 0.83476,0.12395 0.104403,0.0165 0.211235,0.0174 0.31725,0.02 0.194237,0.004 0.388554,0.003 0.582826,0.002 0.184892,-3.7e-4 0.369785,-5.4e-4 0.554681,-5.4e-4 0.198583,-9e-5 0.397166,-9e-5 0.59575,-9e-5 0.211413,0 0.422826,1e-5 0.634237,1e-5 0.217808,0 0.435614,0 0.653422,0 0.275144,0.0115 0.530788,0.0947 0.80106,0.12714 0.176849,0.0148 0.354833,0.0167 0.532435,0.0181 0.218976,5.5e-4 0.437952,1.2e-4 0.656929,-1.8e-4 0.222492,-2.9e-4 0.444982,-3.9e-4 0.667476,-4.3e-4 0.24059,-3e-5 0.481181,-3e-5 0.721772,-3e-5 0.334336,-0.0223 0.65685,0.0507 0.981652,0.10146 0.212214,0.0308 0.427327,0.0367 0.642145,0.0415 0.225674,0.003 0.451399,0.003 0.6771,0.002 0.03821,-6e-5 0.07653,0.002 0.114631,-1.7e-4 0.08878,-0.006 -0.105078,-0.002 -0.104097,-0.002 0.116393,-0.0421 0.248584,-0.0602 0.371685,-0.0838 0.01862,-0.0354 0.791067,-0.0527 0.476558,-0.0543 0.242815,-0.0805 0.499618,-0.11519 0.758277,-0.13721 -0.274955,0.0343 0.617482,-0.0611 0.32186,-0.0124 -0.31826,0.0524 -0.12369,4e-4 -0.06146,-0.0187 0.272287,-0.0822 0.559401,-0.10737 0.846614,-0.12047 -0.361067,0.0379 0.300826,-0.10027 0.339717,-0.10741 0.324722,-0.0781 0.637832,0.0121 0.95281,0.066 0.227912,0.0284 0.454269,0.0525 0.678685,0.10005 0.262896,0.0355 0.511421,0.11106 0.764887,0.17508 0.135057,0.0375 0.278857,0.0413 0.419929,0.0473 0.269123,-0.008 0.529641,0.04 0.784479,0.10781 0.099,0.0256 0.201449,0.0312 0.304214,0.0362 0.194115,0.005 0.388389,0.004 0.582576,0.004 0.253647,-3.8e-4 0.507291,-5.4e-4 0.760934,-5.4e-4 0.266983,-1.2e-4 0.533964,-1.3e-4 0.800943,-1.4e-4 0.219027,0 0.438051,0 0.657075,0 0.18072,0 0.36144,10e-6 0.542162,10e-6 0.259037,0 0.518071,0 0.777106,0 0.340409,0 0.680816,0 1.021224,0 0.287094,0 0.57419,0 0.861285,0 0.225137,0 0.450276,0 0.675413,0 0.200521,0 0.40104,0 0.60156,0 0.20584,0 0.411682,0 0.617522,0 0.210423,0 0.420845,0 0.631268,0 0.219329,0 0.438657,0 0.657984,0 0.20965,0 0.4193,0 0.62895,0 0.227073,0 0.454149,0 0.681223,0 0.232483,0 0.464964,0 0.697445,0 0.248192,0 0.496387,0 0.744578,0 0.247385,0 0.49477,0 0.742155,0 0.311095,0 0.62219,0 0.933283,0 0.2985,0 0.596999,0 0.895498,0 0.283813,0 0.567623,0 0.851434,0 0.229297,0 0.458593,0 0.68789,0 0.181707,0 0.363415,0 0.545122,0 0.204662,0 0.409324,0 0.613985,0 0.260508,0 0.521016,0 0.781524,0 0.402188,0 0.804375,0 1.206561,0 0.352721,0 0.705441,0 1.058162,0 0.294424,0 0.588848,0 0.883274,0 0.282902,0 0.565806,0 0.848711,0 0.238899,0 0.477796,0 0.716695,0 0.239037,0 0.478074,0 0.717112,0 0.26439,0 0.528781,0 0.793172,0 0.250954,0 0.501908,0 0.752861,0 0.199926,0 0.399854,0 0.59978,0 0.17537,0 0.350742,0 0.526112,0 0.190894,0 0.381787,0 0.572681,0 0.140384,0.009 0.579009,-0.0196 0.09225,0.0166 0.187043,-0.0798 0.390722,-0.11749 0.596439,-0.14483 0.157014,-0.0163 0.315383,-0.0171 0.473362,-0.0173 0.126704,2.6e-4 0.253408,5.4e-4 0.380113,0.001 0.166059,1.9e-4 0.332117,2e-4 0.498174,2.2e-4 0.552262,-0.0122 0.763722,0.13062 1.130773,0.43472 0.100668,0.14837 0.10742,0.1406 0.166643,0.28086 0.01229,0.0291 0.05084,0.11502 0.03152,0.0887 -0.164201,-0.22385 -0.161219,-0.32249 -0.406854,-0.44916 -0.230687,-0.0752 -0.266182,-0.0646 -0.06947,-0.0643 0.119367,-2.2e-4 0.238731,-0.001 0.358097,-0.001 0.151036,-3.7e-4 0.302072,-3.7e-4 0.453107,-4e-4 0.173107,-2e-5 0.346214,-10e-6 0.519318,0 0.215114,0 0.430233,0 0.645347,0 0.232081,0 0.46416,0 0.69624,0 0.29752,-0.0109 0.588057,0.007 0.878527,0.0636 0.172136,0.0455 0.350436,0.0644 0.529987,0.0735 0.220583,0.01 0.441611,0.008 0.662424,0.009 0.09859,0.007 0.312145,-0.0554 0.543426,-0.0922 0.257098,-0.0361 0.517194,-0.0484 0.777441,-0.053 0.03725,-3.3e-4 0.13495,-0.0253 0.111867,-10e-4 -0.02345,0.0246 -0.07574,4.2e-4 -0.113451,0.003 -0.01557,0.001 -0.05981,0.0131 -0.0461,0.007 0.09263,-0.0424 0.233103,-0.0656 0.330548,-0.0886 0.371195,-0.0685 0.754146,-0.0618 1.132182,-0.0646 0.379602,-0.002 0.759221,-0.001 1.138821,-0.001 0.29235,3.2e-4 0.58466,4.7e-4 0.87699,5.4e-4 0.32174,-0.0173 0.63025,0.0221 0.93325,0.11304 0.058,0.0227 0.11641,0.0261 0.17981,0.0296 0.14893,0.004 0.29799,0.003 0.44701,0.003 0.20494,-3.9e-4 0.4099,-5.4e-4 0.61485,-5.4e-4 0.185,-1.3e-4 0.37001,-1.4e-4 0.55501,-1.4e-4 0.16495,-1e-5 0.3299,0 0.49486,0 0.15725,0 0.31451,0 0.47175,0 0.19659,0 0.39315,0 0.58972,0 0.18575,0 0.37149,0 0.55725,0 0.19515,0 0.3903,0 0.58546,0 0.15309,0 0.30619,0 0.45928,0 0.11198,0.0145 0.33434,-0.0435 -0.0897,0.0197 -0.033,0.005 -0.11664,0.0491 -0.0951,0.0277 0.006,-0.007 0.16984,-0.0636 0.19292,-0.0717 0.20495,-0.08 0.42726,-0.10647 0.65091,-0.11724 0.11435,0.0136 0.37875,-0.0516 -0.0659,0.0197 -0.0312,0.005 -0.11429,0.044 -0.0897,0.0273 0.0167,-0.0113 0.17006,-0.0643 0.20251,-0.0757 0.22072,-0.0814 0.4601,-0.10421 0.6984,-0.11575 0.11224,-0.004 0.22461,-0.004 0.33693,-0.004 1.35612,-0.001 1.35792,1.589 0.003,1.59006 v 0 c -0.0774,4e-5 -0.15469,-2e-5 -0.23202,0.002 -0.18031,0.008 0.0536,-0.0299 -0.062,-0.006 -0.2208,0.0749 -0.43948,0.1659 -0.68817,0.15076 -0.11489,0.004 0.16958,-0.0538 -0.005,-0.006 -0.24143,0.0831 -0.48545,0.17143 -0.75517,0.14986 -0.15309,0 -0.30619,0 -0.45927,0 -0.19516,0 -0.39033,0 -0.58549,0 -0.18575,0 -0.37148,0 -0.55723,0 -0.19657,0 -0.39313,0 -0.58971,0 -0.15727,0 -0.31454,0 -0.47181,0 -0.16491,0 -0.32981,0 -0.49471,0 -0.18444,10e-6 -0.36887,2e-5 -0.55329,1.4e-4 -0.20488,1.6e-4 -0.40977,4.2e-4 -0.61465,5.4e-4 -0.20323,1.7e-4 -0.40669,0.002 -0.60964,-0.008 -0.22909,-0.017 -0.45684,-0.0501 -0.67244,-0.11906 -0.028,-0.008 -0.0588,-0.0118 -0.0838,-0.0251 -0.014,-0.008 0.0327,0.006 0.0495,0.007 0.0347,0.002 0.13882,-0.002 0.10415,4.4e-4 -0.11611,0.008 -0.23427,-0.006 -0.3505,-4e-5 -0.29289,-8e-5 -0.58578,-2.3e-4 -0.87867,-5.4e-4 -0.37314,-3.7e-4 -0.74628,-10e-4 -1.119431,5.4e-4 -0.22166,0.002 -0.444677,0.002 -0.665536,0.0133 -0.230121,0.057 -0.472134,0.14869 -0.726409,0.13115 -0.156103,0.003 -0.311996,0.008 -0.466754,0.0265 -0.297769,0.0431 -0.588283,0.13508 -0.895457,0.11898 -0.263892,-1.4e-4 -0.528041,5.4e-4 -0.791578,-0.0122 -0.287408,-0.0172 -0.574634,-0.0464 -0.851841,-0.11461 -0.02432,-0.005 -0.07137,0.005 -0.07294,-0.0156 -0.0016,-0.0198 0.09525,-0.001 0.07153,-0.003 -0.139888,-0.0129 -0.284553,0.01 -0.424896,0 -0.232083,0 -0.464166,0 -0.696246,0 -0.215132,0 -0.43026,0 -0.645392,-10e-6 -0.172956,0 -0.345912,-1e-5 -0.518868,10e-6 -0.148887,2e-5 -0.297772,2e-5 -0.446658,3.8e-4 -0.123918,3.6e-4 -0.247834,0.001 -0.371752,0.001 -0.268935,-0.001 -0.532117,-0.008 -0.78268,-0.10411 -0.120379,-0.0568 -0.257728,-0.11231 -0.343351,-0.20738 -0.51877,-0.57602 -0.239002,-0.38261 -0.145188,-0.20535 0.264973,0.19393 0.247899,0.18583 0.570849,0.22601 3e-5,0 -0.141904,-10e-6 -0.145652,-10e-6 -0.167128,-1e-5 -0.334256,-2e-5 -0.501386,-2.1e-4 -0.124768,-1.9e-4 -0.249535,-5.3e-4 -0.374302,-10e-4 -0.07427,5e-5 -0.148642,-4.3e-4 -0.222791,0.003 0.02996,-0.008 0.03198,-0.007 0.005,-0.003 -0.003,2.1e-4 -0.01155,0.002 -0.0091,5.4e-4 0.0129,-0.007 0.05469,-0.0217 0.04067,-0.0169 -0.05684,0.0195 -0.110125,0.0458 -0.16846,0.0625 -0.261488,0.0834 -0.532177,0.11069 -0.809815,0.0989 -0.190894,0 -0.381786,0 -0.572682,0 -0.17537,0 -0.350741,0 -0.52611,0 -0.199928,0 -0.399854,0 -0.599781,0 -0.250954,0 -0.501907,0 -0.75286,0 -0.264393,0 -0.528784,0 -0.793174,0 -0.239038,0 -0.478073,0 -0.717111,0 -0.238898,0 -0.477796,0 -0.716696,0 -0.282904,0 -0.565807,0 -0.84871,0 -0.294425,0 -0.58885,0 -0.883274,0 -0.352721,0 -0.705441,0 -1.058161,0 -0.402187,0 -0.804376,0 -1.206562,0 -0.260509,0 -0.521015,0 -0.781524,0 -0.204662,0 -0.409325,0 -0.613986,0 -0.181706,0 -0.363413,0 -0.545121,0 -0.229298,0 -0.458591,0 -0.68789,0 -0.283811,0 -0.567621,0 -0.851434,0 -0.298499,0 -0.596997,0 -0.895498,0 -0.311093,0 -0.622188,0 -0.933282,0 -0.247387,0 -0.49477,0 -0.742155,0 -0.248193,0 -0.496388,0 -0.744579,0 -0.232481,0 -0.464964,0 -0.697445,0 -0.227074,0 -0.45415,0 -0.681223,0 -0.20965,0 -0.419299,0 -0.628948,0 -0.219329,0 -0.438657,0 -0.657986,0 -0.210422,0 -0.420845,0 -0.631268,0 -0.205839,0 -0.411682,0 -0.617522,0 -0.20052,0 -0.401039,0 -0.601559,0 -0.225139,0 -0.450276,0 -0.675414,0 -0.287096,0 -0.57419,0 -0.861285,0 -0.340408,0 -0.680815,0 -1.021223,0 -0.259036,0 -0.518074,0 -0.777111,0 -0.180727,0 -0.361454,0 -0.54218,-10e-6 -0.218994,0 -0.437988,0 -0.656984,0 -0.266538,10e-6 -0.533077,2e-5 -0.799614,1.4e-4 -0.253557,1.6e-4 -0.507113,4e-4 -0.76067,5.4e-4 -0.235724,1.7e-4 -0.471625,0.002 -0.707171,-0.007 -0.261739,-0.0145 -0.522118,-0.0432 -0.77274,-0.11042 -0.03919,-0.0108 -0.251887,-0.0864 0.0096,-0.0267 0.291629,0.0666 -0.629978,-0.0553 -0.307821,-0.006 -0.304003,-0.0143 -0.609204,-0.04 -0.899635,-0.1207 -0.253909,-0.0689 -0.354691,-0.10494 -0.661074,-0.15016 -0.168427,-0.0371 -0.422635,-0.0486 -0.649415,-0.094 -0.228023,-0.0479 -0.37975,-0.0555 -0.0387,-0.0593 0.02076,-2.4e-4 -0.0564,0.005 -0.06214,0.003 -0.211752,0.0327 -0.41308,0.146 -0.641263,0.1403 -0.09688,0.004 -0.194753,0.004 -0.288462,0.0264 -0.233935,0.0701 -0.475388,0.12355 -0.72615,0.11939 -0.106695,0.008 -0.205481,0.013 -0.304592,0.0526 -0.227881,0.0613 -0.458204,0.0945 -0.696482,0.1073 -0.266506,0.0486 -0.523039,0.1465 -0.803541,0.12519 -0.244202,3.6e-4 -0.488438,0.001 -0.732607,-0.003 -0.31918,-0.007 -0.638531,-0.0211 -0.953163,-0.0696 -0.213747,-0.0347 -0.401174,-0.0909 -0.618576,-0.0727 -0.240424,0 -0.480849,-1e-5 -0.721275,2e-5 -0.221567,5e-5 -0.443135,1.5e-4 -0.664702,4.4e-4 -0.226432,3.1e-4 -0.452867,0.001 -0.679298,1.1e-4 -0.266295,-0.002 -0.533284,-0.007 -0.797688,-0.0355 -0.15271,-0.0194 -0.303239,-0.0414 -0.452939,-0.0735 -0.05007,-0.0107 -0.184661,-0.003 -0.149476,-0.0344 0.01945,-0.0174 0.05715,-0.001 0.08573,-0.002 -0.217812,0 -0.435624,0 -0.653436,0 -0.211398,0 -0.422798,-10e-6 -0.634197,-10e-6 -0.19809,0 -0.396179,0 -0.594268,9e-5 -0.184146,1.2e-4 -0.36829,3.3e-4 -0.552434,5.4e-4 -0.216768,3.6e-4 -0.433589,0.002 -0.650306,-0.003 -0.279372,-0.008 -0.559592,-0.0242 -0.828687,-0.0923 -0.521357,-0.13609 0.241004,-0.0141 -0.230194,-0.051 -0.117815,0.002 -0.235847,0.004 -0.353108,0.012 -0.211184,0.0511 -0.412917,0.13922 -0.633924,0.16516 -0.324197,0.0743 -0.626699,0.20362 -0.915769,0.34398 -1.128362,0.62367 -2.192194,-0.69934 -1.063832,-1.32301 z"
       inkscape:connector-curvature="0" />
    <path
       style="opacity:1;fill:#000000;fill-opacity:1;fill-rule:nonzero;stroke:#000000;stroke-width:0.15748172;stroke-opacity:1"
       id="path1519"
       d="m 185.4916,292.93154 c 0.45655,-0.0595 0.91685,-0.0932 1.37786,-0.1174 0.28675,-0.0104 0.56643,-0.0756 0.85,-0.11362 0.25853,-0.006 0.46916,-0.0656 0.72041,-0.11466 0.28629,-0.0528 0.57942,-0.0691 0.87179,-0.077 0.19329,-0.004 0.38668,-0.003 0.58002,-0.003 0.17413,4.6e-4 0.3483,5.4e-4 0.52244,5.4e-4 0.19655,-0.0209 0.48724,0.10333 0.63713,0.13003 0.22471,0.008 0.44295,0.0228 0.66613,0.0509 0.25475,0.0564 0.51055,0.10467 0.76257,0.16939 0.17505,0.0549 0.36066,0.0671 0.54571,0.0769 0.36796,0.0512 0.73373,0.11122 1.08856,0.20737 0.18833,0.0521 0.3844,0.0717 0.58154,0.0814 0.2212,0.009 0.44278,0.008 0.66419,0.008 0.21195,-4.9e-4 0.42393,-10e-4 0.63589,-10e-4 0.19146,-2.1e-4 0.38292,-2.3e-4 0.57436,-2.3e-4 0.20873,-10e-6 0.41744,0 0.62617,1e-5 0.21481,0 0.42966,0 0.64447,0 0.26656,0 0.53312,0 0.7997,0 0.28792,0 0.57587,0 0.8638,0 0.26924,0 0.53846,0 0.8077,0 0.27484,0 0.5497,0 0.82457,0 0.28983,0 0.57968,0 0.86952,0 0.27622,0 0.55243,0 0.82865,0 0.0504,0.0228 0.73587,-0.034 0.35269,0.002 0.22407,-0.0733 0.45908,-0.11129 0.6977,-0.13314 0.11143,-0.0162 0.2268,-0.003 0.3385,-0.0133 0.0246,-0.002 -0.0499,0.003 -0.0739,-10e-4 -0.01,-0.002 0.0151,-0.006 0.0232,-0.008 0.0396,-0.0101 0.0796,-0.0186 0.11944,-0.0278 0.28485,-0.0635 0.57769,-0.0899 0.87146,-0.10222 0.21662,-0.007 0.43349,-0.007 0.65024,-0.006 0.18294,2.8e-4 0.36586,5.4e-4 0.54877,5.4e-4 0.18772,1.4e-4 0.37542,1.3e-4 0.56312,1.3e-4 0.20081,10e-6 0.40163,0 0.60244,0 -0.34708,0.0174 0.40315,-0.10302 0.43954,-0.10803 0.23889,-0.029 0.48035,-0.0346 0.72138,-0.037 0.181,-10e-4 0.362,-2.4e-4 0.54302,1e-4 0.41354,0.0298 0.65723,0.15183 0.987,0.34349 0.23681,0.12978 0.38903,0.32207 0.48922,0.53668 0.01,0.0261 0.0211,0.0516 0.0282,0.0782 0.10233,0.39107 -0.0278,-0.0868 -0.12364,-0.18285 -0.0555,-0.0946 -0.3292,-0.18065 -0.39619,-0.19544 0.11269,5.3e-4 0.22539,-3.3e-4 0.33809,-5.4e-4 0.17138,-5.3e-4 0.34278,-5.4e-4 0.51414,-5.4e-4 -0.093,0.0376 0.40768,-0.0297 0.31057,-5e-5 -0.0341,0.0104 -0.0725,-5.4e-4 -0.10876,0.001 -0.0143,5.4e-4 -0.0555,0.011 -0.0428,0.005 0.0279,-0.0124 0.0597,-0.0175 0.0894,-0.0262 0.25762,-0.0819 0.53329,-0.10452 0.80644,-0.11848 0.19269,-0.007 0.38561,-0.007 0.57846,-0.007 0.15834,4e-4 0.31669,5.4e-4 0.47506,5.4e-4 0.14918,1.2e-4 0.2984,1.4e-4 0.44758,1.4e-4 0.19262,0 0.38522,0 0.57783,0 0.22225,0 0.44449,0 0.66672,0 0.22764,0 0.45529,0 0.68295,0 0.23872,0 0.47746,0 0.71619,0 0.23387,0 0.46771,0 0.70156,0 0.25013,0 0.50028,0 0.75044,0 0.2201,0 0.44021,0 0.66032,0 0.18926,0 0.37856,0 0.56782,0 0.17551,0 0.35098,0 0.52647,0 0.17488,0 0.34975,0 0.52463,0 0.17504,0 0.3501,0 0.52516,0 0.1847,0 0.36943,0 0.55411,0 0.27476,0 0.54953,0 0.82427,0 0.37542,0 0.75084,0 1.12625,0 0.31827,0 0.63654,0 0.95479,0 0.32689,0 0.65377,0 0.98068,0 0.26299,0 0.52595,0 0.78893,0 0.24318,0 0.48634,0 0.72948,0 0.20024,0 0.40048,0 0.60069,0 0.0311,0 0.12419,-0.003 0.0934,0 -0.31074,0.0346 -0.30226,0.0389 -0.008,-0.0548 0.25642,-0.0733 0.52634,-0.0846 0.79488,-0.0894 0.21154,-0.002 0.42309,-0.002 0.63462,-10e-4 0.19456,3.3e-4 0.38911,4.9e-4 0.58364,5.4e-4 0.17082,6e-5 0.34166,5e-5 0.51248,5e-5 0.22926,-10e-6 0.45851,-10e-6 0.68778,-10e-6 0.19543,0 0.39083,0 0.58626,0 0.26857,-0.0226 0.50848,0.0787 0.75862,0.13269 0.13372,0.0114 0.30574,0.0316 0.45096,0.0528 0.25175,0.0337 0.47323,0.15583 0.70366,0.22402 0.0905,0.0204 0.18651,0.0214 0.28004,0.0239 0.16262,0.003 0.3253,0.002 0.48793,10e-4 0.20677,-5.4e-4 0.41354,-10e-4 0.62028,-10e-4 0.036,0.007 0.38623,-0.01 0.11021,2e-4 -0.0629,0.002 -0.17612,0.0474 0.0619,-0.0329 -0.0455,0.0173 -0.0919,0.0332 -0.13663,0.0519 -0.23517,0.0983 0.34603,-0.2197 0.0612,-0.0537 0.27324,-0.23881 0.62751,-0.34414 1.01279,-0.38558 0.21743,-0.0173 0.43608,-0.0155 0.65423,-0.0152 0.20604,5.4e-4 0.41207,10e-4 0.61811,10e-4 0.21114,2.2e-4 0.4223,2.2e-4 0.63344,2.3e-4 0.21474,1e-5 0.42948,0 0.64422,-10e-6 0.0999,0.006 0.2934,-0.0582 0.51701,-0.0926 0.23698,-0.0122 0.45228,-0.0423 0.67686,-0.091 0.31907,-0.078 0.65209,-0.0907 0.98235,-0.10073 0.33709,-0.012 0.67044,-0.0107 1.00506,0.0234 0.23929,0.0483 0.48083,0.0864 0.72635,0.10323 0.23601,0.013 0.47259,0.0136 0.70902,0.0142 0.28863,1.6e-4 0.5773,-3.7e-4 0.86597,-5.4e-4 0.25042,-2.3e-4 0.50082,-2.9e-4 0.75124,-3.2e-4 0.2003,-1e-5 0.40059,-1e-5 0.60091,-1e-5 0.19287,1e-5 0.38575,1e-5 0.57864,1e-5 0.22839,0 0.45677,0 0.68513,0 0.291,-0.009 0.57381,0.002 0.86164,0.0366 0.15552,0.0363 0.30512,0.0824 0.46539,0.0997 0.13727,0.009 0.27501,0.009 0.41259,0.009 0.19408,1.8e-4 0.38813,-3.9e-4 0.5822,-5.4e-4 0.18786,-2.6e-4 0.3757,-2.9e-4 0.56355,-3.1e-4 0.27007,-0.0128 0.52648,0.008 0.79307,0.0437 0.0775,0.0292 0.32363,0.0942 0.35414,0.0974 0.2029,-0.0471 0.362,0.12742 0.54345,0.15095 0.01,0.001 -0.0177,-0.008 -0.0265,-0.0116 0.0681,0.006 0.1384,0.008 0.2077,0.009 0.33999,-0.0128 0.63715,0.10042 0.89756,0.26683 1.0543,0.7116 -0.16454,1.94267 -1.21883,1.23107 v 0 c 0.13446,0.076 0.65744,0.11389 0.26937,0.0916 -0.22908,-0.005 -0.4594,-0.0187 -0.6815,-0.0688 -0.13379,-0.0353 -0.27037,-0.0692 -0.39433,-0.12562 -0.0163,-0.007 0.0348,0.0118 0.0529,0.015 0.0498,0.009 0.11794,-0.0111 0.1509,0.021 0.0315,0.0306 -0.0965,-0.01 -0.1447,-0.015 -0.18176,-0.0288 -0.37507,-0.0663 -0.54406,-0.13186 -0.0129,-0.005 0.0278,0.005 0.0417,0.007 0.46274,0.0253 -0.23251,1.6e-4 -0.30065,0.009 -0.18691,3e-5 -0.37378,5e-5 -0.56066,3.1e-4 -0.19781,2.8e-4 -0.39559,0.001 -0.59341,5.4e-4 -0.22613,-5.4e-4 -0.45285,-0.002 -0.67762,-0.0253 -0.20857,-0.0256 -0.41631,-0.0599 -0.61393,-0.12225 0.39861,0.007 -0.41801,-0.001 -0.44009,0.002 -0.22838,0 -0.45676,0 -0.68514,0 -0.19289,0 -0.38576,0 -0.57867,-1e-5 -0.20019,0 -0.4004,0 -0.60058,1e-5 -0.24975,4e-5 -0.49949,8e-5 -0.74925,3.2e-4 -0.29142,2.8e-4 -0.58284,10e-4 -0.87426,5.4e-4 -0.29172,-5.4e-4 -0.58369,-0.002 -0.87474,-0.0205 -0.29801,-0.023 -0.59491,-0.0583 -0.88506,-0.12047 0.17702,-0.0226 -0.45286,-0.003 -0.46608,-0.003 -0.0466,5.4e-4 -0.0933,0.002 -0.13979,0.002 -0.18837,0.005 -0.38021,0.003 -0.56211,0.0497 -0.27354,0.0592 -0.54768,0.10832 -0.83102,0.11894 -0.28467,0.0349 -0.55602,0.14498 -0.8518,0.11687 -0.2148,0 -0.4296,1e-5 -0.64441,0 -0.21205,-10e-6 -0.4241,-2e-5 -0.63616,-2.2e-4 -0.20618,-2.6e-4 -0.41236,-5.4e-4 -0.61854,-10e-4 -0.14056,-2e-4 -0.28118,-10e-4 -0.42165,0.004 -0.0611,0.004 0.16311,-0.0713 0.19912,-0.13851 -0.31623,0.2826 -0.13974,0.13713 -0.66557,0.42835 -0.27741,0.096 -0.56622,0.16066 -0.87096,0.14158 -0.20476,1.2e-4 -0.40954,3.7e-4 -0.61434,10e-4 -0.19116,5.4e-4 -0.38237,0.002 -0.57348,-0.003 -0.29411,-0.0109 -0.58882,-0.0365 -0.86743,-0.12056 -0.26542,-0.0873 -0.30441,-0.13432 -0.50673,-0.17384 0.36616,0.015 -0.45705,-0.0178 -0.48837,-0.0609 -0.0828,-0.0189 -0.52841,-0.12311 -0.15609,-0.0768 0.0318,0.004 -0.0643,0 -0.0965,0 -0.19542,0 -0.39082,0 -0.58624,0 -0.22927,0 -0.45853,0 -0.6878,0 -0.17114,0 -0.34229,10e-6 -0.51344,-5e-5 -0.19548,-8e-5 -0.391,-2.3e-4 -0.58649,-5.4e-4 -0.19753,-3.3e-4 -0.39509,-10e-4 -0.59261,5.4e-4 -0.0227,3.3e-4 -0.28178,0.0192 -0.16092,-0.0103 -0.17023,0.0436 -0.4984,0.19475 -0.75924,0.15474 -0.20021,0 -0.40045,0 -0.60069,0 -0.24315,0 -0.48631,0 -0.72946,0 -0.263,0 -0.52597,0 -0.78895,0 -0.32691,0 -0.65378,0 -0.98067,0 -0.31827,0 -0.63654,0 -0.95481,0 -0.37541,0 -0.75082,0 -1.12624,0 -0.27473,0 -0.54951,0 -0.82427,0 -0.18469,0 -0.36941,0 -0.55412,0 -0.17505,0 -0.3501,0 -0.52516,0 -0.17487,0 -0.34973,0 -0.52463,0 -0.17547,0 -0.35096,0 -0.52645,0 -0.18927,0 -0.37856,0 -0.56784,0 -0.2201,0 -0.44022,0 -0.66032,0 -0.25015,0 -0.50029,0 -0.75043,0 -0.23385,0 -0.4677,0 -0.70157,0 -0.23871,0 -0.47747,0 -0.71618,0 -0.22763,0 -0.45531,0 -0.68294,0 -0.22223,0 -0.44448,0 -0.6667,0 -0.19264,10e-6 -0.38531,10e-6 -0.57798,10e-6 -0.14983,-10e-6 -0.29967,-2e-5 -0.44951,-1.4e-4 -0.15859,-1.4e-4 -0.31717,-4e-4 -0.47575,-5.4e-4 -0.15366,-1.9e-4 -0.30741,-4.7e-4 -0.461,0.004 -0.094,0.004 -0.19126,5.5e-4 -0.27849,0.0301 -0.2889,0.0844 -0.58331,0.12822 -0.89012,0.11108 -0.16928,7e-5 -0.33852,1.7e-4 -0.50777,5.4e-4 -0.13817,4.3e-4 -0.27637,0.002 -0.41451,-3.3e-4 -0.3502,-0.0124 -0.63747,-0.0874 -0.91348,-0.28346 -0.22875,-0.2011 -0.25829,-0.3152 -0.37751,-0.58757 -0.0147,-0.0338 0.0242,0.0934 0.0328,0.10435 0.0949,0.17502 0.48367,0.41332 0.0989,0.16402 -0.14034,-0.0987 -0.17049,-0.11274 0.11925,0.0407 0.0265,0.014 -0.11636,-0.0352 -0.0851,-0.0334 0.0685,0.004 0.13677,0.0109 0.20516,0.0163 -0.17185,-3.3e-4 -0.34374,-10e-4 -0.51559,-2.2e-4 -0.14519,0.002 -0.29059,0.003 -0.43504,0.0165 -0.2533,0.0323 -0.48759,0.12634 -0.74887,0.12868 -0.20085,0 -0.4017,10e-6 -0.60255,0 -0.18837,0 -0.37673,10e-6 -0.56509,-1.3e-4 -0.18304,-1.6e-4 -0.36604,-5.2e-4 -0.54906,-5.5e-4 -0.18555,-1.8e-4 -0.37117,-5.4e-4 -0.55663,0.005 -0.14872,0.005 -0.29696,0.0156 -0.44204,0.0448 -0.23755,0.0548 -0.47691,0.10607 -0.7257,0.10106 -0.0953,0.007 -0.18286,0.0202 -0.27173,0.0549 -0.32283,0.0806 -0.64566,0.0969 -0.98092,0.0847 -0.27622,0 -0.55244,0 -0.82866,0 -0.28984,0 -0.57969,0 -0.86953,0 -0.27485,0 -0.54971,0 -0.82457,0 -0.26923,0 -0.53844,0 -0.80768,0 -0.28793,0 -0.57588,0 -0.86383,0 -0.26655,0 -0.53312,0 -0.79969,0 -0.21482,0 -0.42964,0 -0.64449,0 -0.20865,-1e-5 -0.41732,-1e-5 -0.62597,-1e-5 -0.19054,1e-5 -0.38109,2e-5 -0.57163,2.3e-4 -0.21219,2.6e-4 -0.42437,5.4e-4 -0.63656,0.001 -0.26437,2.4e-4 -0.52896,5.4e-4 -0.79302,-0.0117 -0.35915,-0.0207 -0.71586,-0.0632 -1.05863,-0.15807 -0.2027,-0.0557 -0.41616,-0.0819 -0.61842,-0.13106 -0.33321,-0.0201 -0.66695,-0.0529 -0.98407,-0.14479 -0.19918,-0.0512 -0.40143,-0.0879 -0.60347,-0.13461 0.0296,7e-5 0.11841,0.002 0.0888,2e-4 -0.22325,-0.0108 -0.44888,-0.002 -0.66989,-0.0374 -0.0715,-0.0116 -0.89247,-0.1742 -0.31076,-0.10684 -0.17533,-1e-4 -0.35066,-2.9e-4 -0.52599,-5.4e-4 -0.17182,-3.6e-4 -0.34368,-0.001 -0.51548,0.002 -0.1636,0.004 -0.32799,0.01 -0.48914,0.0353 -0.2842,0.0552 -0.5655,0.12616 -0.85908,0.13727 -0.34379,0.0441 -0.68229,0.12462 -1.03198,0.13033 -0.41061,0.0213 -0.82059,0.051 -1.22713,0.10459 -1.34804,0.15901 -1.6204,-1.41507 -0.27235,-1.57407 z"
       inkscape:connector-curvature="0" />
  </g>
</svg>
