<?xml version="1.0" encoding="UTF-8" standalone="no"?>
<!-- Created with Inkscape (http://www.inkscape.org/) -->

<svg
   xmlns:dc="http://purl.org/dc/elements/1.1/"
   xmlns:cc="http://creativecommons.org/ns#"
   xmlns:rdf="http://www.w3.org/1999/02/22-rdf-syntax-ns#"
   xmlns:svg="http://www.w3.org/2000/svg"
   xmlns="http://www.w3.org/2000/svg"
   xmlns:xlink="http://www.w3.org/1999/xlink"
   xmlns:sodipodi="http://sodipodi.sourceforge.net/DTD/sodipodi-0.dtd"
   xmlns:inkscape="http://www.inkscape.org/namespaces/inkscape"
   width="296mm"
   height="9mm"
   viewBox="0 0 296 9"
   version="1.1"
   id="svg8"
   inkscape:version="0.92.3 (2405546, 2018-03-11)"
   sodipodi:docname="hrMenu4-1.svg">
  <defs
     id="defs2">
    <linearGradient
       inkscape:collect="always"
       id="linearGradient876">
      <stop
         style="stop-color:#41963f;stop-opacity:0.94117647"
         offset="0"
         id="stop872" />
      <stop
         style="stop-color:#c8fb9f;stop-opacity:1"
         offset="1"
         id="stop874" />
    </linearGradient>
    <linearGradient
       inkscape:collect="always"
       xlink:href="#linearGradient876"
       id="linearGradient878"
       x1="126.28344"
       y1="291.8838"
       x2="229.12726"
       y2="291.88379"
       gradientUnits="userSpaceOnUse"
       gradientTransform="translate(-117.46368,0.2509072)" />
    <linearGradient
       inkscape:collect="always"
       xlink:href="#linearGradient876"
       id="linearGradient878-6"
       x1="126.28344"
       y1="291.88379"
       x2="229.12726"
       y2="291.88379"
       gradientUnits="userSpaceOnUse"
       gradientTransform="matrix(-0.99597065,0,0,1,409.57221,0.2509111)" />
  </defs>
  <sodipodi:namedview
     id="base"
     pagecolor="#ffffff"
     bordercolor="#666666"
     borderopacity="1.0"
     inkscape:pageopacity="0.0"
     inkscape:pageshadow="2"
     inkscape:zoom="2.8284271"
     inkscape:cx="191.56296"
     inkscape:cy="69.39923"
     inkscape:document-units="mm"
     inkscape:current-layer="layer1"
     showgrid="false"
     height="73mm"
     inkscape:window-width="1920"
     inkscape:window-height="1029"
     inkscape:window-x="0"
     inkscape:window-y="0"
     inkscape:window-maximized="1" />
  <metadata
     id="metadata5">
    <rdf:RDF>
      <cc:Work
         rdf:about="">
        <dc:format>image/svg+xml</dc:format>
        <dc:type
           rdf:resource="http://purl.org/dc/dcmitype/StillImage" />
        <dc:title></dc:title>
      </cc:Work>
    </rdf:RDF>
  </metadata>
  <g
     inkscape:label="Calque 1"
     inkscape:groupmode="layer"
     id="layer1"
     transform="translate(0,-288)">
    <path
       style="opacity:1;fill:url(#linearGradient878);fill-opacity:1;fill-rule:nonzero;stroke:none;stroke-width:0.182;stroke-miterlimit:4;stroke-dasharray:none;stroke-opacity:1"
       id="path870"
       d="m 11.28545,291.25036 2.41063,0.0331 5.16209,-0.3142 3.58892,-0.0661 3.9336,0.11575 c 1.03741,-0.0141 1.90886,0.14514 2.94608,0.12204 0.94401,-0.0168 1.88822,-0.0166 2.83235,-0.0176 1.1652,-5.6e-4 2.33039,-1.1e-4 3.49558,10e-5 1.22939,0.004 2.45886,-0.009 3.6881,0.0116 1.34454,0.0245 2.68837,0.0698 4.03234,0.11456 1.04479,0.0352 2.09006,0.051 3.13536,0.0588 0.69714,0.004 1.39428,0.004 2.09142,0.003 0.7702,-0.003 1.53955,0.0429 2.30919,0.0675 0.80298,0.008 1.60507,0.0364 2.4074,0.0681 0.79609,0.0326 1.59283,0.0424 2.38949,0.048 0.91786,0.0313 1.83562,0.0623 2.75387,0.0801 0.6345,0.0115 1.2691,0.0153 1.9037,0.0166 0.40474,4.8e-4 0.8095,3e-5 1.21425,-1.9e-4 0.40489,0.007 0.81037,-0.0118 1.21229,-0.0616 0.42248,-0.0671 0.84891,-0.0968 1.27593,-0.11332 0.60208,-0.0156 1.20445,-0.0133 1.80668,-0.0135 0.7048,1.6e-4 1.4096,6.4e-4 2.11441,8.8e-4 0.5634,-0.0175 1.12593,-0.0544 1.68919,-0.0757 0.35461,-0.009 0.70664,-0.0572 1.06028,-0.0834 0.35629,-0.0226 0.71333,-0.0258 1.0702,-0.0279 0.40236,-10e-4 0.80474,-5.2e-4 1.20711,-2.9e-4 0.4864,0.0129 0.97133,-0.0288 1.45662,-0.0547 0.39082,-0.02 0.782,-0.0315 1.17327,-0.0371 0.29077,-0.003 0.58157,-0.002 0.87234,-0.002 0.42339,0.0136 0.84464,-0.009 1.26661,-0.0396 0.29178,-0.003 0.57687,-0.0588 0.86461,-0.0986 0.47835,-0.0512 0.96089,-0.0451 1.44136,-0.0478 0.69355,4.5e-4 1.38721,-0.0295 2.07789,-0.0921 0.41156,-0.0542 0.82677,-0.0631 1.23979,-0.0978 0.45963,-0.0484 0.92142,-0.0679 1.38316,-0.0815 0.29754,-0.008 0.59518,-0.0103 0.89282,-0.0106 0.357027,0.0133 0.712007,-0.015 1.067787,-0.0396 0.35055,-0.0117 0.69762,-0.0382 1.04492,-0.0846 0.37223,-0.0497 0.74807,-0.0542 1.12293,-0.0595 0.50926,-0.004 1.01854,-0.003 1.52781,-0.003 0.41758,2.6e-4 0.83515,4.8e-4 1.25273,6e-4 0.24472,8e-5 0.48944,9e-5 0.73416,9e-5 h 0.79298 0.68048 c 0.36391,0.0293 0.72719,0.0615 1.09202,0.0775 0.3456,0.0136 0.6915,0.0153 1.03731,0.0165 0.32682,0.0204 0.65137,0.0616 0.97852,0.0776 0.40759,0.0152 0.81556,0.015 1.22337,0.016 0.33242,5.1e-4 0.66483,1.7e-4 0.99725,-1.2e-4 0.20667,-2e-4 0.41335,-2.5e-4 0.62003,-2.7e-4 0.302793,-2e-5 0.605583,-2e-5 0.908373,-2e-5 h 0.68972 0.75888 c 0.23791,0.005 0.46924,0.0657 0.70616,0.0787 0.38336,0.015 0.76713,0.0143 1.15072,0.0152 0.4093,5.4e-4 0.81861,1.6e-4 1.22791,-1e-4 0.22317,-1.7e-4 0.44633,-2.4e-4 0.6695,-2.8e-4 0.19935,-2e-5 0.39869,-2e-5 0.59803,-2e-5 0.23301,10e-6 0.46602,10e-6 0.69903,10e-6 h 0.52063 c 0.23598,-0.0115 0.4684,0.0134 0.69949,0.06 0.10957,0.0222 0.22159,0.027 0.333,0.0311 0.12992,0.003 0.25989,0.003 0.38984,0.003 0.10861,-1.9e-4 0.94483,0.1815 1.05344,0.18138 0.1349,-0.006 2.21084,0.57191 1.19672,0.56043 -2.9953,-0.15549 -5.92743,0.10555 -2.65101,0.7406 l 1.19269,0.0468 c 1.21047,-0.20647 1.86305,0.26178 0.99595,0.2557 -0.1087,1.2e-4 -1.52545,0.10922 -1.63415,0.10943 -0.15428,1.4e-4 -0.46061,-0.11651 -0.61483,-0.12093 -0.20591,-0.009 -0.41213,-0.023 -0.61435,-0.065 -0.0301,-0.006 -0.0712,0.004 -0.0899,-0.02 -0.003,-0.004 0.0199,-0.004 0.0147,-0.005 -0.0902,-0.006 -0.18134,0.004 -0.27161,0 h -0.52064 -0.69902 c -0.19925,0 -0.39849,-1e-5 -0.59774,10e-6 -0.22289,4e-5 -0.44578,1.1e-4 -0.66868,2.7e-4 -0.41112,2.6e-4 -0.68996,0.0833 -1.10109,0.0828 -0.42332,-10e-4 -0.79732,0.0166 -1.22028,-0.003 -0.19536,-0.015 -0.57217,0.063 -0.76453,0.0247 -0.25296,0 -0.0496,0.0331 -0.8085,0.0331 l -0.37553,0.0662 c -0.29813,0.0525 -0.55582,0.14882 -0.85854,0.14884 -0.206243,2e-5 -0.346343,0.0166 -0.552583,0.0168 -0.33436,2.9e-4 -0.37107,0.0337 -0.70543,0.0332 -0.43613,-10e-4 -0.83936,-0.034 -1.32483,0.1637 -0.44823,0.10036 -0.54801,0.12327 -0.84594,0.09 -0.37,-10e-4 -0.77317,-0.0526 -1.14292,-0.0678 -0.33831,-0.0152 -1.12342,0.0478 -1.45969,0.007 l -0.49857,-0.0331 -0.59458,0.0165 c -0.2448,0.007 -0.83705,0.0992 -1.08194,0.0991 -0.41765,-1.2e-4 -0.93453,0.13196 -1.35218,0.13169 -0.50082,-2.1e-4 -0.90243,-0.0341 -1.40323,-0.0301 -0.30447,0.004 -0.64303,-0.0777 -0.94557,-0.0386 -0.38454,0.0513 -0.7528,-0.0826 -1.14072,-0.0694 -0.39583,0.0274 -0.7252,-0.0262 -1.12234,-0.0388 -0.280917,3.2e-4 -0.644537,-0.0311 -0.925377,-0.0231 -0.4315,0.0126 -0.86304,-0.0519 -1.29252,-0.006 -0.40767,0.0318 -1.19708,-0.0382 -1.6032,0.0137 -0.74051,0.0665 -1.03757,0.0336 -1.78113,0.0331 -0.40377,0.002 -0.9413,-0.0526 -1.3439,-0.0181 -0.32488,0.0433 -0.74671,0.0715 -1.07571,0.0771 -0.46473,0.0335 -0.87955,-0.0253 -1.34575,-0.0385 -0.28198,-1.4e-4 -0.61358,0.0155 -0.89555,0.0185 -0.36817,0.005 -0.76935,-5.3e-4 -1.1371,0.0183 -0.51713,0.0276 -0.90172,0.23576 -1.42003,0.22256 -0.39866,-2.2e-4 -0.74771,0.0322 -1.14636,0.0333 -0.31691,0.002 -0.61744,-0.0456 -0.9339,-0.0265 -0.37455,0.0271 -0.87959,0.11268 -1.25537,0.11998 -0.58583,0.0221 -1.15429,0.0125 -1.74038,0.0274 -0.70438,-2.4e-4 -1.24341,0.0489 -1.94779,0.0487 -0.58,2.1e-4 -1.17666,0.0807 -1.75653,0.0949 -0.3798,0.0141 -0.84142,-0.0907 -1.21704,-0.03 -0.47133,0.054 -0.91251,0.0837 -1.38715,0.074 -0.40633,2.2e-4 -1.06071,-0.0655 -1.46704,-0.066 -0.64479,-0.001 -1.22345,0.0611 -1.86815,0.0492 -0.91098,-0.0176 -1.57346,0.0353 -2.48402,0.003 -0.81587,-0.006 -1.63182,-0.0655 -2.44712,-0.0989 -0.79792,-0.0315 -1.95222,-0.15842 -2.67524,-0.13375 -0.75043,-0.0241 -1.30215,0.0306 -2.05309,0.0326 -0.7018,2.9e-4 -1.43669,0.034 -2.13848,0.0301 -1.0606,-0.008 -2.0054,-0.0571 -3.06548,-0.0928 -1.33453,-0.0444 -2.37126,-0.0399 -3.70636,-0.0642 -1.21908,-0.0214 -2.9345,0.01 -4.15372,0.005 -1.16447,-2.1e-4 -1.96514,0.0986 -3.1296,0.0991 -0.93157,9.8e-4 -2.21047,-0.0158 -3.14192,5.6e-4 -1.0504,0.0234 -1.86888,-0.0358 -3.18407,0.0437 l -4.57853,-0.19844 -4.16769,-0.0827 -3.70689,0.13229 c -1.15081,0 -0.96339,0.0967 -3.83276,-0.0496 -1.25514,-0.064 -1.52135,-2.43881 -0.26458,-2.43881 z"
       inkscape:connector-curvature="0"
       sodipodi:nodetypes="cccccccccccccccccccccccccccccccccccccccccsccccccccscccccccsccccccccccccccccsccccccsccccccccsccccccccccccccccccccccccccccccccccccccccscc" />
    <path
       style="opacity:1;fill:url(#linearGradient878-6);fill-opacity:1;fill-rule:nonzero;stroke:none;stroke-width:0.18163295;stroke-miterlimit:4;stroke-dasharray:none;stroke-opacity:1"
       id="path870-3"
       d="m 281.34184,291.25036 -2.40091,0.0331 -5.14128,-0.3142 -3.57447,-0.0661 -3.91775,0.11575 c -1.03323,-0.0141 -1.90116,0.14514 -2.93421,0.12204 -0.94021,-0.0168 -1.88061,-0.0166 -2.82093,-0.0176 -1.16051,-5.6e-4 -2.32101,-1.1e-4 -3.4815,10e-5 -1.22444,0.004 -2.44895,-0.009 -3.67324,0.0116 -1.33913,0.0245 -2.67754,0.0698 -4.01609,0.11456 -1.04058,0.0352 -2.08164,0.051 -3.12272,0.0588 -0.69434,0.004 -1.38867,0.004 -2.083,0.003 -0.76709,-0.003 -1.53335,0.0429 -2.29989,0.0675 -0.79974,0.008 -1.59859,0.0364 -2.3977,0.0681 -0.79288,0.0326 -1.58641,0.0424 -2.37986,0.048 -0.91416,0.0313 -1.82822,0.0623 -2.74277,0.0801 -0.63195,0.0115 -1.26399,0.0153 -1.89603,0.0166 -0.40312,4.8e-4 -0.80624,3e-5 -1.20936,-1.9e-4 -0.40325,0.007 -0.8071,-0.0118 -1.2074,-0.0616 -0.42078,-0.0671 -0.8455,-0.0968 -1.27079,-0.11332 -0.59966,-0.0156 -1.1996,-0.0133 -1.7994,-0.0135 -0.70196,1.6e-4 -1.40393,6.4e-4 -2.1059,8.8e-4 -0.56112,-0.0175 -1.12139,-0.0544 -1.68237,-0.0757 -0.35319,-0.009 -0.7038,-0.0572 -1.05602,-0.0834 -0.35485,-0.0226 -0.71045,-0.0258 -1.06588,-0.0279 -0.40074,-10e-4 -0.8015,-5.2e-4 -1.20225,-2.9e-4 -0.48444,0.0129 -0.96741,-0.0288 -1.45075,-0.0547 -0.38925,-0.02 -0.77885,-0.0315 -1.16854,-0.0371 -0.2896,-0.003 -0.57923,-0.002 -0.86883,-0.002 -0.42168,0.0136 -0.84123,-0.009 -1.2615,-0.0396 -0.29061,-0.003 -0.57455,-0.0588 -0.86113,-0.0986 -0.47642,-0.0512 -0.95702,-0.0451 -1.43555,-0.0478 -0.69076,4.5e-4 -1.38162,-0.0295 -2.06952,-0.0921 -0.4099,-0.0542 -0.82344,-0.0631 -1.23479,-0.0978 -0.45778,-0.0484 -0.91771,-0.0679 -1.3776,-0.0815 -0.29633,-0.008 -0.59277,-0.0103 -0.88921,-0.0106 -0.35558,0.0133 -0.70914,-0.015 -1.06348,-0.0396 -0.34915,-0.0117 -0.69482,-0.0382 -1.04072,-0.0846 -0.37073,-0.0497 -0.74505,-0.0542 -1.11841,-0.0595 -0.5072,-0.004 -1.01443,-0.003 -1.52165,-0.003 -0.41589,2.6e-4 -0.83178,4.8e-4 -1.24768,6e-4 -0.24373,8e-5 -0.48747,9e-5 -0.73121,9e-5 h -0.78978 -0.67774 c -0.36244,0.0293 -0.72424,0.0615 -1.08762,0.0775 -0.3442,0.0136 -0.6887,0.0153 -1.03312,0.0165 -0.32551,0.0204 -0.64874,0.0616 -0.97458,0.0776 -0.40594,0.0152 -0.81228,0.015 -1.21843,0.016 -0.33109,5.1e-4 -0.66217,1.7e-4 -0.99325,-1.2e-4 -0.20582,-2e-4 -0.41168,-2.5e-4 -0.61753,-2.7e-4 -0.30157,-2e-5 -0.60314,-2e-5 -0.9047,-2e-5 h -0.68694 -0.75583 c -0.23695,0.005 -0.46735,0.0657 -0.70331,0.0787 -0.38182,0.015 -0.76404,0.0143 -1.14609,0.0152 -0.40765,5.4e-4 -0.81531,1.6e-4 -1.22296,-1e-4 -0.22227,-1.7e-4 -0.44453,-2.4e-4 -0.66681,-2.8e-4 -0.19854,-2e-5 -0.39708,-2e-5 -0.59561,-2e-5 -0.23207,10e-6 -0.46415,10e-6 -0.69622,10e-6 h -0.51852 c -0.23504,-0.0115 -0.46652,0.0134 -0.69668,0.06 -0.10913,0.0222 -0.2207,0.027 -0.33166,0.0311 -0.12939,0.003 -0.25883,0.003 -0.38825,0.003 -0.10819,-1.9e-4 -0.94103,0.1815 -1.04921,0.18138 -0.13435,-0.006 -2.20194,0.57191 -1.19189,0.56043 2.98322,-0.15549 5.90353,0.10555 2.64032,0.7406 l -1.18788,0.0468 c -1.2056,-0.20647 -1.85553,0.26178 -0.99193,0.2557 0.10825,1.2e-4 1.5193,0.10922 1.62755,0.10943 0.15368,1.4e-4 0.45875,-0.11651 0.61235,-0.12093 0.20509,-0.009 0.41048,-0.023 0.61188,-0.065 0.03,-0.006 0.0709,0.004 0.0896,-0.02 0.003,-0.004 -0.0199,-0.004 -0.0146,-0.005 0.0899,-0.006 0.18061,0.004 0.27052,0 h 0.51854 0.6962 c 0.19845,0 0.39688,-10e-6 0.59534,1e-5 0.22199,4e-5 0.44398,1.1e-4 0.66598,2.7e-4 0.40946,2.6e-4 0.68718,0.0833 1.09666,0.0828 0.4216,-10e-4 0.7941,0.0166 1.21535,-0.003 0.19458,-0.015 0.56987,0.063 0.76145,0.0247 0.25195,0 0.0494,0.0331 0.80524,0.0331 l 0.37402,0.0662 c 0.29693,0.0525 0.55358,0.14882 0.85509,0.14884 0.2054,2e-5 0.34493,0.0166 0.55035,0.0168 0.33302,2.9e-4 0.36957,0.0337 0.7026,0.0332 0.43435,-10e-4 0.83596,-0.034 1.31949,0.1637 0.44642,0.10036 0.5458,0.12327 0.84251,0.09 0.36852,-0.001 0.77007,-0.0526 1.13833,-0.0678 0.33694,-0.0152 1.1189,0.0478 1.4538,0.007 l 0.49657,-0.0331 0.59218,0.0165 c 0.24382,0.007 0.83367,0.0992 1.07758,0.0991 0.41597,-1.2e-4 0.93076,0.13196 1.34672,0.13169 0.49882,-2.1e-4 0.8988,-0.0341 1.3976,-0.0301 0.30323,0.004 0.64043,-0.0777 0.94175,-0.0386 0.38299,0.0513 0.74976,-0.0826 1.13613,-0.0694 0.39423,0.0274 0.72226,-0.0262 1.1178,-0.0388 0.27979,3.2e-4 0.64194,-0.0311 0.92166,-0.0231 0.42975,0.0126 0.85956,-0.0519 1.2873,-0.006 0.40603,0.0318 1.19226,-0.0382 1.59675,0.0137 0.73753,0.0665 1.03339,0.0336 1.77395,0.0331 0.40214,0.002 0.93751,-0.0526 1.33848,-0.0181 0.32357,0.0433 0.74371,0.0715 1.07138,0.0771 0.46286,0.0335 0.87601,-0.0253 1.34033,-0.0385 0.28084,-1.4e-4 0.6111,0.0155 0.89194,0.0185 0.36669,0.005 0.76625,-5.3e-4 1.13252,0.0183 0.51504,0.0276 0.89809,0.23576 1.41431,0.22256 0.39705,-2.2e-4 0.74469,0.0322 1.14174,0.0333 0.31563,0.002 0.61494,-0.0456 0.93013,-0.0265 0.37304,0.0271 0.87605,0.11268 1.25032,0.11998 0.58346,0.0221 1.14963,0.0125 1.73336,0.0274 0.70155,-2.4e-4 1.23841,0.0489 1.93995,0.0487 0.57766,2.1e-4 1.17191,0.0807 1.74945,0.0949 0.37827,0.0141 0.83802,-0.0907 1.21213,-0.03 0.46943,0.054 0.90883,0.0837 1.38156,0.074 0.40469,2.2e-4 1.05644,-0.0655 1.46113,-0.066 0.6422,-0.001 1.21852,0.0611 1.86062,0.0492 0.90732,-0.0176 1.56713,0.0353 2.47402,0.003 0.81258,-0.006 1.62524,-0.0655 2.43726,-0.0989 0.7947,-0.0315 1.94436,-0.15842 2.66446,-0.13375 0.7474,-0.0241 1.2969,0.0306 2.04482,0.0326 0.69896,2.9e-4 1.43089,0.034 2.12986,0.0301 1.05632,-0.008 1.99732,-0.0571 3.05312,-0.0928 1.32916,-0.0444 2.36171,-0.0399 3.69143,-0.0642 1.21417,-0.0214 2.92268,0.01 4.13698,0.005 1.15978,-2.1e-4 1.95722,0.0986 3.11699,0.0991 0.92782,9.8e-4 2.20157,-0.0158 3.12926,5.6e-4 1.04617,0.0234 1.86136,-0.0358 3.17124,0.0437 l 4.56009,-0.19844 4.1509,-0.0827 3.69195,0.13229 c 1.14617,0 0.95951,0.0967 3.81732,-0.0496 1.25008,-0.064 1.51522,-2.43881 0.26351,-2.43881 z"
       inkscape:connector-curvature="0"
       sodipodi:nodetypes="cccccccccccccccccccccccccccccccccccccccccsccccccccscccccccsccccccccccccccccsccccccsccccccccsccccccccccccccccccccccccccccccccccccccccscc" />
  </g>
</svg>
